<?xml version="1.0" encoding="UTF-8"?>
<svg xmlns="http://www.w3.org/2000/svg" width="80" height="34" viewBox="0 0 117 34" fill="none">
  <path d="M28.7407 3.37241C34.5587 13.4255 40.3422 23.4193 46.2014 33.5437C35.163 33.4249 24.2537 33.3075 13.3458 33.19C13.3458 33.1755 13.3431 33.161 13.3418 33.1465C20.1887 32.3745 27.037 31.6011 34.0902 30.8054C33.072 29.6309 32.2108 28.6359 31.3469 27.6435C28.3334 24.1847 25.3199 20.7259 22.3011 17.271C22.0722 17.0097 21.9138 16.7933 22.1094 16.4066C24.2777 12.1296 26.4274 7.84472 28.5823 3.56112C28.601 3.52417 28.6369 3.49382 28.7394 3.37109L28.7407 3.37241Z" fill="#616161"></path>
  <path d="M27.0057 0C25.4191 2.87025 23.8897 5.64152 22.3563 8.41016C18.7199 14.9768 15.0821 21.5407 11.443 28.106C10.9625 28.9717 10.502 29.8506 9.97622 30.6886C9.82981 30.9221 9.49572 31.1518 9.22418 31.1821C6.56607 31.4777 3.90264 31.7284 1.24054 31.9963C0.8745 32.0333 0.509792 32.0887 0 32.1547C0.171706 31.8182 0.264879 31.6044 0.383343 31.4065C4.02643 25.3242 7.66153 19.2379 11.3326 13.1728C11.652 12.6462 12.1831 12.2266 12.6703 11.8228C17.3476 7.94696 22.0342 4.08301 26.7168 0.216423C26.7794 0.164957 26.846 0.120089 27.0057 0Z" fill="#616161"></path>
  <path d="M50.2793 29.7733C50.6147 28.942 50.8876 28.2544 51.1711 27.5695C53.2702 22.4875 55.3772 17.4095 57.459 12.3209C57.6666 11.8142 57.9209 11.607 58.4839 11.6307C60.346 11.7059 59.8642 11.3127 60.5923 13.0573C62.8191 18.3953 65.018 23.7452 67.2262 29.0911C67.2994 29.2692 67.358 29.4527 67.4658 29.7509C66.7098 29.7509 66.0323 29.7839 65.3628 29.7271C65.203 29.714 65.0193 29.417 64.9342 29.2138C64.3951 27.9377 63.864 26.6563 63.3688 25.3631C63.1852 24.884 62.9296 24.6913 62.3919 24.6979C60.0186 24.727 57.6453 24.7257 55.2721 24.6979C54.7649 24.6927 54.5147 24.8629 54.347 25.3235C53.8731 26.6246 53.3487 27.9073 52.8762 29.2098C52.7231 29.6308 52.4915 29.8024 52.0443 29.7786C51.5025 29.7509 50.9581 29.772 50.2806 29.772L50.2793 29.7733ZM62.3506 22.8623C61.1513 19.7981 59.9973 16.8526 58.8326 13.8781C57.6706 16.8671 56.5233 19.8179 55.3386 22.8623H62.3506Z" fill="#616161"></path>
  <path d="M115.921 27.2936C116.237 28.5974 116.052 29.0554 114.892 29.4684C112.544 30.3037 110.168 30.5162 107.864 29.3523C106.225 28.5249 105.393 27.0706 105.062 25.3207C104.675 23.2753 104.789 21.2945 105.931 19.4707C107.823 16.45 111.643 15.9406 114.238 17.2563C115.83 18.064 116.556 19.5037 116.842 21.1797C116.948 21.8025 116.927 22.4465 116.992 23.0786C117.048 23.625 116.836 23.8018 116.28 23.7965C113.464 23.7728 110.646 23.7847 107.828 23.786C106.98 23.786 106.984 23.811 107.097 24.6517C107.518 27.7674 110.009 28.8732 112.644 28.4351C113.666 28.2649 114.632 27.7555 115.624 27.3992C115.721 27.3649 115.818 27.3292 115.919 27.2923L115.921 27.2936ZM107.158 22.143C107.429 22.1602 107.684 22.1892 107.94 22.1892C109.781 22.1918 111.621 22.1892 113.464 22.1892C115.001 22.1892 115.094 22.0546 114.634 20.5792C114.109 18.8953 112.681 17.9755 110.832 18.2078C108.756 18.4678 107.174 20.153 107.158 22.1443V22.143Z" fill="#616161"></path>
  <path d="M91.6521 27.8005C91.4671 27.9707 91.3713 28.0301 91.3154 28.1145C89.8552 30.317 86.9229 30.5506 84.8119 29.6664C83.1906 28.9868 82.4692 27.5669 82.4066 25.9252C82.2988 23.1157 82.3547 20.3009 82.3321 17.4874C82.3281 17.0664 82.4918 16.9001 82.9231 16.9067C84.6787 16.9344 84.3686 16.7259 84.3806 18.3214C84.3979 20.4526 84.3819 22.5852 84.3899 24.7177C84.3899 25.0226 84.4072 25.3353 84.4698 25.6323C84.8611 27.5246 85.9046 28.4735 87.6257 28.5249C89.5198 28.5817 91.0651 27.5114 91.531 25.7853C91.6388 25.3881 91.6921 24.9645 91.6947 24.5528C91.7094 22.2671 91.72 19.9802 91.6894 17.6959C91.6814 17.1047 91.8305 16.8764 92.4667 16.9001C94.0573 16.9595 93.8297 16.7154 93.835 18.2805C93.8444 21.8409 93.8271 25.4013 93.8484 28.9631C93.8523 29.5424 93.7192 29.7944 93.0777 29.7773C91.4511 29.7351 91.7253 29.8697 91.7 28.4563C91.6974 28.2848 91.6761 28.1119 91.6535 27.7991L91.6521 27.8005Z" fill="#616161"></path>
  <path d="M71.4363 28.1064C71.8369 28.1512 72.1098 28.2066 72.384 28.2066C74.535 28.2132 76.6859 28.2093 78.8369 28.2119C79.5796 28.2119 79.975 28.8744 79.6063 29.5369C79.5344 29.6649 79.2828 29.7599 79.1124 29.7599C75.653 29.7718 72.1936 29.7691 68.7342 29.7572C68.5758 29.7572 68.4188 29.653 68.2617 29.5962C68.3429 29.3811 68.3775 29.1304 68.5119 28.9562C70.0506 26.9688 71.6053 24.9946 73.1547 23.0151C74.1596 21.7298 75.1645 20.4444 76.1655 19.1565C76.2813 19.0073 76.3745 18.8397 76.5555 18.5626C76.2081 18.5389 75.9818 18.5111 75.7555 18.5098C73.7377 18.5059 71.7184 18.4821 69.7019 18.5204C69.051 18.5323 68.9845 18.2393 68.9951 17.7233C69.0044 17.239 68.9965 16.8919 69.6766 16.8985C72.8033 16.9289 75.9299 16.9091 79.0565 16.9196C79.2535 16.9196 79.6063 17.0226 79.6156 17.1057C79.6369 17.3169 79.5597 17.5834 79.4266 17.7563C77.0001 20.8958 74.5589 24.0247 72.1231 27.1575C71.9115 27.4294 71.7171 27.7157 71.4363 28.105V28.1064Z" fill="#616161"></path>
  <path d="M99.4218 19.3742C100.051 18.6378 100.537 17.9239 101.166 17.3696C101.948 16.6794 102.94 16.5343 103.977 16.7164C104.349 16.7824 104.508 16.9579 104.485 17.3393C104.46 17.7695 104.48 18.201 104.48 18.6866C104.132 18.6114 103.88 18.5507 103.624 18.5019C102.123 18.2155 100.778 18.7685 100.129 20.133C99.7533 20.9221 99.491 21.8327 99.4524 22.6997C99.3566 24.8046 99.4032 26.916 99.4325 29.0248C99.4405 29.6068 99.2488 29.7915 98.6698 29.7783C97.0499 29.7401 97.2935 29.9024 97.2895 28.4006C97.2788 24.8204 97.2975 21.2389 97.2735 17.6586C97.2695 17.0872 97.4279 16.8853 98.0216 16.9051C99.6561 16.9592 99.3965 16.7085 99.4205 18.3198C99.4258 18.6616 99.4205 19.0034 99.4205 19.3755L99.4218 19.3742Z" fill="#616161"></path>
</svg>
