<?xml version="1.0" encoding="UTF-8"?>
<svg xmlns="http://www.w3.org/2000/svg" width="193" height="32" viewBox="0 0 193 32" fill="none">
  <path d="M52.7176 26.5734C54.0176 26.5734 54.9176 25.5734 54.9176 24.0734C54.9176 22.4734 54.0176 21.5734 52.7176 21.5734C52.0176 21.5734 51.4176 21.9734 51.0176 22.3734V21.6734H50.5176V28.3734H51.0176V25.6734C51.4176 26.2734 52.0176 26.5734 52.7176 26.5734ZM52.6176 26.1734C51.9176 26.1734 51.3176 25.7734 51.0176 25.2734V22.8734C51.3176 22.3734 51.9176 21.9734 52.6176 21.9734C53.7176 21.9734 54.3176 22.8734 54.3176 24.0734C54.3176 25.2734 53.7176 26.1734 52.6176 26.1734ZM59.1176 26.5734C60.5176 26.5734 61.4176 25.4734 61.4176 24.0734C61.4176 22.6734 60.5176 21.5734 59.1176 21.5734C57.7176 21.5734 56.8176 22.6734 56.8176 24.0734C56.8176 25.4734 57.7176 26.5734 59.1176 26.5734ZM59.1176 26.1734C58.0176 26.1734 57.3176 25.1734 57.3176 24.0734C57.4176 22.9734 58.0176 21.9734 59.1176 21.9734C60.2176 21.9734 60.9176 22.9734 60.9176 24.0734C60.9176 25.1734 60.3176 26.1734 59.1176 26.1734ZM68.3176 26.4734L69.9176 21.6734H69.3176L68.0176 25.7734L66.7176 21.6734H66.2176L64.8176 25.7734L63.5176 21.6734H62.9176L64.5176 26.4734H65.0176L66.4176 22.3734L67.8176 26.4734H68.3176ZM73.9176 26.5734C74.7176 26.5734 75.3176 26.2734 75.8176 25.7734L75.5176 25.4734C75.1176 25.8734 74.5176 26.1734 73.9176 26.1734C72.8176 26.1734 72.1176 25.2734 72.0176 24.2734H76.0176V24.0734C76.0176 22.6734 75.2176 21.4734 73.7176 21.4734C72.4176 21.4734 71.4176 22.5734 71.4176 23.9734C71.5176 25.5734 72.5176 26.5734 73.9176 26.5734ZM75.6176 23.8734H72.1176C72.1176 22.9734 72.7176 21.9734 73.8176 21.9734C75.1176 21.9734 75.6176 22.9734 75.6176 23.8734ZM78.9176 26.4734V22.9734C79.1176 22.5734 79.8176 22.0734 80.3176 22.0734C80.4176 22.0734 80.5176 22.0734 80.6176 22.0734V21.5734C79.9176 21.5734 79.4176 21.9734 79.0176 22.4734V21.6734H78.5176V26.4734H78.9176ZM84.6176 26.5734C85.4176 26.5734 86.0176 26.2734 86.5176 25.7734L86.2176 25.4734C85.8176 25.8734 85.2176 26.1734 84.6176 26.1734C83.5176 26.1734 82.8176 25.2734 82.7176 24.2734H86.7176V24.0734C86.7176 22.6734 85.9176 21.4734 84.4176 21.4734C83.1176 21.4734 82.1176 22.5734 82.1176 23.9734C82.2176 25.5734 83.2176 26.5734 84.6176 26.5734ZM86.3176 23.8734H82.8176C82.8176 22.9734 83.4176 21.9734 84.5176 21.9734C85.7176 21.9734 86.3176 22.9734 86.3176 23.8734ZM93.1176 26.4734V19.7734H92.6176V22.3734C92.2176 21.8734 91.6176 21.4734 90.9176 21.4734C89.6176 21.4734 88.7176 22.4734 88.7176 23.9734C88.7176 25.5734 89.6176 26.4734 90.9176 26.4734C91.6176 26.4734 92.2176 26.0734 92.6176 25.5734V26.3734H93.1176V26.4734ZM91.0176 26.1734C89.9176 26.1734 89.3176 25.2734 89.3176 24.0734C89.3176 22.8734 89.9176 21.9734 91.0176 21.9734C91.7176 21.9734 92.3176 22.3734 92.6176 22.8734V25.2734C92.3176 25.7734 91.7176 26.1734 91.0176 26.1734ZM99.7176 25.2734V22.8734C100.018 22.4734 100.618 21.9734 101.318 21.9734C102.418 21.9734 103.018 22.8734 103.018 24.0734C103.018 25.2734 102.418 26.1734 101.318 26.1734C100.618 26.1734 100.018 25.7734 99.7176 25.2734ZM99.7176 26.4734V25.6734C100.018 26.1734 100.718 26.5734 101.418 26.5734C102.718 26.5734 103.618 25.5734 103.618 24.0734C103.618 22.5734 102.718 21.5734 101.418 21.5734C100.718 21.5734 100.118 21.9734 99.7176 22.4734V19.7734H99.2176V26.4734H99.7176ZM105.518 28.3734C105.618 28.3734 105.918 28.4734 106.018 28.4734C106.618 28.4734 107.018 28.1734 107.218 27.5734L109.718 21.6734H109.118L107.418 25.8734L105.618 21.6734H105.018L107.018 26.5734L106.718 27.3734C106.518 27.8734 106.318 27.9734 106.018 27.9734C105.918 27.9734 105.718 27.9734 105.618 27.8734L105.518 28.3734ZM114.918 26.4734H115.818V23.1734C116.018 22.7734 116.618 22.4734 117.118 22.4734C117.218 22.4734 117.318 22.4734 117.418 22.4734V21.5734C116.818 21.5734 116.218 21.9734 115.818 22.4734V21.6734H114.918V26.4734ZM121.318 26.5734C122.818 26.5734 123.718 25.4734 123.718 24.0734C123.718 22.6734 122.818 21.5734 121.318 21.5734C119.818 21.5734 118.918 22.6734 118.918 24.0734C118.918 25.4734 119.818 26.5734 121.318 26.5734ZM121.318 25.7734C120.318 25.7734 119.818 24.9734 119.818 24.0734C119.818 23.1734 120.318 22.3734 121.318 22.3734C122.318 22.3734 122.818 23.1734 122.818 24.0734C122.818 24.9734 122.318 25.7734 121.318 25.7734ZM125.518 24.0734C125.518 25.4734 126.518 26.5734 128.018 26.5734C128.918 26.5734 129.518 26.1734 129.818 25.7734L129.218 25.1734C128.918 25.5734 128.518 25.7734 128.018 25.7734C127.018 25.7734 126.418 25.0734 126.418 24.0734C126.418 23.0734 127.018 22.3734 128.018 22.3734C128.518 22.3734 128.918 22.5734 129.218 22.9734L129.818 22.4734C129.518 21.9734 128.918 21.5734 128.018 21.5734C126.518 21.5734 125.518 22.5734 125.518 24.0734ZM134.918 26.4734H136.018L133.918 23.8734L136.018 21.6734H134.918L132.618 24.1734V19.7734H131.718V26.4734H132.618V25.1734L133.318 24.4734L134.918 26.4734ZM137.318 24.0734C137.318 25.5734 138.418 26.5734 139.818 26.5734C140.618 26.5734 141.318 26.3734 141.718 25.8734L141.318 25.2734C140.918 25.6734 140.418 25.8734 139.918 25.8734C138.918 25.8734 138.318 25.1734 138.318 24.3734H142.118V24.1734C142.118 22.6734 141.218 21.5734 139.818 21.5734C138.318 21.5734 137.318 22.6734 137.318 24.0734ZM139.718 22.2734C140.718 22.2734 141.118 23.0734 141.218 23.6734H138.218C138.318 23.0734 138.718 22.2734 139.718 22.2734ZM145.418 26.5734C145.918 26.5734 146.218 26.4734 146.318 26.2734L146.118 25.5734C146.018 25.6734 145.818 25.7734 145.618 25.7734C145.318 25.7734 145.118 25.5734 145.118 25.1734V22.4734H146.118V21.6734H145.118V20.3734H144.218V21.6734H143.418V22.4734H144.218V25.4734C144.318 26.1734 144.618 26.5734 145.418 26.5734ZM147.918 25.9734C147.918 26.2734 148.218 26.5734 148.518 26.5734C148.818 26.5734 149.118 26.2734 149.118 25.9734C149.118 25.6734 148.818 25.3734 148.518 25.3734C148.218 25.3734 147.918 25.6734 147.918 25.9734ZM151.018 24.0734C151.018 25.4734 152.018 26.5734 153.518 26.5734C154.418 26.5734 155.018 26.1734 155.318 25.7734L154.718 25.1734C154.418 25.5734 154.018 25.7734 153.518 25.7734C152.618 25.7734 151.918 25.0734 151.918 24.0734C151.918 23.0734 152.518 22.3734 153.518 22.3734C154.018 22.3734 154.418 22.5734 154.718 22.9734L155.318 22.4734C155.018 21.9734 154.418 21.5734 153.518 21.5734C152.018 21.5734 151.018 22.5734 151.018 24.0734ZM160.418 26.4734H161.318V23.0734C161.318 22.0734 160.818 21.5734 159.718 21.5734C159.018 21.5734 158.318 21.9734 158.018 22.3734V19.7734H157.118V26.4734H158.018V23.0734C158.318 22.6734 158.818 22.3734 159.318 22.3734C159.918 22.3734 160.318 22.5734 160.318 23.3734V26.4734H160.418ZM166.618 26.4734H167.518V23.2734C167.518 22.0734 166.618 21.5734 165.618 21.5734C164.818 21.5734 164.218 21.8734 163.618 22.3734L164.018 22.9734C164.418 22.5734 164.918 22.3734 165.518 22.3734C166.218 22.3734 166.718 22.7734 166.718 23.3734V24.1734C166.318 23.7734 165.818 23.5734 165.118 23.5734C164.318 23.5734 163.418 24.0734 163.418 25.1734C163.418 26.2734 164.318 26.7734 165.118 26.7734C165.818 26.7734 166.318 26.5734 166.718 26.0734V26.4734H166.618ZM166.618 25.4734C166.318 25.8734 165.918 26.0734 165.418 26.0734C164.718 26.0734 164.318 25.6734 164.318 25.0734C164.318 24.4734 164.818 24.0734 165.418 24.0734C165.918 24.0734 166.418 24.2734 166.618 24.6734V25.4734ZM171.218 26.5734C171.718 26.5734 172.018 26.4734 172.118 26.2734L171.918 25.5734C171.818 25.6734 171.618 25.7734 171.418 25.7734C171.118 25.7734 170.918 25.5734 170.918 25.1734V22.4734H171.918V21.6734H170.918V20.3734H170.018V21.6734H169.218V22.4734H170.018V25.4734C170.118 26.1734 170.518 26.5734 171.218 26.5734Z" fill="#575757"></path>
  <path d="M52.7176 26.5734C54.0176 26.5734 54.9176 25.5734 54.9176 24.0734C54.9176 22.4734 54.0176 21.5734 52.7176 21.5734C52.0176 21.5734 51.4176 21.9734 51.0176 22.3734V21.6734H50.5176V28.3734H51.0176V25.6734C51.4176 26.2734 52.0176 26.5734 52.7176 26.5734ZM52.6176 26.1734C51.9176 26.1734 51.3176 25.7734 51.0176 25.2734V22.8734C51.3176 22.3734 51.9176 21.9734 52.6176 21.9734C53.7176 21.9734 54.3176 22.8734 54.3176 24.0734C54.3176 25.2734 53.7176 26.1734 52.6176 26.1734ZM59.1176 26.5734C60.5176 26.5734 61.4176 25.4734 61.4176 24.0734C61.4176 22.6734 60.5176 21.5734 59.1176 21.5734C57.7176 21.5734 56.8176 22.6734 56.8176 24.0734C56.8176 25.4734 57.7176 26.5734 59.1176 26.5734ZM59.1176 26.1734C58.0176 26.1734 57.3176 25.1734 57.3176 24.0734C57.4176 22.9734 58.0176 21.9734 59.1176 21.9734C60.2176 21.9734 60.9176 22.9734 60.9176 24.0734C60.9176 25.1734 60.3176 26.1734 59.1176 26.1734ZM68.3176 26.4734L69.9176 21.6734H69.3176L68.0176 25.7734L66.7176 21.6734H66.2176L64.8176 25.7734L63.5176 21.6734H62.9176L64.5176 26.4734H65.0176L66.4176 22.3734L67.8176 26.4734H68.3176ZM73.9176 26.5734C74.7176 26.5734 75.3176 26.2734 75.8176 25.7734L75.5176 25.4734C75.1176 25.8734 74.5176 26.1734 73.9176 26.1734C72.8176 26.1734 72.1176 25.2734 72.0176 24.2734H76.0176V24.0734C76.0176 22.6734 75.2176 21.4734 73.7176 21.4734C72.4176 21.4734 71.4176 22.5734 71.4176 23.9734C71.5176 25.5734 72.5176 26.5734 73.9176 26.5734ZM75.6176 23.8734H72.1176C72.1176 22.9734 72.7176 21.9734 73.8176 21.9734C75.1176 21.9734 75.6176 22.9734 75.6176 23.8734ZM78.9176 26.4734V22.9734C79.1176 22.5734 79.8176 22.0734 80.3176 22.0734C80.4176 22.0734 80.5176 22.0734 80.6176 22.0734V21.5734C79.9176 21.5734 79.4176 21.9734 79.0176 22.4734V21.6734H78.5176V26.4734H78.9176ZM84.6176 26.5734C85.4176 26.5734 86.0176 26.2734 86.5176 25.7734L86.2176 25.4734C85.8176 25.8734 85.2176 26.1734 84.6176 26.1734C83.5176 26.1734 82.8176 25.2734 82.7176 24.2734H86.7176V24.0734C86.7176 22.6734 85.9176 21.4734 84.4176 21.4734C83.1176 21.4734 82.1176 22.5734 82.1176 23.9734C82.2176 25.5734 83.2176 26.5734 84.6176 26.5734ZM86.3176 23.8734H82.8176C82.8176 22.9734 83.4176 21.9734 84.5176 21.9734C85.7176 21.9734 86.3176 22.9734 86.3176 23.8734ZM93.1176 26.4734V19.7734H92.6176V22.3734C92.2176 21.8734 91.6176 21.4734 90.9176 21.4734C89.6176 21.4734 88.7176 22.4734 88.7176 23.9734C88.7176 25.5734 89.6176 26.4734 90.9176 26.4734C91.6176 26.4734 92.2176 26.0734 92.6176 25.5734V26.3734H93.1176V26.4734ZM91.0176 26.1734C89.9176 26.1734 89.3176 25.2734 89.3176 24.0734C89.3176 22.8734 89.9176 21.9734 91.0176 21.9734C91.7176 21.9734 92.3176 22.3734 92.6176 22.8734V25.2734C92.3176 25.7734 91.7176 26.1734 91.0176 26.1734ZM99.7176 25.2734V22.8734C100.018 22.4734 100.618 21.9734 101.318 21.9734C102.418 21.9734 103.018 22.8734 103.018 24.0734C103.018 25.2734 102.418 26.1734 101.318 26.1734C100.618 26.1734 100.018 25.7734 99.7176 25.2734ZM99.7176 26.4734V25.6734C100.018 26.1734 100.718 26.5734 101.418 26.5734C102.718 26.5734 103.618 25.5734 103.618 24.0734C103.618 22.5734 102.718 21.5734 101.418 21.5734C100.718 21.5734 100.118 21.9734 99.7176 22.4734V19.7734H99.2176V26.4734H99.7176ZM105.518 28.3734C105.618 28.3734 105.918 28.4734 106.018 28.4734C106.618 28.4734 107.018 28.1734 107.218 27.5734L109.718 21.6734H109.118L107.418 25.8734L105.618 21.6734H105.018L107.018 26.5734L106.718 27.3734C106.518 27.8734 106.318 27.9734 106.018 27.9734C105.918 27.9734 105.718 27.9734 105.618 27.8734L105.518 28.3734ZM114.918 26.4734H115.818V23.1734C116.018 22.7734 116.618 22.4734 117.118 22.4734C117.218 22.4734 117.318 22.4734 117.418 22.4734V21.5734C116.818 21.5734 116.218 21.9734 115.818 22.4734V21.6734H114.918V26.4734ZM121.318 26.5734C122.818 26.5734 123.718 25.4734 123.718 24.0734C123.718 22.6734 122.818 21.5734 121.318 21.5734C119.818 21.5734 118.918 22.6734 118.918 24.0734C118.918 25.4734 119.818 26.5734 121.318 26.5734ZM121.318 25.7734C120.318 25.7734 119.818 24.9734 119.818 24.0734C119.818 23.1734 120.318 22.3734 121.318 22.3734C122.318 22.3734 122.818 23.1734 122.818 24.0734C122.818 24.9734 122.318 25.7734 121.318 25.7734ZM125.518 24.0734C125.518 25.4734 126.518 26.5734 128.018 26.5734C128.918 26.5734 129.518 26.1734 129.818 25.7734L129.218 25.1734C128.918 25.5734 128.518 25.7734 128.018 25.7734C127.018 25.7734 126.418 25.0734 126.418 24.0734C126.418 23.0734 127.018 22.3734 128.018 22.3734C128.518 22.3734 128.918 22.5734 129.218 22.9734L129.818 22.4734C129.518 21.9734 128.918 21.5734 128.018 21.5734C126.518 21.5734 125.518 22.5734 125.518 24.0734ZM134.918 26.4734H136.018L133.918 23.8734L136.018 21.6734H134.918L132.618 24.1734V19.7734H131.718V26.4734H132.618V25.1734L133.318 24.4734L134.918 26.4734ZM137.318 24.0734C137.318 25.5734 138.418 26.5734 139.818 26.5734C140.618 26.5734 141.318 26.3734 141.718 25.8734L141.318 25.2734C140.918 25.6734 140.418 25.8734 139.918 25.8734C138.918 25.8734 138.318 25.1734 138.318 24.3734H142.118V24.1734C142.118 22.6734 141.218 21.5734 139.818 21.5734C138.318 21.5734 137.318 22.6734 137.318 24.0734ZM139.718 22.2734C140.718 22.2734 141.118 23.0734 141.218 23.6734H138.218C138.318 23.0734 138.718 22.2734 139.718 22.2734ZM145.418 26.5734C145.918 26.5734 146.218 26.4734 146.318 26.2734L146.118 25.5734C146.018 25.6734 145.818 25.7734 145.618 25.7734C145.318 25.7734 145.118 25.5734 145.118 25.1734V22.4734H146.118V21.6734H145.118V20.3734H144.218V21.6734H143.418V22.4734H144.218V25.4734C144.318 26.1734 144.618 26.5734 145.418 26.5734ZM147.918 25.9734C147.918 26.2734 148.218 26.5734 148.518 26.5734C148.818 26.5734 149.118 26.2734 149.118 25.9734C149.118 25.6734 148.818 25.3734 148.518 25.3734C148.218 25.3734 147.918 25.6734 147.918 25.9734ZM151.018 24.0734C151.018 25.4734 152.018 26.5734 153.518 26.5734C154.418 26.5734 155.018 26.1734 155.318 25.7734L154.718 25.1734C154.418 25.5734 154.018 25.7734 153.518 25.7734C152.618 25.7734 151.918 25.0734 151.918 24.0734C151.918 23.0734 152.518 22.3734 153.518 22.3734C154.018 22.3734 154.418 22.5734 154.718 22.9734L155.318 22.4734C155.018 21.9734 154.418 21.5734 153.518 21.5734C152.018 21.5734 151.018 22.5734 151.018 24.0734ZM160.418 26.4734H161.318V23.0734C161.318 22.0734 160.818 21.5734 159.718 21.5734C159.018 21.5734 158.318 21.9734 158.018 22.3734V19.7734H157.118V26.4734H158.018V23.0734C158.318 22.6734 158.818 22.3734 159.318 22.3734C159.918 22.3734 160.318 22.5734 160.318 23.3734V26.4734H160.418ZM166.618 26.4734H167.518V23.2734C167.518 22.0734 166.618 21.5734 165.618 21.5734C164.818 21.5734 164.218 21.8734 163.618 22.3734L164.018 22.9734C164.418 22.5734 164.918 22.3734 165.518 22.3734C166.218 22.3734 166.718 22.7734 166.718 23.3734V24.1734C166.318 23.7734 165.818 23.5734 165.118 23.5734C164.318 23.5734 163.418 24.0734 163.418 25.1734C163.418 26.2734 164.318 26.7734 165.118 26.7734C165.818 26.7734 166.318 26.5734 166.718 26.0734V26.4734H166.618ZM166.618 25.4734C166.318 25.8734 165.918 26.0734 165.418 26.0734C164.718 26.0734 164.318 25.6734 164.318 25.0734C164.318 24.4734 164.818 24.0734 165.418 24.0734C165.918 24.0734 166.418 24.2734 166.618 24.6734V25.4734ZM171.218 26.5734C171.718 26.5734 172.018 26.4734 172.118 26.2734L171.918 25.5734C171.818 25.6734 171.618 25.7734 171.418 25.7734C171.118 25.7734 170.918 25.5734 170.918 25.1734V22.4734H171.918V21.6734H170.918V20.3734H170.018V21.6734H169.218V22.4734H170.018V25.4734C170.118 26.1734 170.518 26.5734 171.218 26.5734Z" fill="#575757"></path>
  <path d="M1.1 10.5H3.6C4.2 10.5 4.7 11 4.7 11.6V14.2C4.7 14.8 4.2 15.3 3.6 15.3H1.1C0.5 15.3 0 14.8 0 14.2V11.6C0 11 0.5 10.5 1.1 10.5Z" fill="#575757"></path>
  <path d="M6.29922 15.8008H8.79922C9.39922 15.8008 9.89922 16.3008 9.89922 16.9008V19.5008C9.89922 20.1008 9.39922 20.6008 8.79922 20.6008H6.29922C5.69922 20.6008 5.19922 20.1008 5.19922 19.5008V16.9008C5.19922 16.2008 5.69922 15.8008 6.29922 15.8008Z" fill="#575757"></path>
  <path d="M1.1 21H3.6C4.2 21 4.7 21.5 4.7 22.1V24.7C4.7 25.3 4.2 25.8 3.6 25.8H1.1C0.5 25.8 0 25.3 0 24.7V22.1C0 21.5 0.5 21 1.1 21Z" fill="#575757"></path>
  <path d="M6.29922 26.3008H8.79922C9.39922 26.3008 9.89922 26.8008 9.89922 27.4008V30.0008C9.89922 30.6008 9.39922 31.1008 8.79922 31.1008H6.29922C5.69922 31.1008 5.19922 30.6008 5.19922 30.0008V27.4008C5.19922 26.7008 5.69922 26.3008 6.29922 26.3008Z" fill="#575757"></path>
  <path d="M11.4004 26.3008H14.0004C14.6004 26.3008 15.1004 26.8008 15.1004 27.4008V30.0008C15.1004 30.6008 14.6004 31.1008 14.0004 31.1008H11.5004C10.9004 31.1008 10.4004 30.6008 10.4004 30.0008V27.4008C10.4004 26.7008 10.9004 26.3008 11.4004 26.3008Z" fill="#575757"></path>
  <path d="M16.6 21H19.1C19.7 21 20.2 21.5 20.2 22.1V24.7C20.2 25.3 19.7 25.8 19.1 25.8H16.6C16 25.8 15.5 25.3 15.5 24.7V22.1C15.6 21.5 16 21 16.6 21Z" fill="#575757"></path>
  <path d="M21.7992 15.8008H24.2992C24.8992 15.8008 25.3992 16.3008 25.3992 16.9008V19.5008C25.3992 20.1008 24.8992 20.6008 24.2992 20.6008H21.7992C21.1992 20.6008 20.6992 20.1008 20.6992 19.5008V16.9008C20.7992 16.2008 21.1992 15.8008 21.7992 15.8008Z" fill="#575757"></path>
  <path d="M27.0004 10.5H29.5004C30.1004 10.5 30.6004 11 30.6004 11.6V14.2C30.6004 14.8 30.1004 15.3 29.5004 15.3H27.0004C26.4004 15.3 25.9004 14.8 25.9004 14.2V11.6C25.9004 11 26.4004 10.5 27.0004 10.5Z" fill="#575757"></path>
  <path d="M27.0004 21H29.5004C30.1004 21 30.6004 21.5 30.6004 22.1V24.7C30.6004 25.3 30.1004 25.8 29.5004 25.8H27.0004C26.4004 25.8 25.9004 25.3 25.9004 24.7V22.1C25.9004 21.5 26.4004 21 27.0004 21Z" fill="#575757"></path>
  <path d="M27.0004 26.3008H29.5004C30.1004 26.3008 30.6004 26.8008 30.6004 27.4008V30.0008C30.6004 30.6008 30.1004 31.1008 29.5004 31.1008H27.0004C26.4004 31.1008 25.9004 30.6008 25.9004 30.0008V27.4008C25.9004 26.7008 26.4004 26.3008 27.0004 26.3008Z" fill="#575757"></path>
  <path d="M37.4008 26.3008H39.9008C40.5008 26.3008 41.0008 26.8008 41.0008 27.4008V30.0008C41.0008 30.6008 40.5008 31.1008 39.9008 31.1008H37.4008C36.8008 31.1008 36.3008 30.6008 36.3008 30.0008V27.4008C36.3008 26.7008 36.8008 26.3008 37.4008 26.3008Z" fill="#575757"></path>
  <path d="M37.4008 15.8008H39.9008C40.5008 15.8008 41.0008 16.3008 41.0008 16.9008V19.5008C41.0008 20.1008 40.5008 20.6008 39.9008 20.6008H37.4008C36.8008 20.6008 36.3008 20.1008 36.3008 19.5008V16.9008C36.3008 16.2008 36.8008 15.8008 37.4008 15.8008Z" fill="#575757"></path>
  <path d="M37.4008 5.30078H39.9008C40.5008 5.30078 41.0008 5.80078 41.0008 6.40078V9.00078C41.0008 9.60078 40.5008 10.1008 39.9008 10.1008H37.4008C36.8008 10.1008 36.3008 9.60078 36.3008 9.00078V6.30078C36.3008 5.70078 36.8008 5.30078 37.4008 5.30078Z" fill="#575757"></path>
  <path d="M32.1996 10.5H34.6996C35.2996 10.5 35.7996 11 35.7996 11.6V14.2C35.7996 14.8 35.2996 15.3 34.6996 15.3H32.1996C31.5996 15.3 31.0996 14.8 31.0996 14.2V11.6C31.0996 11 31.5996 10.5 32.1996 10.5Z" fill="#575757"></path>
  <path d="M37.4008 0H39.9008C40.5008 0 41.0008 0.5 41.0008 1.1V3.7C41.0008 4.3 40.5008 4.8 39.9008 4.8H37.4008C36.8008 4.8 36.3008 4.3 36.3008 3.7V1.1C36.3008 0.5 36.8008 0 37.4008 0Z" fill="#575757"></path>
  <path d="M27.0004 0H29.5004C30.1004 0 30.6004 0.5 30.6004 1.1V3.7C30.6004 4.3 30.1004 4.8 29.5004 4.8H27.0004C26.4004 4.8 25.9004 4.3 25.9004 3.7V1.1C25.9004 0.5 26.4004 0 27.0004 0Z" fill="#575757"></path>
  <path d="M11.4004 0H14.0004C14.6004 0 15.1004 0.5 15.1004 1.1V3.7C15.1004 4.3 14.6004 4.8 14.0004 4.8H11.5004C10.9004 4.8 10.4004 4.3 10.4004 3.7V1.1C10.4004 0.5 10.9004 0 11.4004 0Z" fill="#575757"></path>
  <path d="M16.6 5.30078H19.1C19.7 5.30078 20.2 5.80078 20.2 6.40078V9.00078C20.2 9.60078 19.7 10.1008 19.1 10.1008H16.6C16 10.1008 15.5 9.60078 15.5 9.00078V6.30078C15.6 5.70078 16 5.30078 16.6 5.30078Z" fill="#575757"></path>
  <path d="M51.5 6.09844H53C54.1 6.09844 55 6.49844 55.8 7.29844C56.6 8.09844 57 8.99844 57 10.0984C57 11.1984 56.6 12.0984 55.8 12.8984C55 13.6984 54.1 13.9984 53 13.9984H51.5V6.09844ZM50.5 15.9984H53C54.6 15.9984 56 15.3984 57.2 14.2984C58.4 13.0984 58.9 11.6984 58.9 10.0984C58.9 8.49844 58.3 7.09844 57.2 5.89844C56 4.69844 54.6 4.19844 53 4.19844H50.5C50.2 4.19844 50 4.29844 49.8 4.49844C49.6 4.69844 49.5 4.89844 49.5 5.19844V14.9984C49.5 15.2984 49.6 15.4984 49.8 15.6984C50 15.8984 50.3 15.9984 50.5 15.9984ZM66.7 11.4984L68.3 7.59844L69.9 11.4984H66.7ZM64.2 15.9984C64.6 15.9984 64.9 15.7984 65.1 15.3984L65.9 13.4984H70.7L71.5 15.3984C71.7 15.7984 72 15.9984 72.4 15.9984C72.5 15.9984 72.7 15.9984 72.8 15.8984C73 15.7984 73.2 15.5984 73.3 15.3984C73.4 15.1984 73.4 14.8984 73.3 14.6984L72.2 12.1984L69.1 4.79844V4.69844C69 4.69844 69 4.59844 68.9 4.59844C68.9 4.59844 68.9 4.59844 68.8 4.59844C68.8 4.59844 68.8 4.59844 68.7 4.59844H68.6C68.6 4.59844 68.6 4.59844 68.5 4.59844C68.5 4.59844 68.5 4.59844 68.4 4.59844V4.69844L65.3 12.0984L64.2 14.5984C64.1 14.7984 64.1 15.0984 64.2 15.2984C64.3 15.4984 64.5 15.6984 64.7 15.7984C64 15.9984 64.1 15.9984 64.2 15.9984ZM79.6 9.09844V6.09844H82.1C82.6 6.09844 83 6.19844 83.3 6.49844C83.6 6.79844 83.8 7.19844 83.8 7.59844C83.8 7.99844 83.6 8.39844 83.3 8.69844C83 8.99844 82.6 9.09844 82.1 9.19844H79.6V9.09844ZM78.7 4.09844C78.4 4.09844 78.2 4.19844 78 4.39844C77.8 4.59844 77.7 4.79844 77.7 5.09844V15.0984C77.7 15.3984 77.8 15.5984 78 15.7984C78.2 15.9984 78.4 16.0984 78.7 16.0984C79 16.0984 79.2 15.9984 79.4 15.7984C79.6 15.5984 79.7 15.3984 79.7 15.0984V11.0984H82.1C82.1 11.0984 82.1 11.0984 82.2 11.0984C83.2 11.0984 84 10.6984 84.7 9.99844C85.4 9.29844 85.8 8.49844 85.8 7.59844C85.8 6.59844 85.4 5.79844 84.7 5.09844C84 4.39844 83.1 4.09844 82.1 4.09844H78.7ZM92.4 9.09844V6.09844H94.9C95.4 6.09844 95.8 6.19844 96.1 6.49844C96.4 6.79844 96.6 7.19844 96.6 7.59844C96.6 7.99844 96.4 8.39844 96.1 8.69844C95.8 8.99844 95.4 9.09844 94.9 9.19844H92.4V9.09844ZM91.4 4.09844C91.1 4.09844 90.9 4.19844 90.7 4.39844C90.5 4.59844 90.4 4.79844 90.4 5.09844V15.0984C90.4 15.3984 90.5 15.5984 90.7 15.7984C90.9 15.9984 91.1 16.0984 91.4 16.0984C91.7 16.0984 91.9 15.9984 92.1 15.7984C92.3 15.5984 92.4 15.3984 92.4 15.0984V11.0984H94.8C94.8 11.0984 94.8 11.0984 94.9 11.0984C95.9 11.0984 96.7 10.6984 97.4 9.99844C98.1 9.29844 98.5 8.49844 98.5 7.59844C98.5 6.59844 98.1 5.79844 97.4 5.09844C96.7 4.39844 95.8 4.09844 94.8 4.09844H91.4ZM111.9 15.6984C112.1 15.4984 112.2 15.2984 112.2 14.9984V5.09844C112.2 4.79844 112.1 4.59844 111.9 4.39844C111.7 4.19844 111.5 4.09844 111.2 4.09844C110.9 4.09844 110.7 4.19844 110.5 4.39844C110.3 4.59844 110.2 4.79844 110.2 5.09844V9.09844H105.1V5.09844C105.1 4.79844 105 4.59844 104.8 4.39844C104.6 4.19844 104.4 4.09844 104.1 4.09844C103.8 4.09844 103.6 4.19844 103.4 4.39844C103.2 4.59844 103.1 4.79844 103.1 5.09844V14.9984C103.1 15.2984 103.2 15.4984 103.4 15.6984C103.6 15.8984 103.8 15.9984 104.1 15.9984C104.4 15.9984 104.6 15.8984 104.8 15.6984C105 15.4984 105.1 15.2984 105.1 14.9984V10.9984H110.2V14.9984C110.2 15.2984 110.3 15.4984 110.5 15.6984C110.7 15.8984 110.9 15.9984 111.2 15.9984C111.5 15.9984 111.7 15.8984 111.9 15.6984ZM124.2 4.39844C124 4.59844 123.9 4.79844 123.9 5.09844V11.7984C123.9 12.3984 123.7 12.9984 123.2 13.3984C122.7 13.7984 122.2 14.0984 121.6 14.0984C121 14.0984 120.4 13.8984 120 13.3984C119.6 12.8984 119.3 12.3984 119.3 11.7984V5.09844C119.3 4.79844 119.2 4.59844 119 4.39844C118.8 4.19844 118.6 4.09844 118.3 4.09844C118 4.09844 117.8 4.19844 117.6 4.39844C117.4 4.59844 117.3 4.79844 117.3 5.09844V11.7984C117.3 12.9984 117.7 13.9984 118.5 14.7984C119.3 15.5984 120.3 15.9984 121.5 15.9984C122.7 15.9984 123.7 15.5984 124.5 14.7984C125.3 13.9984 125.7 12.9984 125.7 11.7984V5.09844C125.7 4.79844 125.6 4.59844 125.4 4.39844C125.2 4.19844 125 4.09844 124.7 4.09844C124.4 4.09844 124.4 4.19844 124.2 4.39844ZM133 11.0984H135.5H135.6H135.7C136.2 11.0984 136.6 11.1984 136.9 11.4984C137.2 11.7984 137.4 12.0984 137.4 12.4984C137.4 12.8984 137.2 13.2984 136.9 13.5984C136.6 13.8984 136.1 13.9984 135.7 13.9984H133V11.0984ZM133 6.09844H135.5C136 6.09844 136.4 6.19844 136.7 6.49844C137 6.79844 137.2 7.09844 137.2 7.49844C137.2 7.89844 137 8.29844 136.7 8.59844C136.4 8.89844 135.9 9.09844 135.5 9.09844H133V6.09844ZM135.7 15.9984C136.7 15.9984 137.6 15.6984 138.3 14.9984C139 14.2984 139.4 13.4984 139.4 12.4984C139.4 11.4984 139 10.5984 138.2 9.89844C138.9 9.19844 139.2 8.39844 139.2 7.49844C139.2 6.49844 138.8 5.69844 138.1 5.09844C137.4 4.39844 136.5 4.09844 135.5 4.09844H132C131.7 4.09844 131.5 4.19844 131.3 4.39844C131.1 4.59844 131 4.79844 131 5.09844V14.9984C131 15.2984 131.1 15.4984 131.3 15.6984C131.5 15.8984 131.7 15.9984 132 15.9984H135.7ZM153.3 14.3984C153.4 14.2984 153.5 14.1984 153.5 14.0984C153.5 13.9984 153.5 13.7984 153.4 13.6984C153.3 13.5984 153.2 13.4984 153.1 13.4984C153 13.4984 152.8 13.4984 152.7 13.5984C151.8 14.4984 150.6 14.8984 149.4 14.8984C148 14.8984 146.9 14.3984 145.9 13.3984C144.9 12.3984 144.4 11.2984 144.4 9.89844C144.4 8.49844 144.9 7.39844 145.9 6.39844C146.9 5.39844 148 4.89844 149.4 4.89844C150.5 4.89844 151.5 5.19844 152.4 5.89844C152.5 5.99844 152.6 5.99844 152.8 5.99844C152.9 5.99844 153 5.89844 153.1 5.79844C153.2 5.69844 153.2 5.59844 153.2 5.39844C153.2 5.19844 153.1 5.19844 153 5.09844C151.9 4.29844 150.7 3.89844 149.4 3.89844C147.8 3.89844 146.4 4.49844 145.2 5.69844C144 6.89844 143.4 8.29844 143.4 9.89844C143.4 11.4984 144 12.8984 145.2 14.0984C146.4 15.2984 147.8 15.8984 149.4 15.8984C150.9 15.9984 152.2 15.4984 153.3 14.3984ZM166.5 15.8984C166.6 15.7984 166.6 15.6984 166.6 15.5984V4.59844C166.6 4.49844 166.6 4.29844 166.5 4.29844C166.4 4.19844 166.3 4.19844 166.2 4.19844C166.1 4.19844 165.9 4.19844 165.8 4.29844C165.7 4.39844 165.7 4.49844 165.7 4.59844V9.49844H158.9V4.59844C158.9 4.49844 158.9 4.29844 158.8 4.29844C158.7 4.19844 158.6 4.19844 158.4 4.19844C158.3 4.19844 158.1 4.19844 158.1 4.29844C158 4.39844 158 4.49844 158 4.59844V15.4984C158 15.5984 158 15.7984 158.1 15.7984C158.2 15.8984 158.3 15.8984 158.4 15.8984C158.5 15.8984 158.7 15.8984 158.8 15.7984C158.9 15.6984 158.9 15.5984 158.9 15.4984V10.5984H165.7V15.4984C165.7 15.5984 165.7 15.7984 165.8 15.7984C165.9 15.8984 166 15.8984 166.2 15.8984C166.3 15.9984 166.4 15.9984 166.5 15.8984ZM173.5 12.1984L176.1 5.89844L178.7 12.1984H173.5ZM171.6 15.9984C171.8 15.9984 172 15.8984 172.1 15.6984L173.1 13.1984H179.2L180.2 15.6984C180.3 15.8984 180.4 15.9984 180.7 15.9984C180.8 15.9984 180.8 15.9984 180.9 15.9984C181 15.9984 181.1 15.8984 181.2 15.6984C181.3 15.5984 181.3 15.3984 181.2 15.2984L180 12.4984L176.6 4.39844V4.29844C176.5 4.29844 176.5 4.19844 176.4 4.19844C176.4 4.19844 176.4 4.19844 176.3 4.19844C176.2 4.19844 176.2 4.19844 176.1 4.29844V4.39844L172.7 12.4984L171.5 15.2984C171.4 15.3984 171.4 15.5984 171.5 15.6984C171.5 15.7984 171.6 15.8984 171.8 15.9984C171.5 15.9984 171.6 15.9984 171.6 15.9984ZM188 15.4984C188 15.5984 188 15.7984 188.1 15.8984C188.2 15.9984 188.3 15.9984 188.4 15.9984C188.5 15.9984 188.7 15.9984 188.8 15.8984C188.9 15.7984 188.9 15.6984 188.9 15.4984V5.09844H192.2C192.3 5.09844 192.5 5.09844 192.5 4.99844C192.6 4.89844 192.6 4.79844 192.6 4.69844C192.6 4.59844 192.6 4.39844 192.5 4.39844C192.4 4.29844 192.3 4.29844 192.2 4.29844H184.7C184.6 4.29844 184.4 4.29844 184.3 4.39844C184.2 4.49844 184.2 4.59844 184.2 4.69844C184.2 4.79844 184.2 4.99844 184.3 4.99844C184.4 5.09844 184.5 5.09844 184.7 5.09844H188V15.4984Z" fill="#575757"></path>
  <path d="M51.5 6.09844H53C54.1 6.09844 55 6.49844 55.8 7.29844C56.6 8.09844 57 8.99844 57 10.0984C57 11.1984 56.6 12.0984 55.8 12.8984C55 13.6984 54.1 13.9984 53 13.9984H51.5V6.09844ZM50.5 15.9984H53C54.6 15.9984 56 15.3984 57.2 14.2984C58.4 13.0984 58.9 11.6984 58.9 10.0984C58.9 8.49844 58.3 7.09844 57.2 5.89844C56 4.69844 54.6 4.19844 53 4.19844H50.5C50.2 4.19844 50 4.29844 49.8 4.49844C49.6 4.69844 49.5 4.89844 49.5 5.19844V14.9984C49.5 15.2984 49.6 15.4984 49.8 15.6984C50 15.8984 50.3 15.9984 50.5 15.9984ZM66.7 11.4984L68.3 7.59844L69.9 11.4984H66.7ZM64.2 15.9984C64.6 15.9984 64.9 15.7984 65.1 15.3984L65.9 13.4984H70.7L71.5 15.3984C71.7 15.7984 72 15.9984 72.4 15.9984C72.5 15.9984 72.7 15.9984 72.8 15.8984C73 15.7984 73.2 15.5984 73.3 15.3984C73.4 15.1984 73.4 14.8984 73.3 14.6984L72.2 12.1984L69.1 4.79844V4.69844C69 4.69844 69 4.59844 68.9 4.59844C68.9 4.59844 68.9 4.59844 68.8 4.59844C68.8 4.59844 68.8 4.59844 68.7 4.59844H68.6C68.6 4.59844 68.6 4.59844 68.5 4.59844C68.5 4.59844 68.5 4.59844 68.4 4.59844V4.69844L65.3 12.0984L64.2 14.5984C64.1 14.7984 64.1 15.0984 64.2 15.2984C64.3 15.4984 64.5 15.6984 64.7 15.7984C64 15.9984 64.1 15.9984 64.2 15.9984ZM79.6 9.09844V6.09844H82.1C82.6 6.09844 83 6.19844 83.3 6.49844C83.6 6.79844 83.8 7.19844 83.8 7.59844C83.8 7.99844 83.6 8.39844 83.3 8.69844C83 8.99844 82.6 9.09844 82.1 9.19844H79.6V9.09844ZM78.7 4.09844C78.4 4.09844 78.2 4.19844 78 4.39844C77.8 4.59844 77.7 4.79844 77.7 5.09844V15.0984C77.7 15.3984 77.8 15.5984 78 15.7984C78.2 15.9984 78.4 16.0984 78.7 16.0984C79 16.0984 79.2 15.9984 79.4 15.7984C79.6 15.5984 79.7 15.3984 79.7 15.0984V11.0984H82.1C82.1 11.0984 82.1 11.0984 82.2 11.0984C83.2 11.0984 84 10.6984 84.7 9.99844C85.4 9.29844 85.8 8.49844 85.8 7.59844C85.8 6.59844 85.4 5.79844 84.7 5.09844C84 4.39844 83.1 4.09844 82.1 4.09844H78.7ZM92.4 9.09844V6.09844H94.9C95.4 6.09844 95.8 6.19844 96.1 6.49844C96.4 6.79844 96.6 7.19844 96.6 7.59844C96.6 7.99844 96.4 8.39844 96.1 8.69844C95.8 8.99844 95.4 9.09844 94.9 9.19844H92.4V9.09844ZM91.4 4.09844C91.1 4.09844 90.9 4.19844 90.7 4.39844C90.5 4.59844 90.4 4.79844 90.4 5.09844V15.0984C90.4 15.3984 90.5 15.5984 90.7 15.7984C90.9 15.9984 91.1 16.0984 91.4 16.0984C91.7 16.0984 91.9 15.9984 92.1 15.7984C92.3 15.5984 92.4 15.3984 92.4 15.0984V11.0984H94.8C94.8 11.0984 94.8 11.0984 94.9 11.0984C95.9 11.0984 96.7 10.6984 97.4 9.99844C98.1 9.29844 98.5 8.49844 98.5 7.59844C98.5 6.59844 98.1 5.79844 97.4 5.09844C96.7 4.39844 95.8 4.09844 94.8 4.09844H91.4ZM111.9 15.6984C112.1 15.4984 112.2 15.2984 112.2 14.9984V5.09844C112.2 4.79844 112.1 4.59844 111.9 4.39844C111.7 4.19844 111.5 4.09844 111.2 4.09844C110.9 4.09844 110.7 4.19844 110.5 4.39844C110.3 4.59844 110.2 4.79844 110.2 5.09844V9.09844H105.1V5.09844C105.1 4.79844 105 4.59844 104.8 4.39844C104.6 4.19844 104.4 4.09844 104.1 4.09844C103.8 4.09844 103.6 4.19844 103.4 4.39844C103.2 4.59844 103.1 4.79844 103.1 5.09844V14.9984C103.1 15.2984 103.2 15.4984 103.4 15.6984C103.6 15.8984 103.8 15.9984 104.1 15.9984C104.4 15.9984 104.6 15.8984 104.8 15.6984C105 15.4984 105.1 15.2984 105.1 14.9984V10.9984H110.2V14.9984C110.2 15.2984 110.3 15.4984 110.5 15.6984C110.7 15.8984 110.9 15.9984 111.2 15.9984C111.5 15.9984 111.7 15.8984 111.9 15.6984ZM124.2 4.39844C124 4.59844 123.9 4.79844 123.9 5.09844V11.7984C123.9 12.3984 123.7 12.9984 123.2 13.3984C122.7 13.7984 122.2 14.0984 121.6 14.0984C121 14.0984 120.4 13.8984 120 13.3984C119.6 12.8984 119.3 12.3984 119.3 11.7984V5.09844C119.3 4.79844 119.2 4.59844 119 4.39844C118.8 4.19844 118.6 4.09844 118.3 4.09844C118 4.09844 117.8 4.19844 117.6 4.39844C117.4 4.59844 117.3 4.79844 117.3 5.09844V11.7984C117.3 12.9984 117.7 13.9984 118.5 14.7984C119.3 15.5984 120.3 15.9984 121.5 15.9984C122.7 15.9984 123.7 15.5984 124.5 14.7984C125.3 13.9984 125.7 12.9984 125.7 11.7984V5.09844C125.7 4.79844 125.6 4.59844 125.4 4.39844C125.2 4.19844 125 4.09844 124.7 4.09844C124.4 4.09844 124.4 4.19844 124.2 4.39844ZM133 11.0984H135.5H135.6H135.7C136.2 11.0984 136.6 11.1984 136.9 11.4984C137.2 11.7984 137.4 12.0984 137.4 12.4984C137.4 12.8984 137.2 13.2984 136.9 13.5984C136.6 13.8984 136.1 13.9984 135.7 13.9984H133V11.0984ZM133 6.09844H135.5C136 6.09844 136.4 6.19844 136.7 6.49844C137 6.79844 137.2 7.09844 137.2 7.49844C137.2 7.89844 137 8.29844 136.7 8.59844C136.4 8.89844 135.9 9.09844 135.5 9.09844H133V6.09844ZM135.7 15.9984C136.7 15.9984 137.6 15.6984 138.3 14.9984C139 14.2984 139.4 13.4984 139.4 12.4984C139.4 11.4984 139 10.5984 138.2 9.89844C138.9 9.19844 139.2 8.39844 139.2 7.49844C139.2 6.49844 138.8 5.69844 138.1 5.09844C137.4 4.39844 136.5 4.09844 135.5 4.09844H132C131.7 4.09844 131.5 4.19844 131.3 4.39844C131.1 4.59844 131 4.79844 131 5.09844V14.9984C131 15.2984 131.1 15.4984 131.3 15.6984C131.5 15.8984 131.7 15.9984 132 15.9984H135.7ZM153.3 14.3984C153.4 14.2984 153.5 14.1984 153.5 14.0984C153.5 13.9984 153.5 13.7984 153.4 13.6984C153.3 13.5984 153.2 13.4984 153.1 13.4984C153 13.4984 152.8 13.4984 152.7 13.5984C151.8 14.4984 150.6 14.8984 149.4 14.8984C148 14.8984 146.9 14.3984 145.9 13.3984C144.9 12.3984 144.4 11.2984 144.4 9.89844C144.4 8.49844 144.9 7.39844 145.9 6.39844C146.9 5.39844 148 4.89844 149.4 4.89844C150.5 4.89844 151.5 5.19844 152.4 5.89844C152.5 5.99844 152.6 5.99844 152.8 5.99844C152.9 5.99844 153 5.89844 153.1 5.79844C153.2 5.69844 153.2 5.59844 153.2 5.39844C153.2 5.19844 153.1 5.19844 153 5.09844C151.9 4.29844 150.7 3.89844 149.4 3.89844C147.8 3.89844 146.4 4.49844 145.2 5.69844C144 6.89844 143.4 8.29844 143.4 9.89844C143.4 11.4984 144 12.8984 145.2 14.0984C146.4 15.2984 147.8 15.8984 149.4 15.8984C150.9 15.9984 152.2 15.4984 153.3 14.3984ZM166.5 15.8984C166.6 15.7984 166.6 15.6984 166.6 15.5984V4.59844C166.6 4.49844 166.6 4.29844 166.5 4.29844C166.4 4.19844 166.3 4.19844 166.2 4.19844C166.1 4.19844 165.9 4.19844 165.8 4.29844C165.7 4.39844 165.7 4.49844 165.7 4.59844V9.49844H158.9V4.59844C158.9 4.49844 158.9 4.29844 158.8 4.29844C158.7 4.19844 158.6 4.19844 158.4 4.19844C158.3 4.19844 158.1 4.19844 158.1 4.29844C158 4.39844 158 4.49844 158 4.59844V15.4984C158 15.5984 158 15.7984 158.1 15.7984C158.2 15.8984 158.3 15.8984 158.4 15.8984C158.5 15.8984 158.7 15.8984 158.8 15.7984C158.9 15.6984 158.9 15.5984 158.9 15.4984V10.5984H165.7V15.4984C165.7 15.5984 165.7 15.7984 165.8 15.7984C165.9 15.8984 166 15.8984 166.2 15.8984C166.3 15.9984 166.4 15.9984 166.5 15.8984ZM173.5 12.1984L176.1 5.89844L178.7 12.1984H173.5ZM171.6 15.9984C171.8 15.9984 172 15.8984 172.1 15.6984L173.1 13.1984H179.2L180.2 15.6984C180.3 15.8984 180.4 15.9984 180.7 15.9984C180.8 15.9984 180.8 15.9984 180.9 15.9984C181 15.9984 181.1 15.8984 181.2 15.6984C181.3 15.5984 181.3 15.3984 181.2 15.2984L180 12.4984L176.6 4.39844V4.29844C176.5 4.29844 176.5 4.19844 176.4 4.19844C176.4 4.19844 176.4 4.19844 176.3 4.19844C176.2 4.19844 176.2 4.19844 176.1 4.29844V4.39844L172.7 12.4984L171.5 15.2984C171.4 15.3984 171.4 15.5984 171.5 15.6984C171.5 15.7984 171.6 15.8984 171.8 15.9984C171.5 15.9984 171.6 15.9984 171.6 15.9984ZM188 15.4984C188 15.5984 188 15.7984 188.1 15.8984C188.2 15.9984 188.3 15.9984 188.4 15.9984C188.5 15.9984 188.7 15.9984 188.8 15.8984C188.9 15.7984 188.9 15.6984 188.9 15.4984V5.09844H192.2C192.3 5.09844 192.5 5.09844 192.5 4.99844C192.6 4.89844 192.6 4.79844 192.6 4.69844C192.6 4.59844 192.6 4.39844 192.5 4.39844C192.4 4.29844 192.3 4.29844 192.2 4.29844H184.7C184.6 4.29844 184.4 4.29844 184.3 4.39844C184.2 4.49844 184.2 4.59844 184.2 4.69844C184.2 4.79844 184.2 4.99844 184.3 4.99844C184.4 5.09844 184.5 5.09844 184.7 5.09844H188V15.4984Z" fill="#575757"></path>
</svg>
