<svg width="93" height="34" viewBox="0 0 93 34" fill="none" xmlns="http://www.w3.org/2000/svg">
<g clip-path="url(#clip0_5932_34264)">
<path d="M59.0574 27.4751C59.3428 27.6084 59.6086 27.748 59.8857 27.8594C61.6246 28.5582 63.425 28.9063 65.3036 28.7719C65.985 28.7232 66.6464 28.5741 67.2645 28.2713C68.0425 27.8904 68.6122 27.3067 68.8214 26.4561C68.9943 25.7524 69.0868 25.0291 69.2257 24.2537C68.7715 24.3424 68.371 24.4092 67.9765 24.5002C67.2407 24.6697 66.5079 24.8452 65.7449 24.8362C64.2548 24.8184 62.8523 24.487 61.5978 23.6553C60.1647 22.705 59.2443 21.3724 58.8494 19.7124C58.2578 17.2267 58.5447 14.8362 59.8404 12.6115C60.7321 11.0806 62.0769 10.0677 63.7055 9.41117C65.0227 8.88037 66.3977 8.60289 67.8054 8.46773C69.781 8.27784 71.7525 8.36391 73.719 8.58892C74.6795 8.69878 75.6346 8.85394 76.6211 8.99287C76.5848 9.10386 76.5671 9.18239 76.5346 9.25412C76.125 10.1575 75.7139 11.0602 75.3013 11.9621C75.2227 12.1335 75.1246 12.2966 75.0566 12.4718C75.006 12.6028 74.9196 12.6454 74.7969 12.6345C74.5972 12.6168 74.3978 12.5896 74.1985 12.5669C74.1298 12.5594 74.0611 12.5484 73.9924 12.548C73.8519 12.5473 73.7749 12.6005 73.7783 12.7617C73.7964 13.6485 73.7945 14.5357 73.8232 15.4222C73.9059 17.9746 74.103 20.5241 74.0267 23.0803C73.9841 24.516 73.8587 25.9431 73.4612 27.3316C72.7575 29.7897 71.1922 31.458 68.8089 32.3603C67.3468 32.9137 65.8197 33.064 64.2684 33.0549C62.5197 33.0447 60.8352 32.7061 59.202 32.093C59.108 32.0575 59.0442 32.0266 59.0446 31.9005C59.0498 30.4598 59.048 29.0188 59.0483 27.5782C59.048 27.5483 59.0532 27.5193 59.0574 27.4751ZM69.0849 16.4513C69.0868 16.4513 69.0883 16.4513 69.0902 16.4509C69.0902 16.369 69.0902 16.2875 69.0902 16.2055C69.089 15.0295 69.0872 13.8535 69.0872 12.6775C69.0872 12.5801 69.0955 12.5001 68.9626 12.4699C67.8168 12.2109 66.7219 12.3125 65.7155 12.952C63.9932 14.0464 63.1894 16.3426 63.8199 18.3416C64.0513 19.0755 64.3915 19.746 65.0737 20.165C66.344 20.9454 67.6737 20.9469 69.0366 20.4338C69.1645 20.3855 69.2012 20.3179 69.1966 20.1843C69.1559 18.9407 69.1215 17.696 69.0849 16.4513Z" fill="#575757"/>
<path d="M16.37 24.1811C15.9457 24.2472 15.5244 24.3136 15.1027 24.3774C13.292 24.6523 11.4758 24.8705 9.64098 24.8694C8.31662 24.8682 7.01 24.7327 5.72565 24.3737C3.26304 23.6858 1.68838 22.1017 0.963901 19.6757C0.235274 17.2335 0.36552 14.8298 1.44261 12.505C2.249 10.7653 3.63528 9.66143 5.40249 8.99963C7.30749 8.2861 9.2593 8.17171 11.2485 8.5515C11.2791 8.55717 11.3097 8.5617 11.3591 8.57C11.3591 8.50016 11.3591 8.43862 11.3591 8.37709C11.3587 5.98658 11.3584 3.59608 11.3576 1.20558C11.3576 0.963208 11.3753 0.941689 11.609 0.941689C13.1376 0.941312 14.6666 0.941312 16.1952 0.941689C16.2504 0.941689 16.3051 0.94773 16.3693 0.951505C16.37 8.69572 16.37 16.4309 16.37 24.1811ZM11.3463 20.6905C11.3527 20.6501 11.3584 20.6316 11.3584 20.6131C11.3591 17.9901 11.3587 15.367 11.3614 12.7436C11.3614 12.6454 11.3361 12.5937 11.2334 12.5767C10.7634 12.4982 10.2971 12.3694 9.82446 12.3407C8.19166 12.2418 6.7597 12.9614 6.039 14.5153C5.49876 15.6796 5.43382 16.8956 5.77548 18.1237C6.11299 19.3359 6.87824 20.1797 8.06934 20.6124C9.14869 21.0046 10.2428 20.9314 11.3463 20.6905Z" fill="#575757"/>
<path d="M84.3623 25.1437C83.0776 25.1093 81.8246 24.9478 80.6516 24.3924C78.6178 23.4293 77.2667 21.8468 76.5875 19.7228C75.7328 17.0506 76.022 14.4521 77.3203 11.9808C78.0991 10.4987 79.337 9.5035 80.9094 8.94665C82.9179 8.23539 84.9713 8.07079 87.0507 8.5846C88.8092 9.01913 90.2615 9.93804 91.3031 11.4451C92.017 12.4784 92.4017 13.6454 92.5939 14.8746C92.9084 16.8868 92.6305 18.8235 91.7656 20.667C91.1 22.0853 90.1641 23.2821 88.7884 24.0828C87.9307 24.5823 86.9922 24.8639 86.0136 24.9976C85.4669 25.072 84.9131 25.0965 84.3623 25.1437ZM87.5894 16.9649C87.592 15.5511 87.364 14.582 86.9125 13.7994C86.5905 13.241 86.162 12.7906 85.5564 12.5388C84.4593 12.0831 82.8443 12.2836 81.9922 13.7726C81.555 14.5367 81.3527 15.3657 81.296 16.2344C81.222 17.3697 81.3847 18.4641 81.8785 19.5004C82.4917 20.7878 83.6752 21.3001 84.946 21.1094C85.781 20.9841 86.3587 20.4578 86.7868 19.7613C87.3731 18.8073 87.5792 17.7502 87.5894 16.9649Z" fill="#575757"/>
<path d="M56.9262 24.608C55.3274 24.608 53.7078 24.608 52.0633 24.608C52.0633 24.5314 52.0629 24.4642 52.0633 24.3973C52.0807 21.5727 52.0999 18.7484 52.1135 15.9237C52.1169 15.2446 52.1064 14.5643 51.9489 13.8976C51.7005 12.8439 51.1829 12.4146 50.1021 12.3576C49.1371 12.3067 48.1971 12.4614 47.268 12.7008C47.2211 12.7129 47.1789 12.7831 47.1562 12.8359C47.1381 12.8782 47.1524 12.9349 47.1524 12.9854C47.1524 16.7728 47.1524 20.5601 47.1524 24.3475C47.1524 24.4287 47.1524 24.5098 47.1524 24.6046C45.514 24.6046 43.8891 24.6046 42.2514 24.6046C42.248 24.537 42.2427 24.4759 42.2427 24.4147C42.2423 19.4887 42.2431 14.5624 42.2393 9.6364C42.2393 9.49219 42.2759 9.43858 42.4239 9.40082C43.9299 9.01763 45.4498 8.70806 46.9924 8.52156C48.7652 8.30713 50.5407 8.22483 52.3113 8.54384C53.3545 8.73185 54.3436 9.06822 55.2009 9.71681C56.1844 10.4605 56.7401 11.4644 56.9206 12.6702C57.1335 14.0946 57.0863 15.5311 57.0572 16.965C57.0142 19.0908 56.9685 21.2163 56.9274 23.3421C56.9194 23.7555 56.9262 24.1701 56.9262 24.608Z" fill="#575757"/>
<path d="M39.7374 24.3844C38.8869 24.4652 38.0676 24.5502 37.2473 24.6196C35.8878 24.7344 34.5287 24.8597 33.1673 24.942C31.9898 25.0134 30.8153 24.9469 29.6635 24.6642C28.7027 24.4282 27.8367 24.022 27.219 23.2096C26.7826 22.6357 26.5519 21.9743 26.4451 21.2687C26.2846 20.2109 26.373 19.1761 26.7535 18.1707C27.1552 17.1095 27.9386 16.4141 28.9198 15.912C29.8923 15.4144 30.938 15.1407 32.0072 14.9689C32.9623 14.8153 33.9254 14.7114 34.8858 14.5944C35.0033 14.5801 35.0671 14.5483 35.0942 14.4321C35.2479 13.771 35.1796 13.1322 34.8885 12.5218C34.8534 12.4482 34.7462 12.3828 34.6608 12.3628C33.4301 12.0759 32.2024 12.1409 30.9773 12.407C29.8489 12.652 28.7752 13.0575 27.7174 13.5109C27.6607 13.5354 27.6026 13.557 27.5244 13.5883C27.5203 13.5128 27.5142 13.4539 27.5139 13.395C27.5131 12.25 27.5161 11.1049 27.5101 9.95988C27.5093 9.8183 27.5531 9.75412 27.6845 9.69863C29.4064 8.97378 31.1997 8.53773 33.056 8.35086C34.2263 8.23307 35.3921 8.2376 36.5447 8.50753C37.1993 8.66081 37.8124 8.91035 38.3515 9.32374C39.0911 9.89079 39.4603 10.6696 39.6344 11.5606C39.7922 12.3677 39.8096 13.1843 39.8043 14.0028C39.782 17.3809 39.7593 20.7587 39.7367 24.1368C39.7371 24.2176 39.7374 24.2984 39.7374 24.3844ZM35.36 17.8634C34.9364 17.9046 34.523 17.9302 34.1142 17.9876C33.4811 18.076 32.8427 18.1507 32.2213 18.2953C31.4628 18.4716 30.9977 18.9782 30.8346 19.7473C30.7285 20.2456 30.8969 20.6496 31.3099 20.9248C31.5515 21.0856 31.826 21.2189 32.1042 21.2985C33.133 21.5926 34.1667 21.5284 35.1977 21.2857C35.3359 21.2532 35.3732 21.1951 35.3725 21.0577C35.3664 20.0519 35.3695 19.0458 35.3691 18.0401C35.3687 17.9846 35.3634 17.9295 35.36 17.8634Z" fill="#575757"/>
<path d="M14.5711 29.5009C14.986 29.2442 15.4251 28.9996 15.8347 28.7127C16.3795 28.3314 16.9314 27.9512 17.4267 27.5102C18.3211 26.714 18.8104 25.677 19.0595 24.5161C19.3517 23.1555 19.4231 21.7737 19.4287 20.3901C19.445 16.5718 19.4412 12.7531 19.445 8.93476C19.445 8.8536 19.445 8.77243 19.445 8.67578C21.0774 8.67578 22.6962 8.67578 24.3457 8.67578C24.3457 8.73581 24.3457 8.8015 24.3457 8.86757C24.3449 12.3087 24.3777 15.7499 24.3302 19.1903C24.3022 21.1882 24.2233 23.1894 23.9632 25.1756C23.8183 26.2825 23.5785 27.3641 23.0609 28.3687C22.6373 29.191 21.9774 29.7969 21.2662 30.353C20.8407 30.6852 20.3926 30.9888 19.9516 31.301C19.5054 31.617 19.0357 31.6812 18.5329 31.432C17.6551 30.9971 16.7751 30.5678 15.8947 30.1382C15.456 29.9245 15.0151 29.7146 14.5711 29.5009Z" fill="#575757"/>
<path d="M19.4454 6.05012C19.4454 4.34445 19.4454 2.65464 19.4454 0.953125C21.0748 0.953125 22.6951 0.953125 24.3309 0.953125C24.3309 2.64558 24.3309 4.3403 24.3309 6.05012C22.7095 6.05012 21.0846 6.05012 19.4454 6.05012Z" fill="#575757"/>
<path d="M69.0849 16.449C69.1211 17.6937 69.1559 18.938 69.197 20.1827C69.2016 20.316 69.1649 20.384 69.037 20.4323C67.6741 20.9453 66.3444 20.9438 65.0741 20.1635C64.3919 19.7444 64.0517 19.0739 63.8203 18.34C63.1898 16.341 63.9936 14.0449 65.7159 12.9504C66.7223 12.3109 67.8172 12.209 68.963 12.4683C69.0959 12.4985 69.0875 12.5786 69.0875 12.676C69.0875 13.852 69.0894 15.028 69.0906 16.204C69.0906 16.2859 69.0906 16.3674 69.0906 16.4494C69.0887 16.449 69.0868 16.449 69.0849 16.449Z" fill="white"/>
<path d="M11.3463 20.6904C10.2428 20.9316 9.14868 21.0045 8.06896 20.6126C6.87786 20.18 6.11223 19.3362 5.7751 18.124C5.43344 16.8959 5.49837 15.6798 6.03862 14.5155C6.75969 12.9616 8.19128 12.2421 9.82408 12.341C10.2967 12.3697 10.763 12.4984 11.233 12.5769C11.3357 12.5943 11.3614 12.6457 11.361 12.7438C11.3584 15.3669 11.3587 17.9899 11.358 20.6134C11.3584 20.6315 11.3531 20.6496 11.3463 20.6904Z" fill="white"/>
<path d="M87.5894 16.9659C87.5792 17.7511 87.3731 18.8082 86.7864 19.7626C86.3583 20.4591 85.7807 20.9854 84.9456 21.1107C83.6752 21.301 82.4916 20.7887 81.8782 19.5017C81.3847 18.4654 81.222 17.371 81.2956 16.2357C81.3523 15.3667 81.5546 14.5376 81.9918 13.7739C82.8439 12.2849 84.4589 12.0844 85.556 12.5401C86.1616 12.7919 86.5901 13.2423 86.9121 13.8007C87.364 14.5829 87.592 15.552 87.5894 16.9659Z" fill="white"/>
<path d="M35.36 17.8594C35.3634 17.9254 35.3687 17.9806 35.3687 18.0361C35.3691 19.0418 35.3664 20.0479 35.3721 21.0536C35.3729 21.1911 35.3355 21.2492 35.1973 21.2817C34.1663 21.524 33.1326 21.5882 32.1038 21.2945C31.8252 21.2148 31.5508 21.0816 31.3095 20.9207C30.8965 20.6455 30.7281 20.2416 30.8342 19.7432C30.9977 18.9742 31.4624 18.4676 32.2209 18.2913C32.8423 18.1471 33.4807 18.0719 34.1138 17.9836C34.523 17.9262 34.9364 17.9001 35.36 17.8594Z" fill="white"/>
</g>
<defs>
<clipPath id="clip0_5932_34264">
<rect width="92.2129" height="32.1136" fill="white" transform="translate(0.506714 0.941406)"/>
</clipPath>
</defs>
</svg>
