<?xml version="1.0" encoding="UTF-8"?>
<svg xmlns="http://www.w3.org/2000/svg" width="140" height="28" viewBox="0 0 140 28" fill="none">
  <path d="M9.01038 26.5079C8.96607 26.5079 8.92407 26.4864 8.89818 26.45L0.695173 14.8333C0.666789 14.7931 0.661994 14.7409 0.682515 14.6964L6.62375 1.77174C6.64428 1.72706 6.68705 1.69675 6.73595 1.69234L20.8798 0.384149C20.9285 0.37667 20.9761 0.401219 21.0047 0.441686L29.2077 12.0582C29.2361 12.0984 29.2409 12.1506 29.2203 12.1951L23.2793 25.1201C23.2588 25.1646 23.216 25.1949 23.1671 25.1995L9.02303 26.5075C9.01882 26.5079 9.0146 26.5079 9.01038 26.5079ZM0.965404 14.7394L9.07674 26.2264L23.0628 24.9329L28.9374 12.1521L20.8261 0.66512L6.84028 1.95855L0.965404 14.7394Z" fill="#373A36"></path>
  <path d="M8.96102 26.4755L6.69081 14.656L6.67969 1.73438L17.7403 4.98999L29.2097 12.1251L20.6914 19.6969L8.96102 26.4755ZM6.81739 1.91811L6.82698 14.6429L9.0596 26.26L20.6114 19.5861L28.9811 12.1443L17.6757 5.11159L6.81739 1.91811Z" fill="#373A36"></path>
  <path d="M17.9217 5.5362C18.1492 5.5362 18.3336 5.35146 18.3336 5.12357C18.3336 4.89568 18.1492 4.71094 17.9217 4.71094C17.6942 4.71094 17.5098 4.89568 17.5098 5.12357C17.5098 5.35146 17.6942 5.5362 17.9217 5.5362Z" fill="#373A36"></path>
  <path d="M17.9215 5.97326C17.4533 5.97326 17.0723 5.59199 17.0723 5.12325C17.0723 4.65471 17.4533 4.27344 17.9215 4.27344C18.3897 4.27344 18.7706 4.65471 18.7706 5.12325C18.7706 5.59199 18.3897 5.97326 17.9215 5.97326ZM17.9215 5.09871L17.896 5.12325C17.896 5.13687 17.9075 5.148 17.9215 5.148V5.09871Z" fill="#373A36"></path>
  <path d="M20.6717 20.0362C20.8992 20.0362 21.0836 19.8515 21.0836 19.6236C21.0836 19.3957 20.8992 19.2109 20.6717 19.2109C20.4442 19.2109 20.2598 19.3957 20.2598 19.6236C20.2598 19.8515 20.4442 20.0362 20.6717 20.0362Z" fill="#373A36"></path>
  <path d="M20.6713 20.4735C20.2032 20.4735 19.8223 20.0922 19.8223 19.6234C19.8223 19.1547 20.2032 18.7734 20.6713 18.7734C21.1395 18.7734 21.5206 19.1547 21.5206 19.6234C21.5206 20.0922 21.1395 20.4735 20.6713 20.4735ZM20.6713 19.5989L20.646 19.6234C20.646 19.6369 20.6573 19.648 20.6713 19.648V19.5989Z" fill="#373A36"></path>
  <path d="M9.11112 26.7862C9.33861 26.7862 9.52302 26.6015 9.52302 26.3736C9.52302 26.1457 9.33861 25.9609 9.11112 25.9609C8.88363 25.9609 8.69922 26.1457 8.69922 26.3736C8.69922 26.6015 8.88363 26.7862 9.11112 26.7862Z" fill="#373A36"></path>
  <path d="M9.11077 27.2235C8.64261 27.2235 8.26172 26.8422 8.26172 26.3734C8.26172 25.9047 8.64261 25.5234 9.11077 25.5234C9.57892 25.5234 9.96001 25.9047 9.96001 26.3734C9.96001 26.8422 9.57892 27.2235 9.11077 27.2235ZM9.11077 26.3489L9.08545 26.3734C9.08545 26.3869 9.09677 26.398 9.11077 26.398V26.3489Z" fill="#373A36"></path>
  <path d="M6.74784 15.1964C6.97533 15.1964 7.15974 15.0116 7.15974 14.7837C7.15974 14.5558 6.97533 14.3711 6.74784 14.3711C6.52035 14.3711 6.33594 14.5558 6.33594 14.7837C6.33594 15.0116 6.52035 15.1964 6.74784 15.1964Z" fill="#373A36"></path>
  <path d="M6.74768 15.6332C6.27952 15.6332 5.89844 15.252 5.89844 14.7836C5.89844 14.3149 6.27952 13.9336 6.74768 13.9336C7.21584 13.9336 7.59673 14.3149 7.59673 14.7836C7.59673 15.252 7.21584 15.6332 6.74768 15.6332ZM6.74768 14.7587L6.72217 14.7836C6.72217 14.797 6.73387 14.8082 6.74768 14.8082V14.7587Z" fill="#373A36"></path>
  <path d="M29.0955 12.5714C29.323 12.5714 29.5074 12.3866 29.5074 12.1587C29.5074 11.9308 29.323 11.7461 29.0955 11.7461C28.868 11.7461 28.6836 11.9308 28.6836 12.1587C28.6836 12.3866 28.868 12.5714 29.0955 12.5714Z" fill="#373A36"></path>
  <path d="M29.0953 13.0082C28.6272 13.0082 28.2461 12.627 28.2461 12.1586C28.2461 11.6899 28.6272 11.3086 29.0953 11.3086C29.5635 11.3086 29.9446 11.6899 29.9446 12.1586C29.9446 12.627 29.5635 13.0082 29.0953 13.0082ZM29.0953 12.1337L29.07 12.1586C29.07 12.172 29.0813 12.1832 29.0953 12.1832V12.1337Z" fill="#373A36"></path>
  <path d="M6.74784 2.23932C6.97533 2.23932 7.15974 2.05458 7.15974 1.82669C7.15974 1.5988 6.97533 1.41406 6.74784 1.41406C6.52035 1.41406 6.33594 1.5988 6.33594 1.82669C6.33594 2.05458 6.52035 2.23932 6.74784 2.23932Z" fill="#373A36"></path>
  <path d="M6.74768 2.67639C6.27952 2.67639 5.89844 2.29511 5.89844 1.82638C5.89844 1.35784 6.27952 0.976562 6.74768 0.976562C7.21584 0.976562 7.59673 1.35784 7.59673 1.82638C7.59673 2.29511 7.21584 2.67639 6.74768 2.67639ZM6.74768 1.80183L6.72217 1.82638C6.72217 1.84 6.73368 1.85112 6.74768 1.85112V1.80183Z" fill="#373A36"></path>
  <path d="M23.1544 25.1994C23.1391 25.1994 23.1235 25.1971 23.1086 25.1917L12.3243 21.3847L0.740042 14.8731C0.701684 14.8516 0.675793 14.8129 0.670806 14.7692C0.66582 14.7254 0.682122 14.6817 0.714534 14.6522L9.43019 6.66568L20.8263 0.399937C20.8639 0.37884 20.909 0.377306 20.9488 0.39495C20.9882 0.412787 21.0169 0.447884 21.0265 0.489886L23.5798 11.7145L23.2917 25.0652C23.2908 25.1093 23.2687 25.1499 23.2325 25.1752C23.2093 25.1914 23.182 25.1994 23.1544 25.1994ZM1.04 14.7266L12.4374 21.1354L23.0211 24.8695L23.3084 11.742L20.7989 0.728471L9.58919 6.88739L1.04 14.7266Z" fill="#373A36"></path>
  <path d="M20.7171 19.6727L20.6609 19.6535L6.68164 14.7935L6.72671 14.7544L17.9452 5.05469L20.7171 19.6727ZM6.81666 14.7675L20.6274 19.5691L17.9 5.18472L6.81666 14.7675Z" fill="#373A36"></path>
  <path d="M12.281 21.5114L9.3418 6.55469L23.7148 11.6937L12.281 21.5114ZM9.70466 6.97624L12.4597 20.9958L23.1771 11.7934L9.70466 6.97624Z" fill="#373A36"></path>
  <path d="M6.86862 1.76376L6.62891 1.89844L9.40333 6.83681L9.64304 6.70214L6.86862 1.76376Z" fill="#373A36"></path>
  <path d="M9.22778 26.4428L8.99609 26.2947L12.2552 21.1797L12.4868 21.3277L9.22778 26.4428Z" fill="#373A36"></path>
  <path d="M23.4556 11.6088L23.4355 11.8828L29.0853 12.2955L29.1053 12.0216L23.4556 11.6088Z" fill="#373A36"></path>
  <path d="M35.5176 8.64844H37.8255V12.5542H42.3082V8.64844H44.6162V19.1229H42.3082V14.596H37.8255V19.1229H35.5176V8.64844Z" fill="#373A36"></path>
  <path d="M49.0252 14.655L45.0898 8.64844H47.9599L50.1791 12.5689L52.5314 8.64844H55.2685L51.333 14.655V19.1229H49.0252V14.655Z" fill="#373A36"></path>
  <path d="M55.7422 8.64844H59.6332C60.1755 8.64844 60.6883 8.69806 61.1718 8.79642C61.6549 8.89523 62.0765 9.06512 62.4366 9.30677C62.7965 9.54864 63.0824 9.87412 63.2948 10.2832C63.5067 10.6925 63.6129 11.208 63.6129 11.8294C63.6129 12.441 63.5141 12.9536 63.3169 13.3678C63.1195 13.7823 62.8483 14.1127 62.5032 14.359C62.1578 14.6058 61.7488 14.7806 61.2753 14.8844C60.8018 14.9878 60.2888 15.0397 59.7367 15.0397H58.05V19.1229H55.7422V8.64844ZM58.05 13.0866H59.5887C59.7959 13.0866 59.9955 13.0672 60.188 13.0276C60.3802 12.9883 60.5526 12.9217 60.7057 12.8278C60.8584 12.7343 60.9818 12.606 61.0754 12.4433C61.1691 12.2805 61.216 12.0758 61.216 11.8294C61.216 11.563 61.1544 11.3484 61.0312 11.1856C60.9078 11.0229 60.75 10.8973 60.5577 10.8083C60.3655 10.7198 60.1509 10.663 59.9141 10.6384C59.6774 10.6138 59.4505 10.6013 59.2337 10.6013H58.05V13.0866Z" fill="#373A36"></path>
  <path d="M64.8555 8.64844H71.9717V10.7788H67.1635V12.7316H71.7052V14.862H67.1635V16.9926H72.2379V19.1229H64.8555V8.64844Z" fill="#373A36"></path>
  <path d="M73.791 8.64844H77.8447C78.3774 8.64844 78.8826 8.7003 79.3612 8.8038C79.8394 8.9073 80.2585 9.0801 80.6186 9.32174C80.9785 9.56339 81.2645 9.88887 81.4768 10.2982C81.6887 10.7075 81.7949 11.2178 81.7949 11.8294C81.7949 12.5689 81.6024 13.1977 81.2177 13.7157C80.8332 14.2334 80.271 14.5613 79.5313 14.6993L82.1942 19.1229H79.4276L77.2383 14.9362H76.0991V19.1229H73.791V8.64844ZM76.0991 12.9834H77.46C77.6672 12.9834 77.8865 12.9758 78.1183 12.961C78.3501 12.9462 78.5596 12.902 78.7472 12.8278C78.9345 12.754 79.0898 12.6382 79.2132 12.4804C79.3364 12.3226 79.3981 12.1008 79.3981 11.8145C79.3981 11.5482 79.3438 11.3363 79.2354 11.1785C79.1267 11.0207 78.9888 10.8997 78.8211 10.8159C78.6533 10.7323 78.461 10.6753 78.2442 10.6456C78.0271 10.616 77.8152 10.6013 77.608 10.6013H76.0991V12.9834Z" fill="#373A36"></path>
  <path d="M83.1699 8.64844H85.478V16.9926H89.7534V19.1229H83.1699V8.64844Z" fill="#373A36"></path>
  <path d="M90.8184 8.64844H97.9346V10.7788H93.1264V12.7316H97.6681V14.862H93.1264V16.9926H98.2008V19.1229H90.8184V8.64844Z" fill="#373A36"></path>
  <path d="M99.7539 8.64844H103.216C104.054 8.64844 104.851 8.74233 105.605 8.92965C106.36 9.11698 107.018 9.42033 107.58 9.83947C108.142 10.2588 108.588 10.8036 108.919 11.4742C109.25 12.1451 109.415 12.9588 109.415 13.9153C109.415 14.7636 109.254 15.5107 108.934 16.1567C108.613 16.8028 108.182 17.3453 107.639 17.7841C107.097 18.2232 106.471 18.5558 105.76 18.7827C105.05 19.0096 104.305 19.1229 103.527 19.1229H99.7539V8.64844ZM102.062 16.9926H103.26C103.793 16.9926 104.288 16.9385 104.747 16.8298C105.206 16.7214 105.603 16.5412 105.938 16.2898C106.273 16.0383 106.537 15.7079 106.73 15.2986C106.922 14.8893 107.018 14.3888 107.018 13.797C107.018 13.2842 106.922 12.8378 106.73 12.458C106.537 12.0785 106.278 11.7653 105.953 11.5187C105.627 11.2721 105.245 11.0873 104.806 10.9639C104.367 10.8405 103.906 10.7788 103.423 10.7788H102.062V16.9926Z" fill="#373A36"></path>
  <path d="M120.171 18.3838C119.49 18.7388 118.78 18.9954 118.04 19.1533C117.3 19.3106 116.546 19.3898 115.777 19.3898C114.958 19.3898 114.203 19.2615 113.513 19.0053C112.822 18.7487 112.226 18.3816 111.723 17.903C111.22 17.4248 110.828 16.8452 110.547 16.1645C110.266 15.4841 110.125 14.7247 110.125 13.8862C110.125 13.0481 110.266 12.2885 110.547 11.6078C110.828 10.9274 111.22 10.348 111.723 9.86959C112.226 9.39121 112.822 9.02415 113.513 8.76753C114.203 8.51113 114.958 8.38281 115.777 8.38281C116.615 8.38281 117.387 8.48408 118.092 8.68616C118.797 8.88824 119.416 9.23607 119.949 9.7292L118.321 11.5046C118.005 11.1791 117.65 10.9325 117.256 10.7646C116.861 10.597 116.368 10.5132 115.777 10.5132C115.283 10.5132 114.837 10.597 114.438 10.7646C114.038 10.9325 113.695 11.1666 113.409 11.4675C113.123 11.7683 112.904 12.1258 112.751 12.54C112.598 12.9542 112.522 13.4033 112.522 13.8862C112.522 14.3798 112.598 14.8309 112.751 15.2399C112.904 15.6495 113.123 16.0045 113.409 16.3053C113.695 16.6062 114.038 16.8405 114.438 17.0079C114.837 17.1758 115.283 17.2594 115.777 17.2594C116.28 17.2594 116.713 17.2026 117.078 17.0893C117.443 16.976 117.734 16.86 117.951 16.7417V15.0403H116.072V12.9098H120.171V18.3838Z" fill="#373A36"></path>
  <path d="M121.99 8.64844H129.106V10.7788H124.298V12.7316H128.84V14.862H124.298V16.9926H129.373V19.1229H121.99V8.64844Z" fill="#373A36"></path>
  <path d="M130.926 8.64844H134.979C135.512 8.64844 136.017 8.7003 136.496 8.8038C136.974 8.9073 137.393 9.0801 137.753 9.32174C138.113 9.56339 138.399 9.88887 138.612 10.2982C138.823 10.7075 138.93 11.2178 138.93 11.8294C138.93 12.5689 138.737 13.1977 138.352 13.7157C137.968 14.2334 137.406 14.5613 136.666 14.6993L139.329 19.1229H136.562L134.373 14.9362H133.234V19.1229H130.926V8.64844ZM133.234 12.9834H134.595C134.802 12.9834 135.021 12.9758 135.253 12.961C135.485 12.9462 135.694 12.902 135.882 12.8278C136.069 12.754 136.225 12.6382 136.348 12.4804C136.471 12.3226 136.533 12.1008 136.533 11.8145C136.533 11.5482 136.479 11.3363 136.37 11.1785C136.261 11.0207 136.124 10.8997 135.956 10.8159C135.788 10.7323 135.596 10.6753 135.379 10.6456C135.162 10.616 134.95 10.6013 134.743 10.6013H133.234V12.9834Z" fill="#373A36"></path>
</svg>
