<svg width="138" height="42" viewBox="0 0 138 42" fill="none" xmlns="http://www.w3.org/2000/svg">
<g clip-path="url(#clip0_5932_34311)">
<path d="M21.2892 41.8666C14.4217 41.8666 7.55541 41.8604 0.687877 41.8777C0.167629 41.879 -0.00123486 41.7884 6.78853e-06 41.2172C0.0186314 27.7367 0.0173898 14.2561 0.00373172 0.775621C0.00373172 0.273997 0.105547 0.125 0.63697 0.125C14.3919 0.141141 28.1468 0.1399 41.9005 0.128725C42.3636 0.128725 42.5238 0.21564 42.5226 0.724714C42.5064 14.2462 42.5064 27.769 42.5238 41.2905C42.5251 41.8219 42.3301 41.874 41.8893 41.874C35.023 41.8628 28.1555 41.8666 21.2892 41.8666Z" fill="#575757"/>
<path d="M57.8221 20.2073C58.4988 19.4959 59.1618 18.772 59.8534 18.0754C62.7092 15.1998 65.5761 12.3341 68.4294 9.45594C68.6951 9.18775 68.9534 9.04868 69.3433 9.06358C70.1491 9.09463 70.9562 9.07228 71.7632 9.07352C72.0227 9.07352 72.2686 9.02013 72.4114 9.37772C72.5492 9.72414 72.4176 9.90666 72.2015 10.1215C69.7232 12.5836 67.2486 15.0495 64.7703 17.5117C63.6578 18.6168 63.6528 18.6143 64.5269 19.8795C67.2871 23.8739 70.0485 27.867 72.8112 31.8602C72.9863 32.1122 73.1899 32.3233 73.0061 32.6908C72.8186 33.0658 72.5231 33.0099 72.2202 33.0099C71.4963 33.0099 70.7712 32.9838 70.0485 33.0199C69.6239 33.041 69.3768 32.8895 69.1434 32.5406C66.6576 28.8343 64.1482 25.1454 61.6699 21.4341C61.3893 21.0144 61.254 21.0219 60.9249 21.3583C59.9577 22.3492 58.9631 23.3127 57.9649 24.2737C57.7203 24.5096 57.6383 24.7592 57.6408 25.0932C57.6532 27.43 57.6482 29.7655 57.647 32.1023C57.647 32.8063 57.4409 33.005 56.722 33.0087C56.2054 33.0112 55.6877 33.005 55.1712 33.0099C54.6174 33.0161 54.3343 32.779 54.3343 32.1954C54.3393 24.7518 54.3393 17.3081 54.3355 9.86444C54.3355 9.32805 54.559 9.05862 55.1103 9.06855C55.6691 9.07848 56.2278 9.06731 56.7853 9.07103C57.4645 9.076 57.647 9.26349 57.6482 9.96502C57.6495 13.2318 57.6495 16.4985 57.6495 19.7653C57.6495 19.8684 57.6495 19.9714 57.6495 20.0745C57.7053 20.1204 57.7637 20.1639 57.8221 20.2073Z" fill="#575757"/>
<path d="M132.44 15.4914C133.785 15.4504 135.369 15.8142 136.912 16.3891C137.579 16.6375 137.701 16.9354 137.42 17.5699C137.195 18.0802 136.95 18.5831 136.757 19.1058C136.622 19.4721 136.458 19.4945 136.115 19.3554C134.572 18.7234 132.985 18.2888 131.29 18.4118C130.751 18.4503 130.22 18.5136 129.721 18.7396C128.525 19.2822 128.376 20.5784 129.439 21.3532C130.353 22.0187 131.429 22.3503 132.467 22.7575C133.872 23.3088 135.316 23.7906 136.484 24.7926C138.738 26.7246 138.423 30.5252 135.909 32.1158C134.849 32.7875 133.682 33.1141 132.457 33.2184C130.337 33.3996 128.246 33.2904 126.244 32.4399C125.761 32.235 125.525 31.9705 125.589 31.4242C125.638 30.9958 125.597 30.5563 125.598 30.1229C125.601 29.3059 125.931 29.0936 126.673 29.4189C128.565 30.2471 130.522 30.668 132.593 30.3278C132.983 30.2633 133.355 30.1465 133.713 29.9764C134.975 29.378 135.163 27.8433 134.057 26.9866C133.247 26.3595 132.297 25.992 131.356 25.6158C130.262 25.1787 129.151 24.7851 128.114 24.2152C126.439 23.2939 125.449 21.9653 125.561 19.9651C125.664 18.1051 126.684 16.9268 128.31 16.1718C129.526 15.6069 130.813 15.4877 132.44 15.4914Z" fill="#575757"/>
<path d="M97.8949 18.1038C98.6176 17.2719 99.2943 16.5964 100.156 16.1196C101.651 15.2927 103.224 15.4404 104.813 15.6602C105.09 15.6987 105.14 15.8415 105.099 16.0898C104.985 16.7827 104.911 17.4842 104.774 18.172C104.689 18.593 104.391 18.7643 103.943 18.6824C103.272 18.5594 102.597 18.4489 101.912 18.5781C100.108 18.9183 98.5431 20.6181 98.2624 22.5116C98.1221 23.459 98.1581 24.4088 98.1569 25.3587C98.1519 27.6123 98.1569 29.8658 98.1544 32.1194C98.1532 32.7912 97.9446 32.9985 97.2716 33.0035C96.7129 33.0084 96.1541 33.0109 95.5966 33.0022C95.1049 32.9948 94.8318 32.7564 94.8318 32.2399C94.833 27.0299 94.8318 21.82 94.8343 16.6101C94.8343 16.0786 95.1087 15.8167 95.6426 15.8216C96.1802 15.8253 96.7191 15.839 97.2555 15.8154C97.5746 15.8018 97.7012 15.9209 97.7236 16.2289C97.7633 16.8075 97.8266 17.3824 97.8949 18.1038Z" fill="#575757"/>
<path d="M15.6845 20.1445C17.0341 18.7812 18.3826 17.4166 19.7335 16.0557C21.961 13.8133 24.1922 11.5747 26.416 9.32728C26.606 9.13482 26.8021 9.05411 27.0703 9.05908C27.9382 9.0715 28.8074 9.06901 29.6765 9.06032C29.9572 9.05784 30.1757 9.06653 30.3123 9.39557C30.4464 9.71839 30.3222 9.87857 30.1161 10.0822C27.5198 12.6561 24.9322 15.2412 22.3347 17.8139C21.5413 18.5999 21.5301 18.5887 22.1721 19.5187C25.034 23.667 27.896 27.8166 30.763 31.9612C30.9232 32.1921 31.0535 32.3734 30.8834 32.6789C30.7233 32.9657 30.5221 33.0203 30.2303 33.0154C29.4034 33.0017 28.5752 32.9967 27.7495 33.0178C27.4404 33.0253 27.2566 32.9073 27.0914 32.6615C24.628 28.9912 22.1584 25.3246 19.69 21.658C19.5981 21.5215 19.4913 21.3923 19.4069 21.2508C19.2865 21.0509 19.1896 21.0025 18.9934 21.1961C17.8958 22.2888 16.7858 23.3715 15.6745 24.4505C15.461 24.6579 15.5206 24.9087 15.5206 25.1483C15.5156 27.4429 15.5181 29.7374 15.5168 32.032C15.5168 32.8577 15.3641 33.0079 14.5434 33.0091C14.0467 33.0104 13.5501 33.0141 13.0547 33.0079C12.4264 33.0005 12.2178 32.7869 12.2178 32.145C12.2153 28.4238 12.2166 24.7025 12.2166 20.9813C12.2166 17.3222 12.2166 13.6631 12.2166 10.004C12.2166 9.20187 12.3556 9.06281 13.1478 9.06032C13.6643 9.05908 14.1821 9.0566 14.6986 9.06157C15.3542 9.06777 15.5156 9.2354 15.5156 9.92699C15.5181 13.0895 15.5168 16.2532 15.5168 19.4156C15.5168 19.6354 15.5168 19.8564 15.5168 20.0762C15.5727 20.101 15.6286 20.1221 15.6845 20.1445Z" fill="#FEFEFE"/>
<path fill-rule="evenodd" clip-rule="evenodd" d="M83.192 25.2241C83.63 25.2233 84.0681 25.2225 84.5063 25.2225C84.8789 25.2225 85.2515 25.2224 85.624 25.2223C86.9271 25.2218 88.229 25.2214 89.5287 25.2262C90.0614 25.2262 90.3308 24.9816 90.3209 24.439C90.3169 24.1936 90.3172 23.9479 90.3175 23.7022C90.3181 23.2653 90.3187 22.8283 90.2948 22.3928C90.075 18.4257 87.4701 15.7078 83.7029 15.4992C80.3977 15.3167 77.866 16.824 76.5312 19.8511C75.5044 22.1805 75.3976 24.6265 75.9129 27.085C76.5759 30.2474 78.4595 32.3173 81.6579 33.0424C83.8445 33.5378 86.0211 33.3515 88.1455 32.6662C89.6194 32.1897 89.6194 32.1587 89.6194 30.6161V30.5889C89.6194 30.5333 89.6196 30.4779 89.6199 30.4226C89.6205 30.3122 89.621 30.2022 89.6194 30.0922C89.6107 29.377 89.2655 29.1448 88.5876 29.4093C87.0082 30.0239 85.3729 30.3468 83.6781 30.2896C82.696 30.2561 81.7585 30.0364 80.9452 29.4242C79.7048 28.4905 79.2926 27.1607 79.0964 25.708C79.0443 25.3169 79.1486 25.2088 79.5422 25.2138C80.7591 25.2284 81.9754 25.2262 83.192 25.2241ZM82.0246 22.37C82.3448 22.3726 82.665 22.3751 82.9852 22.3751C83.3091 22.3751 83.633 22.3753 83.957 22.3755C84.7673 22.376 85.5783 22.3765 86.3898 22.3739C86.416 22.3739 86.443 22.3751 86.47 22.3762C86.6432 22.3838 86.8192 22.3915 86.802 22.0908C86.699 20.2283 85.728 18.4764 83.5042 18.4019C81.2395 18.3261 79.7681 19.5069 79.2553 21.7953C79.156 22.2361 79.1808 22.4074 79.706 22.3875C80.478 22.3577 81.2511 22.3639 82.0246 22.37Z" fill="#575757"/>
<path fill-rule="evenodd" clip-rule="evenodd" d="M117.694 31.5618C117.825 31.4156 117.962 31.2639 118.193 31.1903C118.2 31.2132 118.206 31.2354 118.211 31.2572C118.232 31.3348 118.251 31.4063 118.277 31.4771C118.336 31.6548 118.354 31.8633 118.371 32.068C118.401 32.4241 118.43 32.7684 118.679 32.9174C118.966 33.0894 119.377 33.0593 119.784 33.0295C119.944 33.0178 120.103 33.0061 120.254 33.0068C121.009 33.0106 121.204 32.8131 121.204 32.0595C121.204 31.2531 121.204 30.4468 121.205 29.6403C121.205 26.9536 121.206 24.2664 121.199 21.58C121.198 21.0647 121.162 20.5469 121.098 20.0354C120.806 17.7197 119.504 16.272 117.224 15.7765C114.754 15.2402 112.36 15.5928 110.08 16.6122C109.393 16.9196 109.091 16.9917 109.026 17.1568C108.96 17.3259 109.143 17.5923 109.417 18.3083C109.469 18.4422 109.525 18.5746 109.58 18.7068C109.613 18.7842 109.645 18.8615 109.677 18.939C109.94 19.5822 110.211 19.6815 110.865 19.3984C112.278 18.7863 113.722 18.3132 115.298 18.4101C116.78 18.5007 117.585 19.1774 117.833 20.6339C117.878 20.8987 117.889 21.1688 117.899 21.4393C117.906 21.624 117.913 21.8088 117.931 21.9922C117.964 22.3299 117.813 22.4119 117.504 22.4169C116.698 22.428 115.891 22.4529 115.087 22.5C113.43 22.5969 111.791 22.7906 110.257 23.4884C108.5 24.2868 107.397 25.5979 107.248 27.5535C107.102 29.4669 107.586 31.1518 109.252 32.3426C111.111 33.6711 115.547 33.7692 117.596 31.6683C117.629 31.634 117.662 31.5981 117.694 31.5618ZM116.384 24.9987C116.333 24.9983 116.282 24.9978 116.232 24.9978C116.212 24.999 116.193 25.0003 116.173 25.0015C114.849 25.0858 113.529 25.17 112.272 25.6509C111.105 26.0979 110.527 27.1198 110.668 28.4856C110.776 29.5347 111.443 30.2412 112.625 30.3902C115.382 30.7367 117.882 29.4342 117.869 26.0793C117.867 25.5193 117.87 25.2384 117.732 25.1025C117.592 24.9654 117.307 24.976 116.727 24.9965C116.613 25.0008 116.498 24.9998 116.384 24.9987Z" fill="#575757"/>
</g>
<defs>
<clipPath id="clip0_5932_34311">
<rect width="138" height="41.7527" fill="white" transform="translate(0 0.125)"/>
</clipPath>
</defs>
</svg>
