<svg width="140" height="29" viewBox="0 0 140 29" fill="none" xmlns="http://www.w3.org/2000/svg">
<path d="M23.1219 22.2673C23.1141 22.3724 23.0756 22.4669 23.0063 22.5509C22.9378 22.6244 22.8281 22.6874 22.6772 22.74C22.5262 22.7925 22.324 22.8292 22.0703 22.8502C21.8159 22.8818 21.4944 22.8975 21.1058 22.8975C20.7067 22.8975 20.3823 22.8818 20.1325 22.8502C19.882 22.8292 19.6799 22.7925 19.5263 22.74C19.3832 22.6874 19.2828 22.6244 19.2253 22.5509C19.179 22.4669 19.1598 22.3724 19.1676 22.2673L19.7873 13.9333C19.8224 13.4606 19.8072 13.03 19.7416 12.6414C19.6864 12.2528 19.5745 11.9219 19.4058 11.6489C19.2483 11.3653 19.0332 11.15 18.7606 11.0029C18.4992 10.8454 18.1743 10.7666 17.7856 10.7666C17.313 10.7666 16.8215 10.9504 16.311 11.318C15.8005 11.6856 15.2355 12.2213 14.6161 12.925L13.9214 22.2673C13.9136 22.3724 13.875 22.4669 13.8058 22.5509C13.7373 22.6244 13.6223 22.6874 13.4609 22.74C13.3099 22.7925 13.1076 22.8292 12.854 22.8502C12.5996 22.8818 12.2833 22.8975 11.9052 22.8975C11.5166 22.8975 11.1974 22.8818 10.9477 22.8502C10.6972 22.8292 10.4951 22.7925 10.3415 22.74C10.1984 22.6874 10.098 22.6244 10.0405 22.5509C9.9837 22.4669 9.95922 22.3724 9.96703 22.2673L10.5867 13.9333C10.6219 13.4606 10.6066 13.03 10.541 12.6414C10.4859 12.2528 10.3792 11.9219 10.221 11.6489C10.0635 11.3653 9.84843 11.15 9.57579 11.0029C9.30392 10.8454 8.97894 10.7666 8.60083 10.7666C8.1177 10.7666 7.6209 10.9504 7.11043 11.318C6.59996 11.6856 6.04023 12.2213 5.43125 12.925L4.73657 22.2673C4.72876 22.3724 4.69022 22.4669 4.62095 22.5509C4.55247 22.6244 4.4375 22.6874 4.27605 22.74C4.12511 22.7925 3.92282 22.8292 3.66919 22.8502C3.41477 22.8818 3.09326 22.8975 2.70465 22.8975C2.31604 22.8975 1.99688 22.8818 1.74715 22.8502C1.49664 22.8292 1.29457 22.7925 1.14093 22.74C0.997792 22.6874 0.897449 22.6244 0.839898 22.5509C0.783128 22.4669 0.758648 22.3724 0.766458 22.2673L1.81141 8.21441C1.81922 8.10938 1.85212 8.0201 1.9101 7.94658C1.96887 7.86256 2.06847 7.79429 2.20891 7.74178C2.34935 7.68926 2.52539 7.6525 2.73701 7.6315C2.95991 7.59999 3.23416 7.58423 3.55975 7.58423C3.89584 7.58423 4.173 7.59999 4.39122 7.6315C4.61022 7.6525 4.77553 7.68926 4.88716 7.74178C5.00929 7.79429 5.09349 7.86256 5.13975 7.94658C5.1868 8.0201 5.20642 8.10938 5.19861 8.21441L5.07795 9.83711C5.91764 8.99688 6.73647 8.3667 7.53442 7.94658C8.34288 7.52647 9.16722 7.31641 10.0075 7.31641C10.5851 7.31641 11.1003 7.37942 11.5531 7.50546C12.0066 7.62099 12.4033 7.79429 12.7433 8.02535C13.0945 8.24592 13.3896 8.51374 13.6288 8.82883C13.8679 9.14392 14.0623 9.49577 14.212 9.88437C14.6657 9.43275 15.1042 9.04414 15.5275 8.71855C15.9613 8.39296 16.38 8.13038 16.7834 7.93083C17.1982 7.72077 17.6033 7.56848 17.999 7.47395C18.4059 7.36892 18.8142 7.31641 19.2238 7.31641C20.1585 7.31641 20.9345 7.47395 21.5518 7.78904C22.169 8.10413 22.6517 8.53475 22.9997 9.0809C23.3589 9.61655 23.5957 10.2467 23.7098 10.9714C23.824 11.6961 23.851 12.4628 23.7909 13.2716L23.1219 22.2673Z" fill="#575757"/>
<path d="M39.0146 22.3146C39.0037 22.4616 38.9426 22.5772 38.8313 22.6612C38.72 22.7452 38.5477 22.803 38.3143 22.8345C38.0906 22.8765 37.7582 22.8975 37.3171 22.8975C36.8444 22.8975 36.4994 22.8765 36.282 22.8345C36.0743 22.803 35.9263 22.7452 35.838 22.6612C35.7602 22.5772 35.7268 22.4616 35.7377 22.3146L35.8209 21.196C35.1971 21.8157 34.4995 22.2988 33.7281 22.6454C32.9671 22.992 32.135 23.1653 31.2317 23.1653C30.486 23.1653 29.8055 23.0656 29.1901 22.866C28.5845 22.6769 28.0647 22.3934 27.6307 22.0153C27.208 21.6267 26.8917 21.1488 26.6818 20.5816C26.4719 20.0145 26.395 19.3528 26.4513 18.5966C26.5122 17.7773 26.7224 17.0684 27.082 16.4697C27.4529 15.8605 27.9679 15.3617 28.627 14.973C29.2973 14.5739 30.1122 14.2799 31.0715 14.0908C32.0308 13.9017 33.1354 13.8072 34.3853 13.8072H35.7559L35.8191 12.9565C35.8519 12.5154 35.8332 12.132 35.7629 11.8064C35.7038 11.4703 35.5775 11.192 35.3838 10.9714C35.2007 10.7509 34.9397 10.5881 34.6009 10.483C34.2726 10.378 33.8564 10.3255 33.3523 10.3255C32.6906 10.3255 32.0917 10.399 31.5556 10.5461C31.0301 10.6931 30.5611 10.8559 30.1487 11.0344C29.7363 11.213 29.3881 11.3758 29.1041 11.5228C28.8306 11.6699 28.6098 11.7434 28.4418 11.7434C28.3262 11.7434 28.2239 11.7066 28.1349 11.6331C28.0563 11.5596 27.9906 11.4546 27.9377 11.318C27.8954 11.1815 27.8659 11.0134 27.8492 10.8139C27.8325 10.6143 27.8332 10.3938 27.8511 10.1522C27.8754 9.82661 27.9207 9.56929 27.9873 9.38023C28.0539 9.19118 28.1662 9.02313 28.3241 8.87609C28.4829 8.71855 28.7527 8.5505 29.1336 8.37195C29.5152 8.1829 29.9588 8.0096 30.4641 7.85206C30.9695 7.69451 31.5145 7.56848 32.0992 7.47395C32.6951 7.36892 33.303 7.31641 33.9226 7.31641C35.0254 7.31641 35.9573 7.42669 36.7181 7.64725C37.4902 7.85731 38.1115 8.18815 38.5821 8.63978C39.0534 9.0809 39.3784 9.65331 39.5572 10.357C39.7359 11.0607 39.7894 11.8957 39.7175 12.862L39.0146 22.3146ZM35.5708 16.2964H34.0584C33.4177 16.2964 32.868 16.3437 32.4094 16.4382C31.9507 16.5327 31.5726 16.6745 31.2749 16.8636C30.9773 17.0526 30.7501 17.2837 30.5932 17.5568C30.4477 17.8193 30.362 18.1239 30.3362 18.4705C30.2925 19.0587 30.4419 19.5208 30.7845 19.8569C31.1376 20.193 31.645 20.3611 32.3067 20.3611C32.8634 20.3611 33.3833 20.2193 33.8665 19.9357C34.3603 19.6521 34.869 19.2372 35.3927 18.6911L35.5708 16.2964Z" fill="#575757"/>
<path d="M51.0946 20.8818C51.0602 21.3439 51.0021 21.701 50.9204 21.9531C50.8499 22.1947 50.7635 22.368 50.6612 22.473C50.5596 22.5675 50.4112 22.6568 50.2159 22.7408C50.0319 22.8143 49.8119 22.8774 49.5559 22.9299C49.3096 22.9929 49.0383 23.0402 48.7419 23.0717C48.456 23.1032 48.166 23.1189 47.8719 23.1189C47.0842 23.1189 46.4089 23.0192 45.8461 22.8196C45.2832 22.62 44.828 22.3155 44.4804 21.9058C44.1335 21.4857 43.8942 20.9606 43.7625 20.3304C43.6308 19.7002 43.597 18.9545 43.661 18.0933L44.1964 10.8935H42.5107C42.3111 10.8935 42.1678 10.7727 42.0808 10.5312C41.9945 10.2791 41.9728 9.86423 42.0158 9.28657C42.0384 8.98198 42.068 8.72466 42.1047 8.5146C42.1518 8.30455 42.2059 8.14175 42.267 8.02622C42.3289 7.90018 42.3986 7.81091 42.476 7.75839C42.5639 7.70588 42.6604 7.67962 42.7654 7.67962H44.4354L44.6685 4.5445C44.6763 4.43947 44.7096 4.34494 44.7684 4.26092C44.8376 4.17689 44.9477 4.10863 45.0987 4.05611C45.2609 3.99309 45.4688 3.95108 45.7225 3.93008C45.9874 3.89857 46.3089 3.88281 46.687 3.88281C47.0756 3.88281 47.3948 3.89857 47.6445 3.93008C47.9055 3.95108 48.1072 3.99309 48.2496 4.05611C48.3927 4.10863 48.4927 4.17689 48.5494 4.26092C48.6062 4.34494 48.6307 4.43947 48.6229 4.5445L48.3897 7.67962H51.4461C51.5511 7.67962 51.6384 7.70588 51.7081 7.75839C51.7882 7.81091 51.8498 7.90018 51.893 8.02622C51.9369 8.14175 51.9615 8.30455 51.9669 8.5146C51.9828 8.72466 51.9794 8.98198 51.9568 9.28657C51.9138 9.86423 51.8305 10.2791 51.7067 10.5312C51.5837 10.7727 51.4224 10.8935 51.2229 10.8935H48.1508L47.6599 17.4946C47.6029 18.2613 47.6807 18.839 47.8934 19.2276C48.1069 19.6057 48.5234 19.7948 49.1431 19.7948C49.3531 19.7948 49.5434 19.779 49.7138 19.7475C49.8849 19.7055 50.0351 19.6635 50.1643 19.6215C50.3047 19.5689 50.4181 19.5269 50.5045 19.4954C50.6021 19.4534 50.6877 19.4324 50.7612 19.4324C50.8242 19.4324 50.8805 19.4534 50.9298 19.4954C50.9905 19.5269 51.0323 19.6004 51.0552 19.716C51.0789 19.821 51.0943 19.9681 51.1012 20.1571C51.1187 20.3462 51.1164 20.5877 51.0946 20.8818Z" fill="#575757"/>
<path d="M68.5755 15.0361C68.4825 16.2859 68.262 17.415 67.914 18.4233C67.5772 19.421 67.1253 20.2718 66.5584 20.9755C65.9914 21.6792 65.3105 22.2201 64.5157 22.5982C63.7208 22.9763 62.8298 23.1653 61.8425 23.1653C61.4329 23.1653 61.0579 23.1233 60.7176 23.0393C60.3869 22.9658 60.0647 22.8502 59.7508 22.6927C59.4482 22.5247 59.1484 22.3198 58.8512 22.0783C58.5541 21.8367 58.2496 21.5531 57.9377 21.2275L57.4457 27.8444C57.4379 27.9494 57.3994 28.0439 57.3301 28.128C57.2608 28.212 57.1455 28.2803 56.984 28.3328C56.8323 28.3958 56.6292 28.4431 56.3748 28.4746C56.1204 28.5061 55.7989 28.5218 55.4103 28.5218C55.0217 28.5218 54.7025 28.5061 54.4528 28.4746C54.203 28.4431 54.0018 28.3958 53.8489 28.3328C53.7058 28.2803 53.6058 28.212 53.549 28.128C53.4923 28.0439 53.4678 27.9494 53.4756 27.8444L54.9353 8.21441C54.9431 8.10938 54.976 8.0201 55.0339 7.94658C55.0927 7.86256 55.1871 7.79429 55.317 7.74178C55.4574 7.68926 55.6335 7.6525 55.8451 7.6315C56.068 7.59999 56.3422 7.58423 56.6678 7.58423C56.9829 7.58423 57.2443 7.59999 57.452 7.6315C57.671 7.6525 57.8416 7.68926 57.9637 7.74178C58.0964 7.79429 58.1858 7.86256 58.2321 7.94658C58.2791 8.0201 58.2988 8.10938 58.2909 8.21441L58.1679 9.86862C58.6088 9.4485 59.0352 9.0809 59.4473 8.76581C59.8706 8.44022 60.2949 8.1724 60.7201 7.96234C61.1461 7.74178 61.5783 7.57898 62.0168 7.47395C62.4657 7.36892 62.937 7.31641 63.4306 7.31641C64.4599 7.31641 65.3217 7.52121 66.0159 7.93083C66.711 8.32994 67.2581 8.88134 67.6574 9.58504C68.0672 10.2887 68.3424 11.108 68.4829 12.0427C68.6235 12.9775 68.6543 13.9753 68.5755 15.0361ZM64.4267 15.3196C64.4712 14.721 64.4665 14.1486 64.4126 13.6024C64.37 13.0458 64.2544 12.5521 64.0659 12.1215C63.8878 11.6909 63.6296 11.3495 63.2913 11.0975C62.9642 10.8349 62.5381 10.7036 62.0129 10.7036C61.7504 10.7036 61.4847 10.7456 61.2158 10.8296C60.9583 10.9032 60.6864 11.0292 60.4 11.2077C60.1242 11.3863 59.8339 11.6174 59.5292 11.9009C59.2246 12.1845 58.8991 12.5364 58.5527 12.9565L58.2083 17.5883C58.7127 18.292 59.2025 18.8381 59.6777 19.2267C60.1537 19.6048 60.6648 19.7939 61.211 19.7939C61.7256 19.7939 62.1712 19.6626 62.5479 19.4C62.935 19.1375 63.2597 18.7961 63.522 18.376C63.7851 17.9454 63.9891 17.4622 64.1339 16.9266C64.2893 16.3909 64.3869 15.8553 64.4267 15.3196Z" fill="#575757"/>
<path d="M75.1902 22.2656C75.1824 22.3706 75.1439 22.4651 75.0746 22.5491C75.0061 22.6227 74.8912 22.6857 74.7297 22.7382C74.5788 22.7907 74.3765 22.8275 74.1228 22.8485C73.8684 22.88 73.5469 22.8957 73.1583 22.8957C72.7697 22.8957 72.4505 22.88 72.2008 22.8485C71.9503 22.8275 71.7482 22.7907 71.5946 22.7382C71.4514 22.6857 71.3511 22.6227 71.2935 22.5491C71.2368 22.4651 71.2123 22.3706 71.2201 22.2656L72.7606 1.54853C72.7684 1.4435 72.8069 1.34898 72.8762 1.26495C72.9455 1.18093 73.0556 1.11266 73.2065 1.06015C73.3688 0.997129 73.5771 0.949866 73.8315 0.918357C74.0859 0.886848 74.4074 0.871094 74.796 0.871094C75.1846 0.871094 75.5038 0.886848 75.7535 0.918357C76.0033 0.949866 76.1993 0.997129 76.3417 1.06015C76.4953 1.11266 76.6005 1.18093 76.6573 1.26495C76.714 1.34898 76.7385 1.4435 76.7307 1.54853L75.1902 22.2656Z" fill="#575757"/>
<path d="M93.9038 15.0991C93.8148 16.2964 93.576 17.3887 93.1875 18.376C92.799 19.3633 92.2579 20.214 91.5641 20.9282C90.8703 21.6424 90.0258 22.1938 89.0307 22.5824C88.0355 22.971 86.892 23.1653 85.6001 23.1653C84.3503 23.1653 83.2761 22.992 82.3777 22.6454C81.4792 22.2988 80.7499 21.7947 80.19 21.133C79.63 20.4713 79.2389 19.6574 79.0167 18.6911C78.7944 17.7248 78.7294 16.622 78.8216 15.3827C78.9106 14.1853 79.1493 13.093 79.5378 12.1057C79.9376 11.108 80.484 10.2572 81.177 9.55353C81.8708 8.83933 82.71 8.28793 83.6947 7.89932C84.6899 7.51071 85.8334 7.31641 87.1252 7.31641C88.3856 7.31641 89.465 7.48971 90.3635 7.8363C91.2628 8.1724 91.9871 8.67128 92.5366 9.33297C93.0966 9.99465 93.4877 10.8086 93.7099 11.7749C93.9321 12.7412 93.9968 13.8492 93.9038 15.0991ZM89.8117 15.2566C89.8633 14.5634 89.8528 13.928 89.7802 13.3503C89.7189 12.7622 89.573 12.2528 89.3424 11.8222C89.1119 11.3915 88.785 11.0555 88.3618 10.8139C87.9492 10.5723 87.412 10.4515 86.7503 10.4515C86.1622 10.4515 85.6393 10.5618 85.1818 10.7824C84.7251 10.9924 84.3393 11.3075 84.0245 11.7276C83.7104 12.1373 83.458 12.6361 83.2672 13.2243C83.0877 13.802 82.9703 14.4637 82.9148 15.2094C82.8633 15.9026 82.8734 16.5432 82.9452 17.1314C83.0178 17.7091 83.1641 18.2132 83.3841 18.6438C83.6147 19.0744 83.9416 19.4105 84.3647 19.6521C84.7887 19.8832 85.3262 19.9987 85.9774 19.9987C86.5761 19.9987 87.1038 19.8937 87.5605 19.6836C88.018 19.463 88.4038 19.148 88.7179 18.7383C89.0319 18.3287 89.2787 17.8351 89.4582 17.2574C89.6384 16.6693 89.7563 16.0023 89.8117 15.2566Z" fill="#575757"/>
<path d="M104.912 20.8818C104.877 21.3439 104.819 21.701 104.737 21.9531C104.667 22.1947 104.581 22.368 104.478 22.473C104.377 22.5675 104.228 22.6568 104.033 22.7408C103.849 22.8143 103.629 22.8774 103.373 22.9299C103.127 22.9929 102.855 23.0402 102.559 23.0717C102.273 23.1032 101.983 23.1189 101.689 23.1189C100.901 23.1189 100.226 23.0192 99.6631 22.8196C99.1002 22.62 98.645 22.3155 98.2974 21.9058C97.9505 21.4857 97.7112 20.9606 97.5795 20.3304C97.4478 19.7002 97.414 18.9545 97.4781 18.0933L98.0134 10.8935H96.3277C96.1281 10.8935 95.9848 10.7727 95.8978 10.5312C95.8115 10.2791 95.7898 9.86423 95.8328 9.28657C95.8554 8.98198 95.8851 8.72466 95.9217 8.5146C95.9688 8.30455 96.0229 8.14175 96.084 8.02622C96.1459 7.90018 96.2156 7.81091 96.293 7.75839C96.3809 7.70588 96.4774 7.67962 96.5824 7.67962H98.2524L98.4855 4.5445C98.4933 4.43947 98.5266 4.34494 98.5854 4.26092C98.6546 4.17689 98.7648 4.10863 98.9157 4.05611C99.0779 3.99309 99.2859 3.95108 99.5395 3.93008C99.8044 3.89857 100.126 3.88281 100.504 3.88281C100.893 3.88281 101.212 3.89857 101.462 3.93008C101.723 3.95108 101.924 3.99309 102.067 4.05611C102.21 4.10863 102.31 4.17689 102.366 4.26092C102.423 4.34494 102.448 4.43947 102.44 4.5445L102.207 7.67962H105.263C105.368 7.67962 105.455 7.70588 105.525 7.75839C105.605 7.81091 105.667 7.90018 105.71 8.02622C105.754 8.14175 105.779 8.30455 105.784 8.5146C105.8 8.72466 105.796 8.98198 105.774 9.28657C105.731 9.86423 105.647 10.2791 105.524 10.5312C105.401 10.7727 105.239 10.8935 105.04 10.8935H101.968L101.477 17.4946C101.42 18.2613 101.498 18.839 101.71 19.2276C101.924 19.6057 102.34 19.7948 102.96 19.7948C103.17 19.7948 103.36 19.779 103.531 19.7475C103.702 19.7055 103.852 19.6635 103.981 19.6215C104.122 19.5689 104.235 19.5269 104.321 19.4954C104.419 19.4534 104.505 19.4324 104.578 19.4324C104.641 19.4324 104.697 19.4534 104.747 19.4954C104.808 19.5269 104.849 19.6004 104.872 19.716C104.896 19.821 104.911 19.9681 104.918 20.1571C104.936 20.3462 104.933 20.5877 104.912 20.8818Z" fill="#575757"/>
<path d="M111.677 22.2656C111.67 22.3706 111.631 22.4651 111.562 22.5491C111.493 22.6227 111.378 22.6857 111.217 22.7382C111.066 22.7907 110.864 22.8275 110.61 22.8485C110.356 22.88 110.034 22.8957 109.646 22.8957C109.257 22.8957 108.938 22.88 108.688 22.8485C108.438 22.8275 108.235 22.7907 108.082 22.7382C107.939 22.6857 107.838 22.6227 107.781 22.5491C107.724 22.4651 107.7 22.3706 107.707 22.2656L109.248 1.54853C109.256 1.4435 109.294 1.34898 109.363 1.26495C109.433 1.18093 109.543 1.11266 109.694 1.06015C109.856 0.997129 110.064 0.949866 110.319 0.918357C110.573 0.886848 110.895 0.871094 111.283 0.871094C111.672 0.871094 111.991 0.886848 112.241 0.918357C112.49 0.949866 112.687 0.997129 112.829 1.06015C112.983 1.11266 113.088 1.18093 113.144 1.26495C113.201 1.34898 113.226 1.4435 113.218 1.54853L111.677 22.2656Z" fill="#575757"/>
<path d="M119.618 22.269C119.61 22.374 119.571 22.4685 119.502 22.5526C119.434 22.6261 119.319 22.6891 119.157 22.7416C119.006 22.7941 118.804 22.8309 118.55 22.8519C118.296 22.8834 117.974 22.8992 117.586 22.8992C117.197 22.8992 116.878 22.8834 116.628 22.8519C116.378 22.8309 116.176 22.7941 116.022 22.7416C115.879 22.6891 115.779 22.6261 115.721 22.5526C115.664 22.4685 115.64 22.374 115.648 22.269L116.69 8.24757C116.698 8.14254 116.736 8.05326 116.805 7.97974C116.874 7.89572 116.984 7.82745 117.135 7.77493C117.297 7.71192 117.505 7.66465 117.76 7.63314C118.014 7.60164 118.336 7.58588 118.724 7.58588C119.113 7.58588 119.432 7.60164 119.682 7.63314C119.932 7.66465 120.128 7.71192 120.27 7.77493C120.424 7.82745 120.529 7.89572 120.586 7.97974C120.643 8.05326 120.668 8.14254 120.66 8.24757L119.618 22.269ZM121.316 3.45823C121.256 4.25645 121.053 4.80785 120.704 5.11244C120.356 5.41702 119.741 5.56932 118.859 5.56932C117.966 5.56932 117.373 5.42228 117.08 5.12819C116.797 4.83411 116.684 4.30371 116.741 3.537C116.8 2.73878 116.999 2.18737 117.337 1.88279C117.686 1.5677 118.307 1.41016 119.199 1.41016C120.082 1.41016 120.669 1.56245 120.961 1.86703C121.255 2.16112 121.373 2.69151 121.316 3.45823Z" fill="#575757"/>
<path d="M138.272 15.0501C138.179 16.2999 137.959 17.4237 137.611 18.4215C137.264 19.4193 136.807 20.27 136.24 20.9737C135.673 21.6774 134.997 22.2183 134.213 22.5964C133.439 22.9745 132.574 23.1636 131.619 23.1636C131.146 23.1636 130.708 23.1163 130.306 23.0218C129.903 22.9378 129.519 22.796 129.156 22.5964C128.803 22.3969 128.454 22.1448 128.109 21.8402C127.775 21.5356 127.435 21.168 127.089 20.7374L126.975 22.2656C126.966 22.3811 126.927 22.4809 126.858 22.5649C126.8 22.6384 126.701 22.7014 126.561 22.754C126.431 22.8065 126.255 22.8432 126.032 22.8642C125.81 22.8852 125.542 22.8957 125.227 22.8957C124.901 22.8957 124.629 22.8852 124.41 22.8642C124.201 22.8432 124.031 22.8065 123.898 22.754C123.776 22.7014 123.691 22.6384 123.644 22.5649C123.598 22.4809 123.579 22.3811 123.588 22.2656L125.128 1.54853C125.136 1.4435 125.175 1.34898 125.244 1.26495C125.313 1.18093 125.423 1.11266 125.574 1.06015C125.736 0.997129 125.945 0.949866 126.199 0.918357C126.454 0.886848 126.775 0.871094 127.164 0.871094C127.552 0.871094 127.871 0.886848 128.121 0.918357C128.371 0.949866 128.567 0.997129 128.709 1.06015C128.863 1.11266 128.968 1.18093 129.025 1.26495C129.082 1.34898 129.106 1.4435 129.098 1.54853L128.521 9.31545C128.904 8.95835 129.284 8.65377 129.66 8.4017C130.036 8.14963 130.408 7.94482 130.777 7.78728C131.147 7.61923 131.523 7.49844 131.907 7.42492C132.29 7.3514 132.692 7.31464 133.112 7.31464C134.152 7.31464 135.019 7.5247 135.712 7.94482C136.406 8.35443 136.953 8.91109 137.353 9.61479C137.762 10.3185 138.037 11.143 138.177 12.0882C138.317 13.023 138.349 14.0103 138.272 15.0501ZM134.139 15.3336C134.183 14.735 134.179 14.1573 134.126 13.6006C134.083 13.044 133.968 12.5504 133.779 12.1197C133.591 11.6891 133.327 11.3478 132.989 11.0957C132.662 10.8331 132.23 10.7018 131.695 10.7018C131.432 10.7018 131.172 10.7386 130.914 10.8121C130.657 10.8856 130.385 11.0117 130.099 11.1902C129.823 11.3688 129.533 11.5998 129.228 11.8834C128.923 12.167 128.598 12.5188 128.251 12.939L127.905 17.6023C128.408 18.3165 128.898 18.8626 129.374 19.2407C129.861 19.6083 130.383 19.7921 130.94 19.7921C131.455 19.7921 131.9 19.6608 132.277 19.3983C132.653 19.1357 132.973 18.7943 133.235 18.3742C133.508 17.9541 133.717 17.4762 133.862 16.9406C134.007 16.4049 134.099 15.8693 134.139 15.3336Z" fill="#575757"/>
<path d="M86.3966 25.4901C92.9717 25.4901 98.3018 20.16 98.3018 13.5849C98.3018 7.00984 92.9717 1.67969 86.3966 1.67969C79.8215 1.67969 74.4914 7.00984 74.4914 13.5849C74.4914 20.16 79.8215 25.4901 86.3966 25.4901Z" fill="#575757" stroke="white" stroke-width="0.766056" stroke-miterlimit="100" stroke-linecap="round" stroke-linejoin="round"/>
<path opacity="0.05" d="M86.3144 24.7975C89.3109 24.7975 92.1852 23.6069 94.3041 21.488C96.423 19.3691 97.6135 16.4949 97.6135 13.4983C97.6135 10.5018 96.423 7.62755 94.3041 5.50866C92.1852 3.38977 89.3109 2.19922 86.3144 2.19922C83.3178 2.19922 80.4436 3.38977 78.3247 5.50866C76.2058 7.62755 75.0152 10.5018 75.0152 13.4983C75.0152 16.4949 76.2058 19.3691 78.3247 21.488C80.4436 23.6069 83.3178 24.7975 86.3144 24.7975Z" fill="white"/>
<mask id="mask0_5932_34114" style="mask-type:luminance" maskUnits="userSpaceOnUse" x="75" y="2" width="23" height="23">
<path d="M86.3144 24.8014C89.311 24.8014 92.1852 23.6108 94.3041 21.4919C96.423 19.3731 97.6135 16.4988 97.6135 13.5023C97.6135 10.5057 96.423 7.63145 94.3041 5.51256C92.1852 3.39367 89.311 2.20312 86.3144 2.20312C83.3178 2.20312 80.4436 3.39367 78.3247 5.51256C76.2058 7.63145 75.0153 10.5057 75.0153 13.5023C75.0153 16.4988 76.2058 19.3731 78.3247 21.4919C80.4436 23.6108 83.3178 24.8014 86.3144 24.8014Z" fill="white"/>
</mask>
<g mask="url(#mask0_5932_34114)">
<path opacity="0.9" d="M86.3144 13.5039H97.6135" stroke="#858585" stroke-width="0.0685082" stroke-linecap="round" stroke-linejoin="round" stroke-dasharray="0.07 0.14"/>
</g>
<mask id="mask1_5932_34114" style="mask-type:luminance" maskUnits="userSpaceOnUse" x="75" y="2" width="23" height="23">
<path d="M86.3144 24.8014C89.311 24.8014 92.1852 23.6108 94.3041 21.4919C96.423 19.3731 97.6135 16.4988 97.6135 13.5023C97.6135 10.5057 96.423 7.63145 94.3041 5.51256C92.1852 3.39367 89.311 2.20312 86.3144 2.20312C83.3178 2.20312 80.4436 3.39367 78.3247 5.51256C76.2058 7.63145 75.0153 10.5057 75.0153 13.5023C75.0153 16.4988 76.2058 19.3731 78.3247 21.4919C80.4436 23.6108 83.3178 24.8014 86.3144 24.8014Z" fill="white"/>
</mask>
<g mask="url(#mask1_5932_34114)">
<path opacity="0.9" d="M86.3144 13.5014L94.3041 5.51172" stroke="#858585" stroke-width="0.0685082" stroke-linecap="round" stroke-linejoin="round" stroke-dasharray="0.07 0.14"/>
</g>
<mask id="mask2_5932_34114" style="mask-type:luminance" maskUnits="userSpaceOnUse" x="75" y="2" width="23" height="23">
<path d="M86.3144 24.8014C89.311 24.8014 92.1852 23.6108 94.3041 21.4919C96.423 19.3731 97.6135 16.4988 97.6135 13.5023C97.6135 10.5057 96.423 7.63145 94.3041 5.51256C92.1852 3.39367 89.311 2.20312 86.3144 2.20312C83.3178 2.20312 80.4436 3.39367 78.3247 5.51256C76.2058 7.63145 75.0153 10.5057 75.0153 13.5023C75.0153 16.4988 76.2058 19.3731 78.3247 21.4919C80.4436 23.6108 83.3178 24.8014 86.3144 24.8014Z" fill="white"/>
</mask>
<g mask="url(#mask2_5932_34114)">
<path opacity="0.9" d="M86.3144 13.5023V2.20312" stroke="#858585" stroke-width="0.0685082" stroke-linecap="round" stroke-linejoin="round" stroke-dasharray="0.07 0.14"/>
</g>
<mask id="mask3_5932_34114" style="mask-type:luminance" maskUnits="userSpaceOnUse" x="75" y="2" width="23" height="23">
<path d="M86.3144 24.8014C89.311 24.8014 92.1852 23.6108 94.3041 21.4919C96.423 19.3731 97.6135 16.4988 97.6135 13.5023C97.6135 10.5057 96.423 7.63145 94.3041 5.51256C92.1852 3.39367 89.311 2.20312 86.3144 2.20312C83.3178 2.20312 80.4436 3.39367 78.3247 5.51256C76.2058 7.63145 75.0153 10.5057 75.0153 13.5023C75.0153 16.4988 76.2058 19.3731 78.3247 21.4919C80.4436 23.6108 83.3178 24.8014 86.3144 24.8014Z" fill="white"/>
</mask>
<g mask="url(#mask3_5932_34114)">
<path opacity="0.9" d="M86.3144 13.5014L78.3247 5.51172" stroke="#858585" stroke-width="0.0685082" stroke-linecap="round" stroke-linejoin="round" stroke-dasharray="0.07 0.14"/>
</g>
<mask id="mask4_5932_34114" style="mask-type:luminance" maskUnits="userSpaceOnUse" x="75" y="2" width="23" height="23">
<path d="M86.3144 24.8014C89.311 24.8014 92.1852 23.6108 94.3041 21.4919C96.423 19.3731 97.6135 16.4988 97.6135 13.5023C97.6135 10.5057 96.423 7.63145 94.3041 5.51256C92.1852 3.39367 89.311 2.20312 86.3144 2.20312C83.3178 2.20312 80.4436 3.39367 78.3247 5.51256C76.2058 7.63145 75.0153 10.5057 75.0153 13.5023C75.0153 16.4988 76.2058 19.3731 78.3247 21.4919C80.4436 23.6108 83.3178 24.8014 86.3144 24.8014Z" fill="white"/>
</mask>
<g mask="url(#mask4_5932_34114)">
<path opacity="0.9" d="M86.3144 13.5039H75.0153" stroke="#858585" stroke-width="0.0685082" stroke-linecap="round" stroke-linejoin="round" stroke-dasharray="0.07 0.14"/>
</g>
<mask id="mask5_5932_34114" style="mask-type:luminance" maskUnits="userSpaceOnUse" x="75" y="2" width="23" height="23">
<path d="M86.3144 24.8014C89.311 24.8014 92.1852 23.6108 94.3041 21.4919C96.423 19.3731 97.6135 16.4988 97.6135 13.5023C97.6135 10.5057 96.423 7.63145 94.3041 5.51256C92.1852 3.39367 89.311 2.20312 86.3144 2.20312C83.3178 2.20312 80.4436 3.39367 78.3247 5.51256C76.2058 7.63145 75.0153 10.5057 75.0153 13.5023C75.0153 16.4988 76.2058 19.3731 78.3247 21.4919C80.4436 23.6108 83.3178 24.8014 86.3144 24.8014Z" fill="white"/>
</mask>
<g mask="url(#mask5_5932_34114)">
<path opacity="0.9" d="M86.3144 13.5039L78.3247 21.4936" stroke="#858585" stroke-width="0.0685082" stroke-linecap="round" stroke-linejoin="round" stroke-dasharray="0.07 0.14"/>
</g>
<mask id="mask6_5932_34114" style="mask-type:luminance" maskUnits="userSpaceOnUse" x="75" y="2" width="23" height="23">
<path d="M86.3144 24.8014C89.311 24.8014 92.1852 23.6108 94.3041 21.4919C96.423 19.3731 97.6135 16.4988 97.6135 13.5023C97.6135 10.5057 96.423 7.63145 94.3041 5.51256C92.1852 3.39367 89.311 2.20312 86.3144 2.20312C83.3178 2.20312 80.4436 3.39367 78.3247 5.51256C76.2058 7.63145 75.0153 10.5057 75.0153 13.5023C75.0153 16.4988 76.2058 19.3731 78.3247 21.4919C80.4436 23.6108 83.3178 24.8014 86.3144 24.8014Z" fill="white"/>
</mask>
<g mask="url(#mask6_5932_34114)">
<path opacity="0.9" d="M86.3144 13.5039V24.803" stroke="#858585" stroke-width="0.0685082" stroke-linecap="round" stroke-linejoin="round" stroke-dasharray="0.07 0.14"/>
</g>
<mask id="mask7_5932_34114" style="mask-type:luminance" maskUnits="userSpaceOnUse" x="75" y="2" width="23" height="23">
<path d="M86.3144 24.8014C89.311 24.8014 92.1852 23.6108 94.3041 21.4919C96.423 19.3731 97.6135 16.4988 97.6135 13.5023C97.6135 10.5057 96.423 7.63145 94.3041 5.51256C92.1852 3.39367 89.311 2.20312 86.3144 2.20312C83.3178 2.20312 80.4436 3.39367 78.3247 5.51256C76.2058 7.63145 75.0153 10.5057 75.0153 13.5023C75.0153 16.4988 76.2058 19.3731 78.3247 21.4919C80.4436 23.6108 83.3178 24.8014 86.3144 24.8014Z" fill="white"/>
</mask>
<g mask="url(#mask7_5932_34114)">
<path opacity="0.9" d="M86.3144 13.5039L94.3041 21.4936" stroke="#858585" stroke-width="0.0685082" stroke-linecap="round" stroke-linejoin="round" stroke-dasharray="0.07 0.14"/>
</g>
<mask id="mask8_5932_34114" style="mask-type:luminance" maskUnits="userSpaceOnUse" x="75" y="2" width="23" height="23">
<path d="M86.3144 24.8014C89.311 24.8014 92.1852 23.6108 94.3041 21.4919C96.423 19.3731 97.6135 16.4988 97.6135 13.5023C97.6135 10.5057 96.423 7.63145 94.3041 5.51256C92.1852 3.39367 89.311 2.20312 86.3144 2.20312C83.3178 2.20312 80.4436 3.39367 78.3247 5.51256C76.2058 7.63145 75.0153 10.5057 75.0153 13.5023C75.0153 16.4988 76.2058 19.3731 78.3247 21.4919C80.4436 23.6108 83.3178 24.8014 86.3144 24.8014Z" fill="white"/>
</mask>
<g mask="url(#mask8_5932_34114)">
<path opacity="0.9" d="M87.5699 13.5025L87.5326 13.1988L87.4229 12.9131L87.2474 12.6624L87.0165 12.4617L86.7438 12.3227L86.4456 12.2539L86.1397 12.2592L85.8441 12.3384L85.5765 12.4868L85.3527 12.6955L85.186 12.9521L85.0864 13.2415L85.0597 13.5463L85.1076 13.8485L85.2272 14.1302L85.4113 14.3746L85.6491 14.5672L85.9265 14.6965L86.2268 14.7549L86.5324 14.7389L86.825 14.6494L87.0873 14.4918L87.3037 14.2754L87.4613 14.0131L87.5508 13.7205L87.5699 13.5025Z" stroke="#818181" stroke-width="0.0685082" stroke-miterlimit="100" stroke-linecap="square" stroke-linejoin="round" stroke-dasharray="0.07 0.14"/>
</g>
<mask id="mask9_5932_34114" style="mask-type:luminance" maskUnits="userSpaceOnUse" x="75" y="2" width="23" height="23">
<path d="M86.3144 24.8014C89.311 24.8014 92.1852 23.6108 94.3041 21.4919C96.423 19.3731 97.6135 16.4988 97.6135 13.5023C97.6135 10.5057 96.423 7.63145 94.3041 5.51256C92.1852 3.39367 89.311 2.20312 86.3144 2.20312C83.3178 2.20312 80.4436 3.39367 78.3247 5.51256C76.2058 7.63145 75.0153 10.5057 75.0153 13.5023C75.0153 16.4988 76.2058 19.3731 78.3247 21.4919C80.4436 23.6108 83.3178 24.8014 86.3144 24.8014Z" fill="white"/>
</mask>
<g mask="url(#mask9_5932_34114)">
<path opacity="0.9" d="M90.0808 13.5024L90.0441 12.9782L89.9349 12.4642L89.7552 11.9704L89.5085 11.5065L89.1996 11.0814L88.8346 10.7034L88.4205 10.3799L87.9655 10.1172L87.4783 9.92033L86.9684 9.79321L86.4458 9.73828L85.9207 9.75662L85.4032 9.84786L84.9035 10.0102L84.4312 10.2406L83.9956 10.5344L83.6051 10.886L83.2673 11.2885L82.9889 11.7342L82.7752 12.2142L82.6303 12.7193L82.5572 13.2396V13.7651L82.6303 14.2854L82.7752 14.7905L82.9889 15.2706L83.2673 15.7162L83.6051 16.1187L83.9956 16.4703L84.4312 16.7641L84.9035 16.9945L85.4032 17.1569L85.9207 17.2481L86.4458 17.2664L86.9684 17.2115L87.4783 17.0844L87.9655 16.8876L88.4205 16.6248L88.8346 16.3013L89.1996 15.9233L89.5085 15.4982L89.7552 15.0343L89.9349 14.5405L90.0441 14.0265L90.0808 13.5024Z" stroke="#818181" stroke-width="0.0685082" stroke-miterlimit="100" stroke-linecap="square" stroke-linejoin="round" stroke-dasharray="0.07 0.14"/>
</g>
<mask id="mask10_5932_34114" style="mask-type:luminance" maskUnits="userSpaceOnUse" x="75" y="2" width="23" height="23">
<path d="M86.3144 24.8014C89.311 24.8014 92.1852 23.6108 94.3041 21.4919C96.423 19.3731 97.6135 16.4988 97.6135 13.5023C97.6135 10.5057 96.423 7.63145 94.3041 5.51256C92.1852 3.39367 89.311 2.20312 86.3144 2.20312C83.3178 2.20312 80.4436 3.39367 78.3247 5.51256C76.2058 7.63145 75.0153 10.5057 75.0153 13.5023C75.0153 16.4988 76.2058 19.3731 78.3247 21.4919C80.4436 23.6108 83.3178 24.8014 86.3144 24.8014Z" fill="white"/>
</mask>
<g mask="url(#mask10_5932_34114)">
<path opacity="0.9" d="M92.5917 13.5039L92.5573 12.8477L92.4545 12.1987L92.2845 11.5641L92.049 10.9507L91.7507 10.3652L91.3928 9.81416L90.9793 9.30353L90.5147 8.83892L90.0041 8.42542L89.453 8.06756L88.8676 7.76926L88.2542 7.5338L87.6195 7.36374L86.9706 7.26095L86.3144 7.22656L85.6582 7.26095L85.0093 7.36374L84.3746 7.5338L83.7612 7.76926L83.1758 8.06756L82.6247 8.42542L82.1141 8.83892L81.6495 9.30353L81.236 9.81416L80.8781 10.3652L80.5798 10.9507L80.3443 11.5641L80.1743 12.1987L80.0715 12.8477L80.0371 13.5039L80.0715 14.16L80.1743 14.809L80.3443 15.4436L80.5798 16.0571L80.8781 16.6425L81.236 17.1936L81.6495 17.7042L82.1141 18.1688L82.6247 18.5823L83.1758 18.9402L83.7612 19.2385L84.3746 19.4739L85.0093 19.644L85.6582 19.7468L86.3144 19.7812L86.9706 19.7468L87.6195 19.644L88.2542 19.4739L88.8676 19.2385L89.453 18.9402L90.0041 18.5823L90.5147 18.1688L90.9793 17.7042L91.3928 17.1936L91.7507 16.6425L92.049 16.0571L92.2845 15.4436L92.4545 14.809L92.5573 14.16L92.5917 13.5039Z" stroke="#818181" stroke-width="0.0685082" stroke-miterlimit="100" stroke-linecap="square" stroke-linejoin="round" stroke-dasharray="0.07 0.14"/>
</g>
<mask id="mask11_5932_34114" style="mask-type:luminance" maskUnits="userSpaceOnUse" x="75" y="2" width="23" height="23">
<path d="M86.3144 24.8014C89.311 24.8014 92.1852 23.6108 94.3041 21.4919C96.423 19.3731 97.6135 16.4988 97.6135 13.5023C97.6135 10.5057 96.423 7.63145 94.3041 5.51256C92.1852 3.39367 89.311 2.20312 86.3144 2.20312C83.3178 2.20312 80.4436 3.39367 78.3247 5.51256C76.2058 7.63145 75.0153 10.5057 75.0153 13.5023C75.0153 16.4988 76.2058 19.3731 78.3247 21.4919C80.4436 23.6108 83.3178 24.8014 86.3144 24.8014Z" fill="white"/>
</mask>
<g mask="url(#mask11_5932_34114)">
<path opacity="0.9" d="M95.1026 13.5031L95.0545 12.5844L94.9106 11.6759L94.6725 10.7873L94.3428 9.92857L93.9252 9.10895L93.4242 8.33747L92.8453 7.62259L92.1949 6.97214L91.48 6.39324L90.7085 5.89224L89.8889 5.47462L89.0301 5.14497L88.1416 4.90689L87.233 4.76299L86.3144 4.71484L85.3958 4.76299L84.4872 4.90689L83.5987 5.14497L82.7399 5.47462L81.9203 5.89224L81.1488 6.39324L80.4339 6.97214L79.7835 7.62259L79.2046 8.33747L78.7036 9.10895L78.286 9.92857L77.9563 10.7873L77.7182 11.6759L77.5743 12.5844L77.5262 13.5031L77.5743 14.4217L77.7182 15.3302L77.9563 16.2188L78.286 17.0775L78.7036 17.8972L79.2046 18.6686L79.7835 19.3835L80.4339 20.034L81.1488 20.6129L81.9203 21.1139L82.7399 21.5315L83.5987 21.8611L84.4872 22.0992L85.3958 22.2431L86.3144 22.2913L87.233 22.2431L88.1416 22.0992L89.0301 21.8611L89.8889 21.5315L90.7085 21.1139L91.48 20.6129L92.1949 20.034L92.8453 19.3835L93.4242 18.6686L93.9252 17.8972L94.3428 17.0775L94.6725 16.2188L94.9106 15.3302L95.0545 14.4217L95.1026 13.5031Z" stroke="#818181" stroke-width="0.0685082" stroke-miterlimit="100" stroke-linecap="square" stroke-linejoin="round" stroke-dasharray="0.07 0.14"/>
</g>
<g opacity="0.938">
<mask id="mask12_5932_34114" style="mask-type:luminance" maskUnits="userSpaceOnUse" x="75" y="2" width="23" height="23">
<path d="M86.3144 24.7936C89.311 24.7936 92.1852 23.603 94.3041 21.4841C96.423 19.3652 97.6135 16.491 97.6135 13.4944C97.6135 10.4979 96.423 7.62364 94.3041 5.50475C92.1852 3.38586 89.311 2.19531 86.3144 2.19531C83.3178 2.19531 80.4436 3.38586 78.3247 5.50475C76.2058 7.62364 75.0153 10.4979 75.0153 13.4944C75.0153 16.491 76.2058 19.3652 78.3247 21.4841C80.4436 23.603 83.3178 24.7936 86.3144 24.7936Z" fill="white"/>
</mask>
<g mask="url(#mask12_5932_34114)">
<path opacity="0.6" d="M86.3144 13.4985L86.3383 13.4907L86.3621 13.483L86.386 13.4752L86.4099 13.4675L86.4338 13.4597L86.4577 13.4519L86.4815 13.4442L86.5054 13.4364L86.5293 13.4287L86.5532 13.4209L86.5771 13.4131L86.6009 13.4054L86.6248 13.3976L86.6487 13.3899L86.6726 13.3821L86.6965 13.3744L86.7203 13.3666L86.7442 13.3588L86.7681 13.3511L86.792 13.3433L86.8159 13.3356L86.8397 13.3278L86.8636 13.32L86.8875 13.3123L86.9114 13.3045L86.9353 13.2968L86.9592 13.289L86.983 13.2813L87.0069 13.2735L87.0308 13.2657L87.0547 13.258L87.0786 13.2502L87.1024 13.2425L87.1263 13.2347L87.1502 13.2269L87.1741 13.2192L87.198 13.2114L87.2218 13.2037L87.2457 13.1959L87.2696 13.1882L87.2935 13.1804L87.3174 13.1726L87.3412 13.1649L87.3651 13.1571L87.389 13.1494L87.4129 13.1416L87.4368 13.1338L87.4606 13.1261L87.4845 13.1183L87.5084 13.1106L87.5323 13.1028L87.5562 13.0951L87.58 13.0873L87.6039 13.0795L87.6278 13.0718L87.6517 13.064L87.6756 13.0563L87.6995 13.0485L87.7233 13.0407L87.7472 13.033L87.7711 13.0252L87.795 13.0175L87.8189 13.0097L87.8427 13.002L87.8666 12.9942L87.8905 12.9864L87.9144 12.9787L87.9383 12.9709L87.9621 12.9632L87.986 12.9554L88.0099 12.9476L88.0338 12.9399L88.0577 12.9321L88.0815 12.9244L88.1054 12.9166L88.1293 12.9089L88.1532 12.9011L88.1771 12.8933L88.2009 12.8856L88.2248 12.8778L88.2487 12.8701L88.2726 12.8623L88.2965 12.8545L88.3203 12.8468L88.3442 12.839L88.3681 12.8313L88.392 12.8235L88.4159 12.8158L88.4397 12.808L88.4636 12.8002L88.4875 12.7925L88.5114 12.7847L88.5353 12.777L88.5592 12.7692L88.583 12.7614L88.6069 12.7537L88.6308 12.7459L88.6547 12.7382L88.6786 12.7304L88.7024 12.7227L88.7049 12.7302L88.7073 12.7377L88.7097 12.7452L88.712 12.7527L88.7143 12.7603L88.7166 12.7678L88.7189 12.7754L88.7212 12.7829L88.7234 12.7905L88.7256 12.7981L88.7278 12.8056L88.73 12.8132L88.7321 12.8208L88.7343 12.8284L88.7363 12.836L88.7384 12.8436L88.7405 12.8512L88.7425 12.8589L88.7445 12.8665L88.7465 12.8741L88.7484 12.8818L88.7503 12.8894L88.7522 12.8971L88.7541 12.9048L88.756 12.9124L88.7578 12.9201L88.7596 12.9278L88.7614 12.9355L88.7631 12.9431L88.7649 12.9508L88.7666 12.9585L88.7683 12.9663L88.7699 12.974L88.7716 12.9817L88.7732 12.9894L88.7747 12.9971L88.7763 13.0049L88.7779 13.0126L88.7794 13.0203L88.7808 13.0281L88.7823 13.0358L88.7838 13.0436L88.7852 13.0514L88.7866 13.0591L88.7879 13.0669L88.7893 13.0747L88.7906 13.0824L88.7919 13.0902L88.7932 13.098L88.7944 13.1058L88.7956 13.1136L88.7968 13.1214L88.798 13.1292L88.7991 13.137L88.8003 13.1448L88.8014 13.1526L88.8024 13.1604L88.8035 13.1682L88.8045 13.1761L88.8055 13.1839L88.8065 13.1917L88.8074 13.1995L88.8084 13.2074L88.8093 13.2152L88.8102 13.2231L88.811 13.2309L88.8118 13.2387L88.8126 13.2466L88.8134 13.2544L88.8141 13.2623L88.8149 13.2701L88.8156 13.278L88.8163 13.2859L88.8169 13.2937L88.8176 13.3016L88.8182 13.3094L88.8187 13.3173L88.8193 13.3252L88.8199 13.3331L88.8204 13.3409L88.8208 13.3488L88.8213 13.3567L88.8217 13.3645L88.8221 13.3724L88.8225 13.3803L88.8229 13.3882L88.8232 13.3961L88.8235 13.4039L88.8238 13.4118L88.8241 13.4197L88.8243 13.4276L88.8245 13.4355L88.8247 13.4434L88.8249 13.4513L88.825 13.4591L88.8251 13.467L88.8252 13.4749L88.8253 13.4828L88.8253 13.4907L88.8253 13.4986H88.8002H88.7751H88.75H88.7249H88.6998H88.6747H88.6495H88.6244H88.5993H88.5742H88.5491H88.524H88.4989H88.4738H88.4487H88.4236H88.3985H88.3733H88.3482H88.3231H88.298H88.2729H88.2478H88.2227H88.1976H88.1725H88.1474H88.1222H88.0971H88.072H88.0469H88.0218H87.9967H87.9716H87.9465H87.9214H87.8963H87.8712H87.846H87.8209H87.7958H87.7707H87.7456H87.7205H87.6954H87.6703H87.6452H87.6201H87.595H87.5698H87.5447H87.5196H87.4945H87.4694H87.4443H87.4192H87.3941H87.369H87.3439H87.3188H87.2936H87.2685H87.2434H87.2183H87.1932H87.1681H87.143H87.1179H87.0928H87.0677H87.0426H87.0174H86.9923H86.9672H86.9421H86.917H86.8919H86.8668H86.8417H86.8166H86.7915H86.7664H86.7412H86.7161H86.691H86.6659H86.6408H86.6157H86.5906H86.5655H86.5404H86.5153H86.4902H86.465H86.4399H86.4148H86.3897H86.3646H86.3395L86.3144 13.4985Z" fill="#004CFF" stroke="black" stroke-width="0.153002" stroke-miterlimit="100" stroke-linejoin="round"/>
</g>
</g>
<g opacity="0.938">
<mask id="mask13_5932_34114" style="mask-type:luminance" maskUnits="userSpaceOnUse" x="75" y="2" width="23" height="23">
<path d="M86.3144 24.7936C89.311 24.7936 92.1852 23.603 94.3041 21.4841C96.423 19.3652 97.6135 16.491 97.6135 13.4944C97.6135 10.4979 96.423 7.62364 94.3041 5.50475C92.1852 3.38586 89.311 2.19531 86.3144 2.19531C83.3178 2.19531 80.4436 3.38586 78.3247 5.50475C76.2058 7.62364 75.0153 10.4979 75.0153 13.4944C75.0153 16.491 76.2058 19.3652 78.3247 21.4841C80.4436 23.603 83.3178 24.7936 86.3144 24.7936Z" fill="white"/>
</mask>
<g mask="url(#mask13_5932_34114)">
<path opacity="0.6" d="M86.3144 13.4977L86.3408 13.4272L86.3673 13.3567L86.3938 13.2862L86.4203 13.2156L86.4467 13.1451L86.4732 13.0746L86.4997 13.0041L86.5261 12.9335L86.5526 12.863L86.5791 12.7925L86.6055 12.722L86.632 12.6514L86.6585 12.5809L86.6849 12.5104L86.7114 12.4399L86.7379 12.3693L86.7643 12.2988L86.7908 12.2283L86.8173 12.1578L86.8438 12.0873L86.8702 12.0167L86.8967 11.9462L86.9232 11.8757L86.9496 11.8052L86.9761 11.7346L87.0026 11.6641L87.029 11.5936L87.0555 11.5231L87.082 11.4525L87.1084 11.382L87.1349 11.3115L87.1614 11.241L87.1878 11.1704L87.2143 11.0999L87.2408 11.0294L87.2672 10.9589L87.2937 10.8883L87.3202 10.8178L87.3467 10.7473L87.3731 10.6768L87.3996 10.6062L87.4261 10.5357L87.4525 10.4652L87.479 10.3947L87.5055 10.3241L87.5319 10.2536L87.5584 10.1831L87.5849 10.1126L87.6113 10.042L87.6378 9.97152L87.6643 9.901L87.6907 9.83048L87.7172 9.75995L87.7437 9.68943L87.7702 9.6189L87.7966 9.54838L87.8231 9.47785L87.8496 9.40733L87.876 9.33681L87.9025 9.26628L87.929 9.19576L87.9554 9.12523L87.9819 9.05471L88.0084 8.98418L88.0348 8.91366L88.0613 8.84314L88.0878 8.77261L88.1142 8.70209L88.1407 8.63156L88.1672 8.56104L88.1937 8.49052L88.2201 8.41999L88.2466 8.34947L88.2731 8.27894L88.2995 8.20842L88.326 8.13789L88.3525 8.06737L88.3789 7.99685L88.4054 7.92632L88.4319 7.8558L88.4583 7.78527L88.4848 7.71475L88.5113 7.64422L88.5377 7.5737L88.5642 7.50318L88.5907 7.43265L88.6172 7.36213L88.6436 7.2916L88.6701 7.22108L88.6966 7.15055L88.723 7.08003L88.7495 7.00951L88.776 6.93898L88.8024 6.86846L88.8289 6.79793L88.8554 6.72741L88.8818 6.65688L88.9083 6.58636L88.9348 6.51584L88.9612 6.44531L88.9834 6.45366L89.0055 6.46208L89.0276 6.47057L89.0497 6.47913L89.0717 6.48776L89.0937 6.49645L89.1157 6.50522L89.1376 6.51405L89.1596 6.52296L89.1815 6.53193L89.2033 6.54097L89.2252 6.55008L89.247 6.55926L89.2688 6.56851L89.2905 6.57782L89.3122 6.58721L89.3339 6.59666L89.3556 6.60618L89.3772 6.61577L89.3988 6.62542L89.4204 6.63515L89.442 6.64494L89.4635 6.6548L89.485 6.66472L89.5064 6.67472L89.5278 6.68478L89.5492 6.6949L89.5706 6.7051L89.5919 6.71536L89.6132 6.72569L89.6345 6.73609L89.6557 6.74655L89.6769 6.75708L89.698 6.76768L89.7192 6.77834L89.7402 6.78907L89.7613 6.79987L89.7823 6.81073L89.8033 6.82165L89.8243 6.83265L89.8452 6.84371L89.8661 6.85483L89.8869 6.86603L89.9078 6.87728L89.9285 6.8886L89.9493 6.89999L89.97 6.91144L89.9907 6.92296L90.0113 6.93454L90.0319 6.94618L90.0525 6.9579L90.073 6.96967L90.0935 6.98151L90.1139 6.99341L90.1344 7.00538L90.1547 7.01742L90.1751 7.02951L90.1954 7.04167L90.2156 7.0539L90.2359 7.06618L90.256 7.07854L90.2762 7.09095L90.2963 7.10343L90.3164 7.11597L90.3364 7.12857L90.3564 7.14124L90.3763 7.15397L90.3962 7.16676L90.4161 7.17962L90.4359 7.19254L90.4557 7.20551L90.4755 7.21855L90.4952 7.23166L90.5148 7.24482L90.5345 7.25805L90.5541 7.27134L90.5736 7.28469L90.5931 7.2981L90.6125 7.31157L90.632 7.3251L90.6513 7.3387L90.6707 7.35235L90.6899 7.36607L90.7092 7.37985L90.7284 7.39368L90.7475 7.40758L90.7666 7.42154L90.7857 7.43556L90.8047 7.44964L90.8237 7.46377L90.8426 7.47797L90.8615 7.49222L90.8804 7.50654L90.8992 7.52091L90.9179 7.53535L90.9366 7.54984L90.9553 7.56439L90.9739 7.579L90.9925 7.59366L91.011 7.60839L90.9641 7.66728L90.9171 7.72618L90.8701 7.78507L90.8232 7.84396L90.7762 7.90286L90.7292 7.96175L90.6823 8.02064L90.6353 8.07954L90.5883 8.13843L90.5414 8.19732L90.4944 8.25622L90.4474 8.31511L90.4005 8.374L90.3535 8.4329L90.3065 8.49179L90.2596 8.55069L90.2126 8.60958L90.1656 8.66847L90.1187 8.72737L90.0717 8.78626L90.0247 8.84515L89.9778 8.90405L89.9308 8.96294L89.8838 9.02183L89.8369 9.08073L89.7899 9.13962L89.7429 9.19851L89.696 9.25741L89.649 9.3163L89.602 9.37519L89.5551 9.43409L89.5081 9.49298L89.4611 9.55187L89.4142 9.61077L89.3672 9.66966L89.3202 9.72855L89.2733 9.78745L89.2263 9.84634L89.1793 9.90523L89.1324 9.96413L89.0854 10.023L89.0385 10.0819L88.9915 10.1408L88.9445 10.1997L88.8976 10.2586L88.8506 10.3175L88.8036 10.3764L88.7567 10.4353L88.7097 10.4942L88.6627 10.5531L88.6158 10.612L88.5688 10.6708L88.5218 10.7297L88.4749 10.7886L88.4279 10.8475L88.3809 10.9064L88.334 10.9653L88.287 11.0242L88.24 11.0831L88.1931 11.142L88.1461 11.2009L88.0991 11.2598L88.0522 11.3187L88.0052 11.3776L87.9582 11.4365L87.9113 11.4954L87.8643 11.5543L87.8173 11.6131L87.7704 11.672L87.7234 11.7309L87.6764 11.7898L87.6295 11.8487L87.5825 11.9076L87.5355 11.9665L87.4886 12.0254L87.4416 12.0843L87.3946 12.1432L87.3477 12.2021L87.3007 12.261L87.2537 12.3199L87.2068 12.3788L87.1598 12.4377L87.1128 12.4965L87.0659 12.5554L87.0189 12.6143L86.9719 12.6732L86.925 12.7321L86.878 12.791L86.8311 12.8499L86.7841 12.9088L86.7371 12.9677L86.6902 13.0266L86.6432 13.0855L86.5962 13.1444L86.5493 13.2033L86.5023 13.2622L86.4553 13.3211L86.4084 13.3799L86.3614 13.4388L86.3144 13.4977Z" fill="#CEFF29" stroke="black" stroke-width="0.153002" stroke-miterlimit="100" stroke-linejoin="round"/>
</g>
</g>
<g opacity="0.938">
<mask id="mask14_5932_34114" style="mask-type:luminance" maskUnits="userSpaceOnUse" x="75" y="2" width="23" height="23">
<path d="M86.3144 24.7936C89.311 24.7936 92.1852 23.603 94.3041 21.4841C96.423 19.3652 97.6135 16.491 97.6135 13.4944C97.6135 10.4979 96.423 7.62364 94.3041 5.50475C92.1852 3.38586 89.311 2.19531 86.3144 2.19531C83.3178 2.19531 80.4436 3.38586 78.3247 5.50475C76.2058 7.62364 75.0153 10.4979 75.0153 13.4944C75.0153 16.491 76.2058 19.3652 78.3247 21.4841C80.4436 23.603 83.3178 24.7936 86.3144 24.7936Z" fill="white"/>
</mask>
<g mask="url(#mask14_5932_34114)">
<path opacity="0.6" d="M86.3144 13.4989L86.25 13.4218L86.1856 13.3447L86.1213 13.2676L86.0569 13.1905L85.9925 13.1134L85.9282 13.0363L85.8638 12.9592L85.7994 12.8821L85.7351 12.805L85.6707 12.7279L85.6063 12.6508L85.542 12.5737L85.4776 12.4966L85.4132 12.4195L85.3489 12.3424L85.2845 12.2653L85.2201 12.1882L85.1558 12.1111L85.0914 12.034L85.027 11.9569L84.9627 11.8798L84.8983 11.8027L84.8339 11.7256L84.7696 11.6485L84.7052 11.5714L84.6408 11.4943L84.5765 11.4172L84.5121 11.3401L84.4477 11.263L84.3834 11.1859L84.319 11.1088L84.2546 11.0317L84.1903 10.9546L84.1259 10.8775L84.0615 10.8004L83.9972 10.7233L83.9328 10.6462L83.8684 10.5691L83.8041 10.492L83.7397 10.4149L83.6753 10.3378L83.611 10.2607L83.5466 10.1836L83.4822 10.1065L83.4178 10.0294L83.3535 9.95229L83.2891 9.87519L83.2247 9.79809L83.1604 9.72099L83.096 9.64389L83.0316 9.56679L82.9673 9.48969L82.9029 9.41259L82.8385 9.33549L82.7742 9.25839L82.7098 9.18129L82.6454 9.10419L82.5811 9.02709L82.5167 8.95L82.4523 8.8729L82.388 8.7958L82.3236 8.7187L82.2592 8.6416L82.1949 8.5645L82.1305 8.4874L82.0661 8.4103L82.0018 8.3332L81.9374 8.2561L81.873 8.179L81.8087 8.1019L81.7443 8.0248L81.6799 7.9477L81.6156 7.8706L81.5512 7.7935L81.4868 7.7164L81.4225 7.6393L81.3581 7.5622L81.2937 7.4851L81.2294 7.408L81.165 7.3309L81.1006 7.2538L81.0363 7.1767L80.9719 7.0996L80.9075 7.0225L80.8432 6.9454L80.7788 6.8683L80.7144 6.7912L80.65 6.7141L80.5857 6.637L80.5213 6.5599L80.4569 6.4828L80.3926 6.4057L80.3282 6.32861L80.2638 6.25151L80.1995 6.17441L80.1351 6.09731L80.0707 6.02021L80.0064 5.94311L79.942 5.86601L79.8776 5.78891L79.914 5.75866L79.9506 5.72859L79.9873 5.69869L80.0241 5.66896L80.0611 5.6394L80.0982 5.61002L80.1354 5.58082L80.1728 5.55179L80.2103 5.52293L80.248 5.49426L80.2858 5.46576L80.3237 5.43744L80.3617 5.4093L80.3999 5.38134L80.4382 5.35356L80.4767 5.32596L80.5153 5.29854L80.554 5.2713L80.5928 5.24425L80.6318 5.21737L80.6709 5.19069L80.7101 5.16419L80.7494 5.13787L80.7889 5.11174L80.8285 5.08579L80.8682 5.06004L80.908 5.03446L80.9479 5.00908L80.988 4.98389L81.0282 4.95888L81.0685 4.93407L81.1089 4.90944L81.1495 4.88501L81.1901 4.86076L81.2309 4.83671L81.2717 4.81285L81.3127 4.78919L81.3538 4.76572L81.395 4.74244L81.4364 4.71935L81.4778 4.69646L81.5193 4.67376L81.561 4.65127L81.6027 4.62896L81.6446 4.60686L81.6865 4.58495L81.7286 4.56324L81.7707 4.54173L81.813 4.52042L81.8553 4.49931L81.8978 4.4784L81.9404 4.45768L81.983 4.43717L82.0258 4.41686L82.0686 4.39675L82.1115 4.37685L82.1546 4.35714L82.1977 4.33764L82.2409 4.31835L82.2842 4.29925L82.3276 4.28036L82.3711 4.26168L82.4147 4.2432L82.4583 4.22492L82.5021 4.20686L82.5459 4.189L82.5898 4.17134L82.6338 4.15389L82.6779 4.13665L82.7221 4.11962L82.7663 4.1028L82.8106 4.08618L82.855 4.06977L82.8995 4.05358L82.944 4.03759L82.9887 4.02181L83.0334 4.00625L83.0781 3.99089L83.123 3.97574L83.1679 3.96081L83.2129 3.94609L83.2579 3.93158L83.303 3.91728L83.3482 3.9032L83.3935 3.88932L83.4388 3.87567L83.4842 3.86222L83.5296 3.84899L83.5751 3.83598L83.6207 3.82318L83.6663 3.81059L83.712 3.79822L83.7577 3.78607L83.8035 3.77413L83.8494 3.7624L83.8953 3.7509L83.9413 3.7396L83.9873 3.72853L84.0333 3.71767L84.0795 3.70703L84.1018 3.80495L84.1242 3.90287L84.1465 4.00079L84.1689 4.09871L84.1912 4.19662L84.2136 4.29454L84.2359 4.39246L84.2583 4.49038L84.2806 4.5883L84.303 4.68622L84.3253 4.78414L84.3477 4.88205L84.37 4.97997L84.3924 5.07789L84.4147 5.17581L84.4371 5.27373L84.4594 5.37165L84.4818 5.46956L84.5041 5.56748L84.5265 5.6654L84.5488 5.76332L84.5712 5.86124L84.5935 5.95916L84.6159 6.05708L84.6382 6.15499L84.6606 6.25291L84.6829 6.35083L84.7053 6.44875L84.7276 6.54667L84.75 6.64459L84.7723 6.74251L84.7947 6.84042L84.817 6.93834L84.8394 7.03626L84.8617 7.13418L84.8841 7.2321L84.9064 7.33002L84.9288 7.42794L84.9511 7.52585L84.9735 7.62377L84.9958 7.72169L85.0182 7.81961L85.0405 7.91753L85.0629 8.01545L85.0852 8.11337L85.1076 8.21128L85.1299 8.3092L85.1522 8.40712L85.1746 8.50504L85.1969 8.60296L85.2193 8.70088L85.2416 8.7988L85.264 8.89671L85.2863 8.99463L85.3087 9.09255L85.331 9.19047L85.3534 9.28839L85.3757 9.38631L85.3981 9.48423L85.4204 9.58214L85.4428 9.68006L85.4651 9.77798L85.4875 9.8759L85.5098 9.97382L85.5322 10.0717L85.5545 10.1697L85.5769 10.2676L85.5992 10.3655L85.6216 10.4634L85.6439 10.5613L85.6663 10.6592L85.6886 10.7572L85.711 10.8551L85.7333 10.953L85.7557 11.0509L85.778 11.1488L85.8004 11.2468L85.8227 11.3447L85.8451 11.4426L85.8674 11.5405L85.8898 11.6384L85.9121 11.7364L85.9345 11.8343L85.9568 11.9322L85.9792 12.0301L86.0015 12.128L86.0239 12.2259L86.0462 12.3239L86.0686 12.4218L86.0909 12.5197L86.1133 12.6176L86.1356 12.7155L86.158 12.8135L86.1803 12.9114L86.2027 13.0093L86.225 13.1072L86.2474 13.2051L86.2697 13.303L86.2921 13.401L86.3144 13.4989Z" fill="#FF6800" stroke="black" stroke-width="0.153002" stroke-miterlimit="100" stroke-linejoin="round"/>
</g>
</g>
<g opacity="0.938">
<mask id="mask15_5932_34114" style="mask-type:luminance" maskUnits="userSpaceOnUse" x="75" y="2" width="23" height="23">
<path d="M86.3144 24.7936C89.311 24.7936 92.1852 23.603 94.3041 21.4841C96.423 19.3652 97.6135 16.491 97.6135 13.4944C97.6135 10.4979 96.423 7.62364 94.3041 5.50475C92.1852 3.38586 89.311 2.19531 86.3144 2.19531C83.3178 2.19531 80.4436 3.38586 78.3247 5.50475C76.2058 7.62364 75.0153 10.4979 75.0153 13.4944C75.0153 16.491 76.2058 19.3652 78.3247 21.4841C80.4436 23.603 83.3178 24.7936 86.3144 24.7936Z" fill="white"/>
</mask>
<g mask="url(#mask15_5932_34114)">
<path opacity="0.6" d="M86.3144 13.4965L86.2279 13.5122L86.1414 13.5279L86.055 13.5436L85.9685 13.5593L85.882 13.575L85.7956 13.5907L85.7091 13.6064L85.6226 13.6221L85.5362 13.6378L85.4497 13.6535L85.3632 13.6692L85.2768 13.6848L85.1903 13.7005L85.1038 13.7162L85.0173 13.7319L84.9309 13.7476L84.8444 13.7633L84.7579 13.779L84.6715 13.7947L84.585 13.8104L84.4985 13.8261L84.4121 13.8418L84.3256 13.8575L84.2391 13.8732L84.1526 13.8889L84.0662 13.9046L83.9797 13.9202L83.8932 13.9359L83.8068 13.9516L83.7203 13.9673L83.6338 13.983L83.5474 13.9987L83.4609 14.0144L83.3744 14.0301L83.2879 14.0458L83.2015 14.0615L83.115 14.0772L83.0285 14.0929L82.9421 14.1086L82.8556 14.1243L82.7691 14.14L82.6827 14.1556L82.5962 14.1713L82.5097 14.187L82.4232 14.2027L82.3368 14.2184L82.2503 14.2341L82.1638 14.2498L82.0774 14.2655L81.9909 14.2812L81.9044 14.2969L81.818 14.3126L81.7315 14.3283L81.645 14.344L81.5585 14.3597L81.4721 14.3753L81.3856 14.391L81.2991 14.4067L81.2127 14.4224L81.1262 14.4381L81.0397 14.4538L80.9533 14.4695L80.8668 14.4852L80.7803 14.5009L80.6939 14.5166L80.6074 14.5323L80.5209 14.548L80.4344 14.5637L80.348 14.5794L80.2615 14.5951L80.175 14.6107L80.0886 14.6264L80.0021 14.6421L79.9156 14.6578L79.8292 14.6735L79.7427 14.6892L79.6562 14.7049L79.5697 14.7206L79.4833 14.7363L79.3968 14.752L79.3103 14.7677L79.2239 14.7834L79.1374 14.7991L79.0509 14.8148L78.9645 14.8305L78.878 14.8461L78.7915 14.8618L78.705 14.8775L78.6186 14.8932L78.5321 14.9089L78.4456 14.9246L78.3592 14.9403L78.2727 14.956L78.1862 14.9717L78.0998 14.9874L78.0133 15.0031L77.9268 15.0188L77.8403 15.0345L77.7539 15.0502L77.6674 15.0659L77.6577 15.0115L77.6484 14.9571L77.6394 14.9026L77.6307 14.8481L77.6224 14.7935L77.6144 14.7388L77.6068 14.6841L77.5995 14.6294L77.5925 14.5746L77.5859 14.5198L77.5797 14.4649L77.5738 14.41L77.5682 14.3551L77.563 14.3001L77.5581 14.2451L77.5536 14.1901L77.5494 14.135L77.5456 14.08L77.5421 14.0249L77.5389 13.9697L77.5361 13.9146L77.5337 13.8594L77.5316 13.8042L77.5298 13.749L77.5284 13.6938L77.5273 13.6386L77.5266 13.5834L77.5263 13.5282L77.5262 13.473L77.5266 13.4178L77.5272 13.3626L77.5282 13.3074L77.5296 13.2522L77.5313 13.197L77.5334 13.1418L77.5358 13.0866L77.5386 13.0315L77.5416 12.9763L77.5451 12.9212L77.5489 12.8661L77.553 12.8111L77.5575 12.756L77.5623 12.701L77.5675 12.6461L77.573 12.5911L77.5789 12.5362L77.5851 12.4813L77.5916 12.4265L77.5985 12.3717L77.6058 12.317L77.6133 12.2623L77.6213 12.2076L77.6295 12.153L77.6382 12.0985L77.6471 12.044L77.6564 11.9896L77.6661 11.9352L77.676 11.8809L77.6864 11.8267L77.697 11.7725L77.708 11.7184L77.7194 11.6643L77.731 11.6104L77.7431 11.5565L77.7554 11.5027L77.7681 11.4489L77.7812 11.3953L77.7945 11.3417L77.8082 11.2882L77.8223 11.2348L77.8367 11.1815L77.8514 11.1283L77.8664 11.0751L77.8818 11.0221L77.8975 10.9692L77.9136 10.9163L77.9299 10.8636L77.9467 10.811L77.9637 10.7585L77.9811 10.706L77.9988 10.6537L78.0168 10.6015L78.0351 10.5495L78.0538 10.4975L78.0728 10.4457L78.0922 10.3939L78.1118 10.3423L78.1318 10.2909L78.1521 10.2395L78.1727 10.1883L78.1937 10.1372L78.215 10.0862L78.2365 10.0354L78.2584 9.98473L78.2807 9.93418L78.3032 9.88378L78.3261 9.83351L78.3492 9.78339L78.3727 9.73342L78.3965 9.68359L78.4757 9.72172L78.5549 9.75985L78.6341 9.79799L78.7132 9.83612L78.7924 9.87425L78.8716 9.91238L78.9508 9.95051L79.03 9.98864L79.1091 10.0268L79.1883 10.0649L79.2675 10.103L79.3467 10.1412L79.4259 10.1793L79.505 10.2174L79.5842 10.2556L79.6634 10.2937L79.7426 10.3318L79.8218 10.3699L79.9009 10.4081L79.9801 10.4462L80.0593 10.4843L80.1385 10.5225L80.2177 10.5606L80.2968 10.5987L80.376 10.6369L80.4552 10.675L80.5344 10.7131L80.6135 10.7513L80.6927 10.7894L80.7719 10.8275L80.8511 10.8656L80.9303 10.9038L81.0094 10.9419L81.0886 10.98L81.1678 11.0182L81.247 11.0563L81.3262 11.0944L81.4053 11.1326L81.4845 11.1707L81.5637 11.2088L81.6429 11.2469L81.7221 11.2851L81.8012 11.3232L81.8804 11.3613L81.9596 11.3995L82.0388 11.4376L82.1179 11.4757L82.1971 11.5139L82.2763 11.552L82.3555 11.5901L82.4347 11.6283L82.5138 11.6664L82.593 11.7045L82.6722 11.7426L82.7514 11.7808L82.8306 11.8189L82.9097 11.857L82.9889 11.8952L83.0681 11.9333L83.1473 11.9714L83.2265 12.0096L83.3056 12.0477L83.3848 12.0858L83.464 12.124L83.5432 12.1621L83.6223 12.2002L83.7015 12.2383L83.7807 12.2765L83.8599 12.3146L83.9391 12.3527L84.0182 12.3909L84.0974 12.429L84.1766 12.4671L84.2558 12.5053L84.335 12.5434L84.4141 12.5815L84.4933 12.6197L84.5725 12.6578L84.6517 12.6959L84.7309 12.734L84.81 12.7722L84.8892 12.8103L84.9684 12.8484L85.0476 12.8866L85.1268 12.9247L85.2059 12.9628L85.2851 13.001L85.3643 13.0391L85.4435 13.0772L85.5226 13.1153L85.6018 13.1535L85.681 13.1916L85.7602 13.2297L85.8394 13.2679L85.9185 13.306L85.9977 13.3441L86.0769 13.3823L86.1561 13.4204L86.2353 13.4585L86.3144 13.4965Z" fill="#FFC400" stroke="black" stroke-width="0.153002" stroke-miterlimit="100" stroke-linejoin="round"/>
</g>
</g>
<mask id="mask16_5932_34114" style="mask-type:luminance" maskUnits="userSpaceOnUse" x="75" y="2" width="23" height="23">
<path d="M86.3144 24.7936C89.311 24.7936 92.1852 23.603 94.3041 21.4841C96.423 19.3652 97.6135 16.491 97.6135 13.4944C97.6135 10.4979 96.423 7.62364 94.3041 5.50475C92.1852 3.38586 89.311 2.19531 86.3144 2.19531C83.3178 2.19531 80.4436 3.38586 78.3247 5.50475C76.2058 7.62364 75.0153 10.4979 75.0153 13.4944C75.0153 16.491 76.2058 19.3652 78.3247 21.4841C80.4436 23.603 83.3178 24.7936 86.3144 24.7936Z" fill="white"/>
</mask>
<g mask="url(#mask16_5932_34114)">
<path opacity="0.6" d="M86.3144 13.4961L86.2731 13.5247L86.2318 13.5533L86.1905 13.5819L86.1493 13.6105L86.108 13.6391L86.0667 13.6677L86.0254 13.6963L85.9841 13.7249L85.9429 13.7535L85.9016 13.7821L85.8603 13.8107L85.819 13.8393L85.7777 13.8679L85.7365 13.8965L85.6952 13.9251L85.6539 13.9537L85.6126 13.9822L85.5713 14.0108L85.5301 14.0394L85.4888 14.068L85.4475 14.0966L85.4062 14.1252L85.3649 14.1538L85.3237 14.1824L85.2824 14.211L85.2411 14.2396L85.1998 14.2682L85.1586 14.2968L85.1173 14.3254L85.076 14.354L85.0347 14.3826L84.9934 14.4112L84.9522 14.4398L84.9109 14.4684L84.8696 14.497L84.8283 14.5256L84.787 14.5542L84.7458 14.5828L84.7045 14.6114L84.6632 14.64L84.6219 14.6686L84.5806 14.6972L84.5394 14.7258L84.4981 14.7544L84.4568 14.783L84.4155 14.8116L84.3742 14.8402L84.333 14.8688L84.2917 14.8974L84.2504 14.926L84.2091 14.9546L84.1678 14.9832L84.1266 15.0118L84.0853 15.0404L84.044 15.069L84.0027 15.0976L83.9614 15.1262L83.9202 15.1547L83.8789 15.1833L83.8376 15.2119L83.7963 15.2405L83.755 15.2691L83.7138 15.2977L83.6725 15.3263L83.6312 15.3549L83.5899 15.3835L83.5486 15.4121L83.5074 15.4407L83.4661 15.4693L83.4248 15.4979L83.3835 15.5265L83.3422 15.5551L83.301 15.5837L83.2597 15.6123L83.2184 15.6409L83.1771 15.6695L83.1359 15.6981L83.0946 15.7267L83.0533 15.7553L83.012 15.7839L82.9707 15.8125L82.9295 15.8411L82.8882 15.8697L82.8469 15.8983L82.8056 15.9269L82.7643 15.9555L82.7231 15.9841L82.6818 16.0127L82.6405 16.0413L82.5992 16.0699L82.5579 16.0985L82.5167 16.1271L82.4754 16.1557L82.4341 16.1843L82.3928 16.2129L82.3515 16.2414L82.3103 16.27L82.269 16.2986L82.2277 16.3272L82.1864 16.3558L82.1819 16.3493L82.1775 16.3429L82.173 16.3364L82.1685 16.3298L82.1641 16.3233L82.1596 16.3168L82.1552 16.3103L82.1508 16.3037L82.1464 16.2972L82.142 16.2906L82.1376 16.2841L82.1333 16.2775L82.1289 16.271L82.1245 16.2644L82.1202 16.2578L82.1159 16.2512L82.1115 16.2446L82.1072 16.238L82.1029 16.2314L82.0986 16.2248L82.0943 16.2181L82.0901 16.2115L82.0858 16.2049L82.0816 16.1982L82.0773 16.1916L82.0731 16.1849L82.0689 16.1782L82.0647 16.1716L82.0605 16.1649L82.0563 16.1582L82.0521 16.1515L82.0479 16.1448L82.0438 16.1381L82.0396 16.1314L82.0355 16.1247L82.0314 16.1179L82.0273 16.1112L82.0232 16.1045L82.0191 16.0977L82.015 16.091L82.0109 16.0842L82.0069 16.0775L82.0028 16.0707L81.9988 16.0639L81.9947 16.0571L81.9907 16.0504L81.9867 16.0436L81.9827 16.0368L81.9787 16.0299L81.9748 16.0231L81.9708 16.0163L81.9668 16.0095L81.9629 16.0027L81.959 15.9958L81.9551 15.989L81.9511 15.9821L81.9472 15.9753L81.9434 15.9684L81.9395 15.9615L81.9356 15.9547L81.9318 15.9478L81.9279 15.9409L81.9241 15.934L81.9202 15.9271L81.9164 15.9202L81.9126 15.9133L81.9088 15.9064L81.9051 15.8994L81.9013 15.8925L81.8975 15.8856L81.8938 15.8786L81.89 15.8717L81.8863 15.8647L81.8826 15.8578L81.8789 15.8508L81.8752 15.8438L81.8715 15.8369L81.8679 15.8299L81.8642 15.8229L81.8605 15.8159L81.8569 15.8089L81.8533 15.8019L81.8497 15.7949L81.8461 15.7879L81.8425 15.7809L81.8389 15.7738L81.8353 15.7668L81.8317 15.7598L81.8282 15.7527L81.8247 15.7457L81.8211 15.7386L81.8176 15.7315L81.8141 15.7245L81.8106 15.7174L81.8071 15.7103L81.8037 15.7032L81.8002 15.6962L81.7967 15.6891L81.7933 15.682L81.7899 15.6749L81.8351 15.6531L81.8804 15.6313L81.9256 15.6095L81.9709 15.5877L82.0161 15.5659L82.0613 15.5441L82.1066 15.5223L82.1518 15.5005L82.1971 15.4788L82.2423 15.457L82.2876 15.4352L82.3328 15.4134L82.3781 15.3916L82.4233 15.3698L82.4685 15.348L82.5138 15.3262L82.559 15.3044L82.6043 15.2827L82.6495 15.2609L82.6948 15.2391L82.74 15.2173L82.7853 15.1955L82.8305 15.1737L82.8758 15.1519L82.921 15.1301L82.9662 15.1083L83.0115 15.0866L83.0567 15.0648L83.102 15.043L83.1472 15.0212L83.1925 14.9994L83.2377 14.9776L83.283 14.9558L83.3282 14.934L83.3735 14.9122L83.4187 14.8904L83.4639 14.8687L83.5092 14.8469L83.5544 14.8251L83.5997 14.8033L83.6449 14.7815L83.6902 14.7597L83.7354 14.7379L83.7807 14.7161L83.8259 14.6943L83.8711 14.6726L83.9164 14.6508L83.9616 14.629L84.0069 14.6072L84.0521 14.5854L84.0974 14.5636L84.1426 14.5418L84.1879 14.52L84.2331 14.4982L84.2784 14.4765L84.3236 14.4547L84.3688 14.4329L84.4141 14.4111L84.4593 14.3893L84.5046 14.3675L84.5498 14.3457L84.5951 14.3239L84.6403 14.3021L84.6856 14.2803L84.7308 14.2586L84.7761 14.2368L84.8213 14.215L84.8665 14.1932L84.9118 14.1714L84.957 14.1496L85.0023 14.1278L85.0475 14.106L85.0928 14.0842L85.138 14.0625L85.1833 14.0407L85.2285 14.0189L85.2737 13.9971L85.319 13.9753L85.3642 13.9535L85.4095 13.9317L85.4547 13.9099L85.5 13.8881L85.5452 13.8664L85.5905 13.8446L85.6357 13.8228L85.681 13.801L85.7262 13.7792L85.7714 13.7574L85.8167 13.7356L85.8619 13.7138L85.9072 13.692L85.9524 13.6703L85.9977 13.6485L86.0429 13.6267L86.0882 13.6049L86.1334 13.5831L86.1787 13.5613L86.2239 13.5395L86.2691 13.5177L86.3144 13.4961Z" fill="#29FFCE" stroke="black" stroke-width="0.153002" stroke-miterlimit="100" stroke-linejoin="round"/>
</g>
<g opacity="0.938">
<mask id="mask17_5932_34114" style="mask-type:luminance" maskUnits="userSpaceOnUse" x="75" y="2" width="23" height="23">
<path d="M86.3144 24.7936C89.311 24.7936 92.1852 23.603 94.3041 21.4841C96.423 19.3652 97.6135 16.491 97.6135 13.4944C97.6135 10.4979 96.423 7.62364 94.3041 5.50475C92.1852 3.38586 89.311 2.19531 86.3144 2.19531C83.3178 2.19531 80.4436 3.38586 78.3247 5.50475C76.2058 7.62364 75.0153 10.4979 75.0153 13.4944C75.0153 16.491 76.2058 19.3652 78.3247 21.4841C80.4436 23.603 83.3178 24.7936 86.3144 24.7936Z" fill="white"/>
</mask>
<g mask="url(#mask17_5932_34114)">
<path opacity="0.6" d="M86.3144 13.4961L86.3249 13.558L86.3354 13.6199L86.3459 13.6818L86.3564 13.7436L86.367 13.8055L86.3775 13.8674L86.388 13.9293L86.3985 13.9912L86.409 14.0531L86.4195 14.115L86.43 14.1768L86.4406 14.2387L86.4511 14.3006L86.4616 14.3625L86.4721 14.4244L86.4826 14.4863L86.4931 14.5482L86.5036 14.61L86.5141 14.6719L86.5247 14.7338L86.5352 14.7957L86.5457 14.8576L86.5562 14.9195L86.5667 14.9814L86.5772 15.0432L86.5877 15.1051L86.5983 15.167L86.6088 15.2289L86.6193 15.2908L86.6298 15.3527L86.6403 15.4146L86.6508 15.4764L86.6613 15.5383L86.6719 15.6002L86.6824 15.6621L86.6929 15.724L86.7034 15.7859L86.7139 15.8478L86.7244 15.9096L86.7349 15.9715L86.7454 16.0334L86.756 16.0953L86.7665 16.1572L86.777 16.2191L86.7875 16.281L86.798 16.3429L86.8085 16.4047L86.819 16.4666L86.8296 16.5285L86.8401 16.5904L86.8506 16.6523L86.8611 16.7142L86.8716 16.7761L86.8821 16.8379L86.8926 16.8998L86.9032 16.9617L86.9137 17.0236L86.9242 17.0855L86.9347 17.1474L86.9452 17.2093L86.9557 17.2711L86.9662 17.333L86.9767 17.3949L86.9873 17.4568L86.9978 17.5187L87.0083 17.5806L87.0188 17.6425L87.0293 17.7043L87.0398 17.7662L87.0503 17.8281L87.0609 17.89L87.0714 17.9519L87.0819 18.0138L87.0924 18.0757L87.1029 18.1375L87.1134 18.1994L87.1239 18.2613L87.1345 18.3232L87.145 18.3851L87.1555 18.447L87.166 18.5089L87.1765 18.5707L87.187 18.6326L87.1975 18.6945L87.208 18.7564L87.2186 18.8183L87.2291 18.8802L87.2396 18.9421L87.2501 19.004L87.2606 19.0658L87.2711 19.1277L87.2816 19.1896L87.2922 19.2515L87.3027 19.3134L87.3132 19.3753L87.3237 19.4372L87.3342 19.499L87.3447 19.5609L87.3552 19.6228L87.3658 19.6847L87.3414 19.6888L87.3171 19.6928L87.2928 19.6967L87.2684 19.7005L87.244 19.7041L87.2197 19.7078L87.1953 19.7113L87.1708 19.7147L87.1464 19.718L87.122 19.7212L87.0975 19.7243L87.0731 19.7274L87.0486 19.7303L87.0241 19.7331L86.9996 19.7359L86.9751 19.7385L86.9506 19.7411L86.926 19.7435L86.9015 19.7459L86.877 19.7481L86.8524 19.7503L86.8278 19.7523L86.8033 19.7543L86.7787 19.7562L86.7541 19.758L86.7295 19.7597L86.7049 19.7612L86.6803 19.7627L86.6557 19.7641L86.6311 19.7654L86.6065 19.7666L86.5818 19.7677L86.5572 19.7687L86.5326 19.7696L86.5079 19.7704L86.4833 19.7711L86.4586 19.7717L86.434 19.7722L86.4094 19.7726L86.3847 19.773L86.3601 19.7732L86.3354 19.7733L86.3107 19.7734L86.2861 19.7733L86.2615 19.7731L86.2368 19.7729L86.2122 19.7725L86.1875 19.7721L86.1629 19.7715L86.1382 19.7709L86.1136 19.7702L86.0889 19.7693L86.0643 19.7684L86.0397 19.7673L86.0151 19.7662L85.9904 19.765L85.9658 19.7637L85.9412 19.7623L85.9166 19.7608L85.892 19.7592L85.8674 19.7574L85.8428 19.7556L85.8183 19.7537L85.7937 19.7517L85.7691 19.7497L85.7446 19.7475L85.72 19.7452L85.6955 19.7428L85.671 19.7403L85.6464 19.7377L85.6219 19.7351L85.5974 19.7323L85.573 19.7295L85.5485 19.7265L85.524 19.7234L85.4996 19.7203L85.4751 19.717L85.4507 19.7137L85.4263 19.7102L85.4019 19.7067L85.3775 19.7031L85.3532 19.6993L85.3288 19.6955L85.3045 19.6916L85.2802 19.6876L85.2558 19.6835L85.2316 19.6793L85.2073 19.675L85.183 19.6706L85.1588 19.6661L85.1346 19.6615L85.1104 19.6568L85.0862 19.652L85.062 19.6472L85.0379 19.6422L85.0137 19.6372L84.9896 19.632L84.9656 19.6268L84.9415 19.6214L84.9174 19.616L84.9314 19.5548L84.9454 19.4936L84.9594 19.4324L84.9733 19.3712L84.9873 19.31L85.0013 19.2488L85.0152 19.1876L85.0292 19.1264L85.0432 19.0652L85.0571 19.004L85.0711 18.9428L85.0851 18.8816L85.099 18.8204L85.113 18.7592L85.127 18.698L85.1409 18.6368L85.1549 18.5756L85.1689 18.5144L85.1828 18.4532L85.1968 18.392L85.2108 18.3308L85.2247 18.2696L85.2387 18.2084L85.2527 18.1472L85.2666 18.086L85.2806 18.0248L85.2946 17.9636L85.3085 17.9024L85.3225 17.8412L85.3365 17.78L85.3505 17.7188L85.3644 17.6576L85.3784 17.5964L85.3924 17.5352L85.4063 17.474L85.4203 17.4128L85.4343 17.3516L85.4482 17.2904L85.4622 17.2292L85.4762 17.168L85.4901 17.1068L85.5041 17.0456L85.5181 16.9844L85.532 16.9232L85.546 16.862L85.56 16.8008L85.5739 16.7396L85.5879 16.6784L85.6019 16.6172L85.6158 16.556L85.6298 16.4948L85.6438 16.4336L85.6577 16.3724L85.6717 16.3112L85.6857 16.25L85.6996 16.1888L85.7136 16.1276L85.7276 16.0664L85.7416 16.0052L85.7555 15.944L85.7695 15.8828L85.7835 15.8216L85.7974 15.7604L85.8114 15.6992L85.8254 15.638L85.8393 15.5768L85.8533 15.5156L85.8673 15.4544L85.8812 15.3932L85.8952 15.332L85.9092 15.2708L85.9231 15.2096L85.9371 15.1484L85.9511 15.0872L85.965 15.026L85.979 14.9648L85.993 14.9036L86.0069 14.8424L86.0209 14.7812L86.0349 14.72L86.0488 14.6588L86.0628 14.5976L86.0768 14.5364L86.0907 14.4752L86.1047 14.414L86.1187 14.3528L86.1326 14.2916L86.1466 14.2304L86.1606 14.1692L86.1746 14.1081L86.1885 14.0469L86.2025 13.9857L86.2165 13.9245L86.2304 13.8633L86.2444 13.8021L86.2584 13.7409L86.2723 13.6797L86.2863 13.6185L86.3003 13.5573L86.3144 13.4961Z" fill="#7DFF7A" stroke="black" stroke-width="0.153002" stroke-miterlimit="100" stroke-linejoin="round"/>
</g>
</g>
<g opacity="0.938">
<mask id="mask18_5932_34114" style="mask-type:luminance" maskUnits="userSpaceOnUse" x="75" y="2" width="23" height="23">
<path d="M86.3144 24.7936C89.311 24.7936 92.1852 23.603 94.3041 21.4841C96.423 19.3652 97.6135 16.491 97.6135 13.4944C97.6135 10.4979 96.423 7.62364 94.3041 5.50475C92.1852 3.38586 89.311 2.19531 86.3144 2.19531C83.3178 2.19531 80.4436 3.38586 78.3247 5.50475C76.2058 7.62364 75.0153 10.4979 75.0153 13.4944C75.0153 16.491 76.2058 19.3652 78.3247 21.4841C80.4436 23.603 83.3178 24.7936 86.3144 24.7936Z" fill="white"/>
</mask>
<g mask="url(#mask18_5932_34114)">
<path opacity="0.6" d="M86.3144 13.4961L86.3936 13.5578L86.4728 13.6196L86.552 13.6813L86.6313 13.743L86.7105 13.8048L86.7897 13.8665L86.8689 13.9282L86.9482 13.99L87.0274 14.0517L87.1066 14.1135L87.1858 14.1752L87.265 14.2369L87.3443 14.2987L87.4235 14.3604L87.5027 14.4221L87.5819 14.4839L87.6612 14.5456L87.7404 14.6073L87.8196 14.6691L87.8988 14.7308L87.978 14.7926L88.0573 14.8543L88.1365 14.916L88.2157 14.9778L88.2949 15.0395L88.3742 15.1012L88.4534 15.163L88.5326 15.2247L88.6118 15.2864L88.691 15.3482L88.7703 15.4099L88.8495 15.4717L88.9287 15.5334L89.0079 15.5951L89.0872 15.6569L89.1664 15.7186L89.2456 15.7803L89.3248 15.8421L89.404 15.9038L89.4833 15.9655L89.5625 16.0273L89.6417 16.089L89.7209 16.1508L89.8002 16.2125L89.8794 16.2742L89.9586 16.336L90.0378 16.3977L90.117 16.4594L90.1963 16.5212L90.2755 16.5829L90.3547 16.6446L90.4339 16.7064L90.5132 16.7681L90.5924 16.8299L90.6716 16.8916L90.7508 16.9533L90.83 17.0151L90.9093 17.0768L90.9885 17.1385L91.0677 17.2003L91.1469 17.262L91.2262 17.3237L91.3054 17.3855L91.3846 17.4472L91.4638 17.509L91.543 17.5707L91.6223 17.6324L91.7015 17.6942L91.7807 17.7559L91.8599 17.8176L91.9392 17.8794L92.0184 17.9411L92.0976 18.0028L92.1768 18.0646L92.256 18.1263L92.3353 18.1881L92.4145 18.2498L92.4937 18.3115L92.5729 18.3733L92.6522 18.435L92.7314 18.4967L92.8106 18.5585L92.8898 18.6202L92.969 18.6819L93.0483 18.7437L93.1275 18.8054L93.2067 18.8672L93.2859 18.9289L93.3652 18.9906L93.4444 19.0524L93.5236 19.1141L93.6028 19.1758L93.682 19.2376L93.7613 19.2993L93.8405 19.361L93.9197 19.4228L93.9989 19.4845L94.0782 19.5463L94.1574 19.608L94.2366 19.6697L94.222 19.6884L94.2074 19.707L94.1928 19.7256L94.1781 19.7441L94.1633 19.7626L94.1485 19.7811L94.1337 19.7995L94.1188 19.8179L94.1039 19.8363L94.0889 19.8547L94.0739 19.873L94.0589 19.8912L94.0438 19.9095L94.0287 19.9276L94.0135 19.9458L93.9983 19.9639L93.983 19.982L93.9677 20.0001L93.9524 20.0181L93.937 20.0361L93.9216 20.054L93.9061 20.0719L93.8906 20.0898L93.875 20.1076L93.8594 20.1254L93.8438 20.1432L93.8281 20.1609L93.8124 20.1786L93.7966 20.1962L93.7808 20.2138L93.7649 20.2314L93.7491 20.2489L93.7331 20.2664L93.7171 20.2839L93.7011 20.3013L93.6851 20.3187L93.669 20.336L93.6528 20.3534L93.6367 20.3706L93.6205 20.3879L93.6042 20.4051L93.5879 20.4222L93.5716 20.4393L93.5552 20.4564L93.5388 20.4735L93.5223 20.4905L93.5058 20.5074L93.4893 20.5243L93.4727 20.5412L93.4561 20.5581L93.4394 20.5749L93.4227 20.5917L93.406 20.6084L93.3892 20.6251L93.3724 20.6417L93.3555 20.6583L93.3386 20.6749L93.3217 20.6914L93.3047 20.7079L93.2877 20.7244L93.2706 20.7408L93.2536 20.7572L93.2364 20.7735L93.2193 20.7898L93.2021 20.806L93.1848 20.8222L93.1675 20.8384L93.1502 20.8545L93.1329 20.8706L93.1155 20.8867L93.098 20.9027L93.0806 20.9186L93.0631 20.9346L93.0455 20.9504L93.0279 20.9663L93.0103 20.9821L92.9927 20.9978L92.975 21.0135L92.9572 21.0292L92.9395 21.0448L92.9217 21.0604L92.9038 21.076L92.8859 21.0915L92.868 21.1069L92.8501 21.1224L92.8321 21.1377L92.8141 21.1531L92.796 21.1684L92.7779 21.1836L92.7598 21.1988L92.7416 21.214L92.7234 21.2291L92.7052 21.2442L92.6869 21.2592L92.6686 21.2742L92.6502 21.2892L92.6319 21.3041L92.6134 21.3189L92.595 21.3338L92.5765 21.3485L92.5139 21.27L92.4513 21.1915L92.3886 21.113L92.326 21.0345L92.2634 20.9559L92.2008 20.8774L92.1382 20.7989L92.0755 20.7204L92.0129 20.6418L91.9503 20.5633L91.8877 20.4848L91.825 20.4063L91.7624 20.3277L91.6998 20.2492L91.6372 20.1707L91.5746 20.0922L91.5119 20.0136L91.4493 19.9351L91.3867 19.8566L91.3241 19.7781L91.2615 19.6995L91.1988 19.621L91.1362 19.5425L91.0736 19.464L91.011 19.3854L90.9484 19.3069L90.8857 19.2284L90.8231 19.1499L90.7605 19.0713L90.6979 18.9928L90.6352 18.9143L90.5726 18.8358L90.51 18.7572L90.4474 18.6787L90.3848 18.6002L90.3221 18.5217L90.2595 18.4431L90.1969 18.3646L90.1343 18.2861L90.0717 18.2076L90.009 18.129L89.9464 18.0505L89.8838 17.972L89.8212 17.8935L89.7585 17.8149L89.6959 17.7364L89.6333 17.6579L89.5707 17.5794L89.5081 17.5008L89.4454 17.4223L89.3828 17.3438L89.3202 17.2653L89.2576 17.1867L89.195 17.1082L89.1323 17.0297L89.0697 16.9512L89.0071 16.8727L88.9445 16.7941L88.8818 16.7156L88.8192 16.6371L88.7566 16.5586L88.694 16.48L88.6314 16.4015L88.5687 16.323L88.5061 16.2445L88.4435 16.1659L88.3809 16.0874L88.3183 16.0089L88.2556 15.9304L88.193 15.8518L88.1304 15.7733L88.0678 15.6948L88.0052 15.6163L87.9425 15.5377L87.8799 15.4592L87.8173 15.3807L87.7547 15.3022L87.692 15.2236L87.6294 15.1451L87.5668 15.0666L87.5042 14.9881L87.4416 14.9095L87.3789 14.831L87.3163 14.7525L87.2537 14.674L87.1911 14.5954L87.1285 14.5169L87.0658 14.4384L87.0032 14.3599L86.9406 14.2813L86.878 14.2028L86.8153 14.1243L86.7527 14.0458L86.6901 13.9672L86.6275 13.8887L86.5649 13.8102L86.5022 13.7317L86.4396 13.6531L86.377 13.5746L86.3144 13.4961Z" fill="#FF6800" stroke="black" stroke-width="0.153002" stroke-miterlimit="100" stroke-linejoin="round"/>
</g>
</g>
<path d="M86.3144 24.8053C89.3109 24.8053 92.1852 23.6147 94.3041 21.4959C96.423 19.377 97.6135 16.5027 97.6135 13.5062C97.6135 10.5096 96.423 7.63536 94.3041 5.51647C92.1852 3.39758 89.3109 2.20703 86.3144 2.20703C83.3178 2.20703 80.4436 3.39758 78.3247 5.51647C76.2058 7.63536 75.0153 10.5096 75.0153 13.5062C75.0153 16.5027 76.2058 19.377 78.3247 21.4959C80.4436 23.6147 83.3178 24.8053 86.3144 24.8053Z" stroke="#11557C" stroke-width="0.335684" stroke-miterlimit="100000" stroke-linecap="square"/>
<g opacity="0.938">
<path opacity="0.6" d="M86.3144 13.5117L86.2731 13.5403L86.2318 13.5689L86.1905 13.5975L86.1493 13.6261L86.108 13.6547L86.0667 13.6833L86.0254 13.7119L85.9841 13.7405L85.9429 13.7691L85.9016 13.7977L85.8603 13.8263L85.819 13.8549L85.7777 13.8835L85.7365 13.9121L85.6952 13.9407L85.6539 13.9693L85.6126 13.9979L85.5713 14.0265L85.5301 14.0551L85.4888 14.0837L85.4475 14.1123L85.4062 14.1409L85.3649 14.1695L85.3237 14.1981L85.2824 14.2267L85.2411 14.2552L85.1998 14.2838L85.1585 14.3124L85.1173 14.341L85.076 14.3696L85.0347 14.3982L84.9934 14.4268L84.9521 14.4554L84.9109 14.484L84.8696 14.5126L84.8283 14.5412L84.787 14.5698L84.7457 14.5984L84.7045 14.627L84.6632 14.6556L84.6219 14.6842L84.5806 14.7128L84.5394 14.7414L84.4981 14.77L84.4568 14.7986L84.4155 14.8272L84.3742 14.8558L84.333 14.8844L84.2917 14.913L84.2504 14.9416L84.2091 14.9702L84.1678 14.9988L84.1266 15.0274L84.0853 15.056L84.044 15.0846L84.0027 15.1132L83.9614 15.1418L83.9202 15.1704L83.8789 15.199L83.8376 15.2276L83.7963 15.2562L83.755 15.2848L83.7138 15.3134L83.6725 15.342L83.6312 15.3706L83.5899 15.3992L83.5486 15.4277L83.5074 15.4563L83.4661 15.4849L83.4248 15.5135L83.3835 15.5421L83.3422 15.5707L83.301 15.5993L83.2597 15.6279L83.2184 15.6565L83.1771 15.6851L83.1358 15.7137L83.0946 15.7423L83.0533 15.7709L83.012 15.7995L82.9707 15.8281L82.9294 15.8567L82.8882 15.8853L82.8469 15.9139L82.8056 15.9425L82.7643 15.9711L82.723 15.9997L82.6818 16.0283L82.6405 16.0569L82.5992 16.0855L82.5579 16.1141L82.5167 16.1427L82.4754 16.1713L82.4341 16.1999L82.3928 16.2285L82.3515 16.2571L82.3103 16.2857L82.269 16.3143L82.2277 16.3429L82.1864 16.3715L82.1819 16.365L82.1774 16.3585L82.173 16.352L82.1685 16.3455L82.1641 16.339L82.1596 16.3324L82.1552 16.3259L82.1508 16.3194L82.1464 16.3128L82.142 16.3063L82.1376 16.2997L82.1332 16.2932L82.1289 16.2866L82.1245 16.28L82.1202 16.2734L82.1158 16.2668L82.1115 16.2602L82.1072 16.2536L82.1029 16.247L82.0986 16.2404L82.0943 16.2338L82.0901 16.2271L82.0858 16.2205L82.0816 16.2138L82.0773 16.2072L82.0731 16.2005L82.0689 16.1939L82.0647 16.1872L82.0605 16.1805L82.0563 16.1738L82.0521 16.1671L82.0479 16.1604L82.0438 16.1537L82.0396 16.147L82.0355 16.1403L82.0314 16.1336L82.0273 16.1268L82.0232 16.1201L82.0191 16.1134L82.015 16.1066L82.0109 16.0999L82.0069 16.0931L82.0028 16.0863L81.9988 16.0795L81.9947 16.0728L81.9907 16.066L81.9867 16.0592L81.9827 16.0524L81.9787 16.0456L81.9748 16.0388L81.9708 16.0319L81.9668 16.0251L81.9629 16.0183L81.959 16.0114L81.955 16.0046L81.9511 15.9977L81.9472 15.9909L81.9433 15.984L81.9395 15.9772L81.9356 15.9703L81.9317 15.9634L81.9279 15.9565L81.9241 15.9496L81.9202 15.9427L81.9164 15.9358L81.9126 15.9289L81.9088 15.922L81.9051 15.9151L81.9013 15.9081L81.8975 15.9012L81.8938 15.8943L81.89 15.8873L81.8863 15.8804L81.8826 15.8734L81.8789 15.8664L81.8752 15.8595L81.8715 15.8525L81.8678 15.8455L81.8642 15.8385L81.8605 15.8315L81.8569 15.8245L81.8533 15.8175L81.8496 15.8105L81.846 15.8035L81.8424 15.7965L81.8389 15.7895L81.8353 15.7824L81.8317 15.7754L81.8282 15.7683L81.8246 15.7613L81.8211 15.7542L81.8176 15.7472L81.8141 15.7401L81.8106 15.733L81.8071 15.726L81.8036 15.7189L81.8002 15.7118L81.7967 15.7047L81.7933 15.6976L81.7899 15.6905L81.8351 15.6687L81.8804 15.6469L81.9256 15.6251L81.9708 15.6033L82.0161 15.5815L82.0613 15.5598L82.1066 15.538L82.1518 15.5162L82.1971 15.4944L82.2423 15.4726L82.2876 15.4508L82.3328 15.429L82.378 15.4072L82.4233 15.3854L82.4685 15.3636L82.5138 15.3419L82.559 15.3201L82.6043 15.2983L82.6495 15.2765L82.6948 15.2547L82.74 15.2329L82.7853 15.2111L82.8305 15.1893L82.8757 15.1675L82.921 15.1458L82.9662 15.124L83.0115 15.1022L83.0567 15.0804L83.102 15.0586L83.1472 15.0368L83.1925 15.015L83.2377 14.9932L83.283 14.9714L83.3282 14.9497L83.3734 14.9279L83.4187 14.9061L83.4639 14.8843L83.5092 14.8625L83.5544 14.8407L83.5997 14.8189L83.6449 14.7971L83.6902 14.7753L83.7354 14.7535L83.7806 14.7318L83.8259 14.71L83.8711 14.6882L83.9164 14.6664L83.9616 14.6446L84.0069 14.6228L84.0521 14.601L84.0974 14.5792L84.1426 14.5574L84.1879 14.5357L84.2331 14.5139L84.2783 14.4921L84.3236 14.4703L84.3688 14.4485L84.4141 14.4267L84.4593 14.4049L84.5046 14.3831L84.5498 14.3613L84.5951 14.3396L84.6403 14.3178L84.6856 14.296L84.7308 14.2742L84.776 14.2524L84.8213 14.2306L84.8665 14.2088L84.9118 14.187L84.957 14.1652L85.0023 14.1434L85.0475 14.1217L85.0928 14.0999L85.138 14.0781L85.1832 14.0563L85.2285 14.0345L85.2737 14.0127L85.319 13.9909L85.3642 13.9691L85.4095 13.9473L85.4547 13.9256L85.5 13.9038L85.5452 13.882L85.5905 13.8602L85.6357 13.8384L85.6809 13.8166L85.7262 13.7948L85.7714 13.773L85.8167 13.7512L85.8619 13.7295L85.9072 13.7077L85.9524 13.6859L85.9977 13.6641L86.0429 13.6423L86.0882 13.6205L86.1334 13.5987L86.1786 13.5769L86.2239 13.5551L86.2691 13.5334L86.3144 13.5117Z" stroke="black" stroke-width="0.153002" stroke-miterlimit="100" stroke-linejoin="round"/>
</g>
<path opacity="0.6" d="M86.3144 13.5117L86.3249 13.5736L86.3354 13.6355L86.3459 13.6974L86.3564 13.7593L86.3669 13.8211L86.3775 13.883L86.388 13.9449L86.3985 14.0068L86.409 14.0687L86.4195 14.1306L86.43 14.1925L86.4405 14.2544L86.4511 14.3162L86.4616 14.3781L86.4721 14.44L86.4826 14.5019L86.4931 14.5638L86.5036 14.6257L86.5141 14.6876L86.5247 14.7494L86.5352 14.8113L86.5457 14.8732L86.5562 14.9351L86.5667 14.997L86.5772 15.0589L86.5877 15.1208L86.5982 15.1826L86.6088 15.2445L86.6193 15.3064L86.6298 15.3683L86.6403 15.4302L86.6508 15.4921L86.6613 15.554L86.6718 15.6158L86.6824 15.6777L86.6929 15.7396L86.7034 15.8015L86.7139 15.8634L86.7244 15.9253L86.7349 15.9872L86.7454 16.049L86.756 16.1109L86.7665 16.1728L86.777 16.2347L86.7875 16.2966L86.798 16.3585L86.8085 16.4204L86.819 16.4822L86.8295 16.5441L86.8401 16.606L86.8506 16.6679L86.8611 16.7298L86.8716 16.7917L86.8821 16.8536L86.8926 16.9154L86.9031 16.9773L86.9137 17.0392L86.9242 17.1011L86.9347 17.163L86.9452 17.2249L86.9557 17.2868L86.9662 17.3487L86.9767 17.4105L86.9873 17.4724L86.9978 17.5343L87.0083 17.5962L87.0188 17.6581L87.0293 17.72L87.0398 17.7819L87.0503 17.8437L87.0608 17.9056L87.0714 17.9675L87.0819 18.0294L87.0924 18.0913L87.1029 18.1532L87.1134 18.2151L87.1239 18.2769L87.1344 18.3388L87.145 18.4007L87.1555 18.4626L87.166 18.5245L87.1765 18.5864L87.187 18.6483L87.1975 18.7101L87.208 18.772L87.2186 18.8339L87.2291 18.8958L87.2396 18.9577L87.2501 19.0196L87.2606 19.0815L87.2711 19.1433L87.2816 19.2052L87.2921 19.2671L87.3027 19.329L87.3132 19.3909L87.3237 19.4528L87.3342 19.5147L87.3447 19.5765L87.3552 19.6384L87.3657 19.7003L87.3414 19.7044L87.3171 19.7084L87.2928 19.7123L87.2684 19.7161L87.244 19.7198L87.2197 19.7234L87.1953 19.7269L87.1708 19.7303L87.1464 19.7336L87.122 19.7368L87.0975 19.74L87.0731 19.743L87.0486 19.7459L87.0241 19.7487L86.9996 19.7515L86.9751 19.7541L86.9506 19.7567L86.926 19.7591L86.9015 19.7615L86.8769 19.7637L86.8524 19.7659L86.8278 19.768L86.8033 19.7699L86.7787 19.7718L86.7541 19.7736L86.7295 19.7753L86.7049 19.7769L86.6803 19.7783L86.6557 19.7797L86.6311 19.781L86.6064 19.7822L86.5818 19.7833L86.5572 19.7843L86.5326 19.7852L86.5079 19.786L86.4833 19.7867L86.4586 19.7873L86.434 19.7878L86.4093 19.7883L86.3847 19.7886L86.36 19.7888L86.3354 19.789L86.3107 19.789L86.2861 19.7889L86.2614 19.7888L86.2368 19.7885L86.2121 19.7881L86.1875 19.7877L86.1629 19.7872L86.1382 19.7865L86.1136 19.7858L86.0889 19.785L86.0643 19.784L86.0397 19.783L86.015 19.7818L85.9904 19.7806L85.9658 19.7793L85.9412 19.7779L85.9166 19.7764L85.892 19.7748L85.8674 19.7731L85.8428 19.7713L85.8182 19.7693L85.7937 19.7674L85.7691 19.7653L85.7446 19.7631L85.72 19.7608L85.6955 19.7584L85.671 19.756L85.6464 19.7534L85.6219 19.7507L85.5974 19.7479L85.573 19.7451L85.5485 19.7421L85.524 19.7391L85.4996 19.7359L85.4751 19.7327L85.4507 19.7293L85.4263 19.7259L85.4019 19.7223L85.3775 19.7187L85.3532 19.715L85.3288 19.7111L85.3045 19.7072L85.2801 19.7032L85.2558 19.6991L85.2316 19.6949L85.2073 19.6906L85.183 19.6862L85.1588 19.6817L85.1346 19.6771L85.1104 19.6725L85.0862 19.6677L85.062 19.6628L85.0379 19.6578L85.0137 19.6528L84.9896 19.6476L84.9655 19.6424L84.9415 19.637L84.9174 19.6316L84.9314 19.5704L84.9454 19.5092L84.9593 19.448L84.9733 19.3868L84.9873 19.3256L85.0012 19.2644L85.0152 19.2032L85.0292 19.142L85.0432 19.0808L85.0571 19.0196L85.0711 18.9584L85.0851 18.8972L85.099 18.836L85.113 18.7748L85.127 18.7136L85.1409 18.6524L85.1549 18.5912L85.1689 18.53L85.1828 18.4688L85.1968 18.4076L85.2108 18.3464L85.2247 18.2852L85.2387 18.224L85.2527 18.1628L85.2666 18.1016L85.2806 18.0404L85.2946 17.9792L85.3085 17.918L85.3225 17.8568L85.3365 17.7956L85.3504 17.7344L85.3644 17.6732L85.3784 17.612L85.3923 17.5508L85.4063 17.4896L85.4203 17.4284L85.4343 17.3672L85.4482 17.306L85.4622 17.2448L85.4762 17.1836L85.4901 17.1224L85.5041 17.0612L85.5181 17L85.532 16.9388L85.546 16.8776L85.56 16.8164L85.5739 16.7552L85.5879 16.694L85.6019 16.6328L85.6158 16.5716L85.6298 16.5104L85.6438 16.4492L85.6577 16.388L85.6717 16.3268L85.6857 16.2656L85.6996 16.2044L85.7136 16.1432L85.7276 16.082L85.7415 16.0208L85.7555 15.9596L85.7695 15.8984L85.7834 15.8373L85.7974 15.7761L85.8114 15.7149L85.8253 15.6537L85.8393 15.5925L85.8533 15.5313L85.8673 15.4701L85.8812 15.4089L85.8952 15.3477L85.9092 15.2865L85.9231 15.2253L85.9371 15.1641L85.9511 15.1029L85.965 15.0417L85.979 14.9805L85.993 14.9193L86.0069 14.8581L86.0209 14.7969L86.0349 14.7357L86.0488 14.6745L86.0628 14.6133L86.0768 14.5521L86.0907 14.4909L86.1047 14.4297L86.1187 14.3685L86.1326 14.3073L86.1466 14.2461L86.1606 14.1849L86.1745 14.1237L86.1885 14.0625L86.2025 14.0013L86.2164 13.9401L86.2304 13.8789L86.2444 13.8177L86.2584 13.7565L86.2723 13.6953L86.2863 13.6341L86.3003 13.5729L86.3144 13.5117Z" stroke="black" stroke-width="0.153002" stroke-miterlimit="100" stroke-linejoin="round"/>
<path opacity="0.6" d="M86.3144 13.5117L86.3936 13.5735L86.4728 13.6352L86.552 13.6969L86.6312 13.7587L86.7105 13.8204L86.7897 13.8821L86.8689 13.9439L86.9481 14.0056L87.0274 14.0673L87.1066 14.1291L87.1858 14.1908L87.265 14.2526L87.3442 14.3143L87.4235 14.376L87.5027 14.4378L87.5819 14.4995L87.6611 14.5612L87.7404 14.623L87.8196 14.6847L87.8988 14.7464L87.978 14.8082L88.0572 14.8699L88.1365 14.9317L88.2157 14.9934L88.2949 15.0551L88.3741 15.1169L88.4534 15.1786L88.5326 15.2403L88.6118 15.3021L88.691 15.3638L88.7702 15.4255L88.8495 15.4873L88.9287 15.549L89.0079 15.6108L89.0871 15.6725L89.1664 15.7342L89.2456 15.796L89.3248 15.8577L89.404 15.9194L89.4832 15.9812L89.5625 16.0429L89.6417 16.1046L89.7209 16.1664L89.8001 16.2281L89.8794 16.2899L89.9586 16.3516L90.0378 16.4133L90.117 16.4751L90.1962 16.5368L90.2755 16.5985L90.3547 16.6603L90.4339 16.722L90.5131 16.7837L90.5924 16.8455L90.6716 16.9072L90.7508 16.969L90.83 17.0307L90.9092 17.0924L90.9885 17.1542L91.0677 17.2159L91.1469 17.2776L91.2261 17.3394L91.3054 17.4011L91.3846 17.4628L91.4638 17.5246L91.543 17.5863L91.6222 17.6481L91.7015 17.7098L91.7807 17.7715L91.8599 17.8333L91.9391 17.895L92.0184 17.9567L92.0976 18.0185L92.1768 18.0802L92.256 18.1419L92.3352 18.2037L92.4145 18.2654L92.4937 18.3272L92.5729 18.3889L92.6521 18.4506L92.7314 18.5124L92.8106 18.5741L92.8898 18.6358L92.969 18.6976L93.0482 18.7593L93.1275 18.821L93.2067 18.8828L93.2859 18.9445L93.3651 19.0062L93.4444 19.068L93.5236 19.1297L93.6028 19.1915L93.682 19.2532L93.7612 19.3149L93.8405 19.3767L93.9197 19.4384L93.9989 19.5001L94.0781 19.5619L94.1574 19.6236L94.2366 19.6853L94.222 19.704L94.2074 19.7226L94.1927 19.7412L94.178 19.7597L94.1633 19.7782L94.1485 19.7967L94.1337 19.8152L94.1188 19.8336L94.1039 19.8519L94.0889 19.8703L94.0739 19.8886L94.0589 19.9068L94.0438 19.9251L94.0287 19.9433L94.0135 19.9614L93.9983 19.9796L93.983 19.9976L93.9677 20.0157L93.9523 20.0337L93.937 20.0517L93.9215 20.0696L93.9061 20.0875L93.8905 20.1054L93.875 20.1232L93.8594 20.141L93.8437 20.1588L93.8281 20.1765L93.8123 20.1942L93.7966 20.2118L93.7808 20.2294L93.7649 20.247L93.749 20.2646L93.7331 20.2821L93.7171 20.2995L93.7011 20.3169L93.6851 20.3343L93.669 20.3517L93.6528 20.369L93.6366 20.3863L93.6204 20.4035L93.6042 20.4207L93.5879 20.4378L93.5715 20.455L93.5552 20.472L93.5387 20.4891L93.5223 20.5061L93.5058 20.523L93.4892 20.54L93.4727 20.5569L93.456 20.5737L93.4394 20.5905L93.4227 20.6073L93.4059 20.624L93.3892 20.6407L93.3723 20.6573L93.3555 20.674L93.3386 20.6905L93.3217 20.7071L93.3047 20.7235L93.2877 20.74L93.2706 20.7564L93.2535 20.7728L93.2364 20.7891L93.2192 20.8054L93.202 20.8217L93.1848 20.8379L93.1675 20.854L93.1502 20.8702L93.1328 20.8862L93.1154 20.9023L93.098 20.9183L93.0805 20.9343L93.063 20.9502L93.0455 20.9661L93.0279 20.9819L93.0103 20.9977L92.9926 21.0134L92.9749 21.0292L92.9572 21.0448L92.9394 21.0605L92.9216 21.0761L92.9038 21.0916L92.8859 21.1071L92.868 21.1226L92.85 21.138L92.8321 21.1534L92.814 21.1687L92.796 21.184L92.7779 21.1992L92.7597 21.2144L92.7416 21.2296L92.7234 21.2447L92.7051 21.2598L92.6869 21.2749L92.6686 21.2898L92.6502 21.3048L92.6318 21.3197L92.6134 21.3346L92.595 21.3494L92.5765 21.3642L92.5139 21.2857L92.4512 21.2071L92.3886 21.1286L92.326 21.0501L92.2634 20.9716L92.2008 20.893L92.1381 20.8145L92.0755 20.736L92.0129 20.6575L91.9503 20.5789L91.8876 20.5004L91.825 20.4219L91.7624 20.3434L91.6998 20.2648L91.6372 20.1863L91.5745 20.1078L91.5119 20.0293L91.4493 19.9507L91.3867 19.8722L91.3241 19.7937L91.2614 19.7152L91.1988 19.6366L91.1362 19.5581L91.0736 19.4796L91.0109 19.4011L90.9483 19.3225L90.8857 19.244L90.8231 19.1655L90.7605 19.087L90.6978 19.0084L90.6352 18.9299L90.5726 18.8514L90.51 18.7729L90.4474 18.6943L90.3847 18.6158L90.3221 18.5373L90.2595 18.4588L90.1969 18.3802L90.1343 18.3017L90.0716 18.2232L90.009 18.1447L89.9464 18.0661L89.8838 17.9876L89.8211 17.9091L89.7585 17.8306L89.6959 17.752L89.6333 17.6735L89.5707 17.595L89.508 17.5165L89.4454 17.4379L89.3828 17.3594L89.3202 17.2809L89.2576 17.2024L89.1949 17.1238L89.1323 17.0453L89.0697 16.9668L89.0071 16.8883L88.9444 16.8098L88.8818 16.7312L88.8192 16.6527L88.7566 16.5742L88.694 16.4957L88.6313 16.4171L88.5687 16.3386L88.5061 16.2601L88.4435 16.1816L88.3809 16.103L88.3182 16.0245L88.2556 15.946L88.193 15.8675L88.1304 15.7889L88.0677 15.7104L88.0051 15.6319L87.9425 15.5534L87.8799 15.4748L87.8173 15.3963L87.7546 15.3178L87.692 15.2393L87.6294 15.1607L87.5668 15.0822L87.5042 15.0037L87.4415 14.9252L87.3789 14.8466L87.3163 14.7681L87.2537 14.6896L87.1911 14.6111L87.1284 14.5325L87.0658 14.454L87.0032 14.3755L86.9406 14.297L86.8779 14.2184L86.8153 14.1399L86.7527 14.0614L86.6901 13.9829L86.6275 13.9043L86.5648 13.8258L86.5022 13.7473L86.4396 13.6688L86.377 13.5902L86.3144 13.5117Z" stroke="black" stroke-width="0.153002" stroke-miterlimit="100" stroke-linejoin="round"/>
</svg>
