<svg width="134" height="40" viewBox="0 0 134 40" fill="none" xmlns="http://www.w3.org/2000/svg">
<path d="M0.332913 24.5221C0.332913 19.6931 0.3352 14.8642 0.327196 10.0352C0.326625 9.76191 0.370072 9.66301 0.677064 9.66816C1.89588 9.68931 3.11585 9.68474 4.33467 9.67045C4.58678 9.66759 4.64967 9.7299 4.64909 9.98373C4.64109 15.8606 4.64281 21.7375 4.64281 27.6143C4.64281 31.4337 4.64052 35.2531 4.64795 39.0725C4.64852 39.3132 4.60622 39.3938 4.3421 39.3898C3.11356 39.3732 1.88445 39.3749 0.655912 39.3881C0.402086 39.3909 0.325481 39.3343 0.326053 39.0662C0.335772 34.2184 0.332913 29.37 0.332913 24.5221Z" fill="#575757"/>
<path d="M20.7767 14.8334C20.7767 9.99532 20.779 5.15719 20.7699 0.318497C20.7693 0.0492359 20.8476 -0.00221525 21.0986 7.14724e-05C22.3369 0.0126484 23.5751 0.0115051 24.8134 0.000643152C25.0243 -0.00107189 25.0809 0.0475209 25.0809 0.264187C25.0752 9.98846 25.0746 19.7122 25.0809 29.4364C25.0809 29.6674 25.014 29.7177 24.7945 29.716C23.5465 29.7057 22.2991 29.7051 21.0512 29.7165C20.8236 29.7188 20.7716 29.6548 20.7716 29.433C20.7785 24.5674 20.7767 19.7007 20.7767 14.8334Z" fill="#575757"/>
<path d="M75.85 14.1535C76.1244 13.7328 76.3588 13.368 76.6721 13.0673C78.4334 11.378 80.5018 10.8589 82.8256 11.5741C84.4326 12.0686 85.2513 13.3177 85.6555 14.8835C85.8641 15.6919 85.9133 16.5174 85.9139 17.3469C85.9167 19.9183 85.9127 22.4897 85.9196 25.0612C85.9201 25.2658 85.883 25.3356 85.6572 25.3321C84.6099 25.3173 83.562 25.3178 82.5141 25.3293C82.294 25.3316 82.23 25.2795 82.2305 25.0509C82.2374 22.4989 82.2345 19.9463 82.2277 17.3938C82.226 16.7815 82.1379 16.1801 81.9161 15.6044C81.6011 14.7875 80.9923 14.3553 80.1365 14.2438C78.0201 13.9683 75.9312 15.8365 75.9889 17.9254C76.0547 20.2951 75.9998 22.6675 76.0101 25.0389C76.0112 25.283 75.9432 25.3321 75.7117 25.3293C74.6644 25.3161 73.6165 25.319 72.5686 25.3276C72.3839 25.3293 72.3325 25.2824 72.3325 25.0937C72.3382 20.6941 72.3376 16.2939 72.3336 11.8942C72.3336 11.7193 72.3622 11.6501 72.5611 11.6524C73.5324 11.6638 74.5043 11.6633 75.4756 11.6524C75.6739 11.6501 75.7048 11.725 75.7134 11.8977C75.7494 12.6254 75.8003 13.3526 75.85 14.1535Z" fill="#575757"/>
<path d="M123.059 21.6916C123.925 22.1959 124.78 22.628 125.709 22.8893C126.794 23.1946 127.892 23.3335 129.008 23.0888C129.781 22.9196 130.222 22.4868 130.313 21.8711C130.394 21.3292 130.201 20.9216 129.741 20.6363C129.216 20.311 128.626 20.1572 128.037 20.0092C127.116 19.7771 126.183 19.5844 125.33 19.1437C124.31 18.6166 123.479 17.9025 123.098 16.7786C122.356 14.5925 123.428 12.4493 125.662 11.6672C127.507 11.0218 129.35 11.1619 131.18 11.749C131.705 11.9176 132.212 12.132 132.705 12.3795C132.851 12.4527 132.885 12.5213 132.841 12.6871C132.648 13.4097 132.475 14.1375 132.289 14.8841C131.506 14.4319 130.7 14.1014 129.838 13.9254C129.031 13.7607 128.219 13.6767 127.4 13.8356C127.137 13.8865 126.886 13.9705 126.659 14.1163C126.001 14.5405 125.925 15.3963 126.507 15.9211C126.951 16.3224 127.512 16.4899 128.074 16.634C129.179 16.917 130.294 17.1594 131.306 17.719C132.236 18.2335 133.019 18.891 133.392 19.928C134.046 21.7414 133.152 23.9972 131.388 24.9782C130.212 25.6322 128.93 25.8157 127.609 25.766C125.88 25.7002 124.259 25.232 122.742 24.3945C122.53 24.2773 122.449 24.1744 122.52 23.9149C122.718 23.19 122.877 22.456 123.059 21.6916Z" fill="#575757"/>
<path d="M11.5498 6.8208C11.5498 8.2117 11.5441 9.60203 11.5556 10.9929C11.5573 11.221 11.4927 11.2748 11.2714 11.273C10.0143 11.2622 8.75661 11.2622 7.49949 11.2736C7.27997 11.2759 7.23537 11.2124 7.23595 11.0032C7.24338 8.20313 7.24338 5.40247 7.23537 2.60238C7.2348 2.38629 7.29083 2.33426 7.50406 2.33598C8.77091 2.34627 10.0377 2.3457 11.3046 2.33655C11.5093 2.33483 11.5556 2.39772 11.5544 2.59266C11.5458 4.00128 11.5498 5.41104 11.5498 6.8208Z" fill="#575757"/>
<path d="M7.23996 25.1426C7.23996 23.7426 7.24396 22.3425 7.23539 20.9419C7.23425 20.7441 7.28284 20.6864 7.48579 20.6875C8.76235 20.6967 10.0389 20.6961 11.3149 20.6881C11.503 20.6869 11.5539 20.7373 11.5539 20.9253C11.5481 23.7449 11.5481 26.5638 11.5533 29.3833C11.5539 29.5657 11.511 29.6257 11.3172 29.6246C10.0406 29.6154 8.76406 29.6154 7.48807 29.6246C7.28856 29.6257 7.23425 29.572 7.23539 29.3719C7.24396 27.9621 7.23996 26.5524 7.23996 25.1426Z" fill="#575757"/>
<path d="M18.3168 14.1831C18.3168 15.582 18.3133 16.9809 18.3208 18.3798C18.3219 18.5702 18.2859 18.6394 18.0767 18.6376C16.8013 18.6273 15.5258 18.6285 14.2504 18.6371C14.0618 18.6382 14.0137 18.5856 14.0137 18.3992C14.0195 15.5729 14.02 12.7465 14.0132 9.91952C14.0126 9.71658 14.0886 9.692 14.2601 9.69257C15.5356 9.69828 16.811 9.7 18.0864 9.69142C18.275 9.69028 18.3219 9.74459 18.3208 9.92924C18.3133 11.347 18.3168 12.7648 18.3168 14.1831Z" fill="#575757"/>
<path d="M18.3168 32.5423C18.3168 33.9424 18.3128 35.3424 18.3213 36.7424C18.3225 36.938 18.2808 36.998 18.075 36.9963C16.7984 36.986 15.5218 36.9865 14.2458 36.9957C14.0526 36.9968 14.0143 36.9362 14.0143 36.7562C14.0195 33.9366 14.0195 31.1177 14.0143 28.2982C14.0137 28.1164 14.0549 28.0581 14.2464 28.0592C15.523 28.0683 16.7995 28.0689 18.0755 28.0586C18.2825 28.0569 18.3225 28.1187 18.3213 28.313C18.3128 29.7228 18.3168 31.1325 18.3168 32.5423Z" fill="#575757"/>
<path d="M16.1718 21.2307C16.8007 21.2307 17.4295 21.237 18.0578 21.2267C18.2442 21.2239 18.3242 21.2559 18.3225 21.4708C18.3122 22.7182 18.3133 23.9662 18.3219 25.2142C18.3231 25.4046 18.2659 25.4509 18.0824 25.4497C16.8058 25.4423 15.5293 25.4423 14.2533 25.4497C14.0652 25.4509 14.0143 25.3954 14.0155 25.2102C14.0229 23.9622 14.0235 22.7148 14.0149 21.4668C14.0137 21.2753 14.0732 21.2239 14.2579 21.2267C14.8953 21.2364 15.5333 21.2307 16.1718 21.2307Z" fill="#575757"/>
<path d="M9.3866 13.8863C10.0337 13.8863 10.6809 13.8915 11.328 13.8829C11.5012 13.8806 11.5573 13.9315 11.5561 14.1076C11.5498 15.3635 11.5504 16.6195 11.555 17.8755C11.5556 18.031 11.5121 18.0944 11.3457 18.0933C10.0417 18.0882 8.73832 18.0887 7.43432 18.0922C7.28568 18.0927 7.23652 18.0401 7.23709 17.8926C7.24109 16.6178 7.24281 15.3424 7.23595 14.0675C7.2348 13.8732 7.34399 13.8846 7.47376 13.8846C8.11119 13.8875 8.74861 13.8863 9.3866 13.8863Z" fill="#575757"/>
<path fill-rule="evenodd" clip-rule="evenodd" d="M40.9438 28.366V23.489C40.9702 23.5114 40.9893 23.5266 41.0039 23.5381C41.0224 23.5529 41.0335 23.5617 41.0427 23.5719C43.6456 26.5389 48.3185 26.3869 50.715 23.2575C52.665 20.7107 52.7513 16.6683 50.9128 13.9797C48.4603 10.3941 43.6816 10.6034 41.2514 13.1662C41.1305 13.2941 41.0175 13.4293 40.8949 13.576C40.8366 13.6457 40.7762 13.718 40.7117 13.7933C40.702 13.6235 40.6924 13.4574 40.6829 13.2939C40.658 12.8624 40.6341 12.4494 40.6117 12.036C40.599 11.8001 40.6029 11.7046 40.5583 11.6677C40.5147 11.6315 40.4244 11.6515 40.2264 11.6507C39.9162 11.6493 39.606 11.6503 39.2957 11.6513C38.7299 11.6532 38.164 11.655 37.5984 11.6421C37.3194 11.6353 37.2571 11.7119 37.2577 11.9857C37.2647 16.1782 37.2644 20.3707 37.2641 24.5632C37.264 25.446 37.2639 26.3289 37.2639 27.2118C37.2639 27.5475 37.2642 27.8832 37.2644 28.2189C37.2652 29.2259 37.2659 30.2327 37.2599 31.2399C37.2588 31.4382 37.3114 31.4965 37.5132 31.4948C38.5702 31.4851 39.6273 31.4834 40.6843 31.496C40.9061 31.4983 40.9507 31.4302 40.9484 31.2227C40.9405 30.5262 40.9417 29.8294 40.9429 29.1326C40.9434 28.8771 40.9438 28.6215 40.9438 28.366ZM47.3907 21.8218C48.2682 20.8899 48.5489 19.7317 48.562 18.4883C48.5706 17.9121 48.49 17.3489 48.3248 16.799C47.844 15.2017 46.5457 14.1018 45.0371 14.0086C43.2786 13.9 41.8614 14.7238 41.2074 16.3051C40.594 17.7874 40.5963 19.3018 41.2543 20.7682C42.3536 23.2167 45.5647 23.7603 47.3907 21.8218Z" fill="#575757"/>
<path fill-rule="evenodd" clip-rule="evenodd" d="M99.0231 13.1642V13.4934C98.9937 13.4666 98.9724 13.4481 98.9564 13.434C98.9334 13.414 98.9211 13.4032 98.911 13.3911C96.6232 10.6448 91.5146 10.2423 88.9901 14.0668C87.6798 16.0523 87.4265 18.2515 87.9639 20.5308C88.6871 23.5973 91.0144 25.5633 93.7825 25.6828C95.9383 25.776 97.7528 25.0368 99.1151 23.3126C99.1221 23.3037 99.1281 23.2927 99.1342 23.2814C99.1548 23.2436 99.1772 23.2027 99.2432 23.2251C99.254 23.4013 99.2653 23.5774 99.2766 23.7536C99.3061 24.2123 99.3355 24.6713 99.3558 25.1306C99.3632 25.2975 99.4238 25.3278 99.5753 25.3266C100.537 25.3204 101.5 25.3181 102.462 25.3278C102.648 25.3295 102.696 25.2803 102.696 25.0934C102.691 18.921 102.691 12.7491 102.697 6.57669C102.697 6.3606 102.621 6.33659 102.437 6.3383C101.389 6.34631 100.341 6.35031 99.2929 6.33602C99.0597 6.33316 99.0179 6.40633 99.0185 6.62071C99.0243 8.32801 99.0238 10.0356 99.0233 11.7431C99.0232 12.2168 99.0231 12.6905 99.0231 13.1642ZM92.7238 14.9987C91.7342 15.938 91.4181 17.1523 91.3912 18.47C91.4015 19.0817 91.4712 19.6842 91.6633 20.2685C92.1881 21.868 93.5076 22.9131 95.0842 22.9754C96.7507 23.0417 98.1404 22.1756 98.7693 20.6161C99.3495 19.1772 99.3501 17.7074 98.7384 16.2805C97.7025 13.8628 94.6075 13.2111 92.7238 14.9987Z" fill="#575757"/>
<path fill-rule="evenodd" clip-rule="evenodd" d="M65.9889 13.2372C65.9781 13.4085 65.9673 13.5798 65.9577 13.7512C65.9547 13.7526 65.9517 13.754 65.9487 13.7554C65.9299 13.7643 65.9108 13.7733 65.8926 13.7832C65.8872 13.7724 65.8824 13.7614 65.8775 13.7504C65.8669 13.7261 65.8563 13.702 65.8405 13.682C63.2068 10.3171 58.0674 10.4531 55.739 14.033C53.9868 16.7262 53.9439 19.6103 55.4343 22.4344C56.5336 24.517 58.3521 25.6398 60.7337 25.6821C62.8004 25.7187 64.5383 24.9606 65.8331 23.2993C65.8372 23.2939 65.8411 23.2877 65.8451 23.2813C65.8642 23.2501 65.8867 23.2137 65.9606 23.2387C65.9693 23.3988 65.9784 23.5595 65.9874 23.7207C66.0127 24.1709 66.0382 24.6248 66.0584 25.079C66.0658 25.2459 66.0949 25.3294 66.2985 25.3265C67.26 25.3139 68.2222 25.3151 69.1843 25.326C69.3804 25.3282 69.4158 25.2619 69.4158 25.0836C69.4113 20.6833 69.4107 16.2831 69.417 11.8829C69.4176 11.6851 69.3518 11.6497 69.1734 11.6514L69.1206 11.6518C68.2144 11.6597 67.3076 11.6676 66.4019 11.6474C66.1201 11.6411 66.0544 11.7291 66.0492 11.9938C66.0411 12.4084 66.015 12.8228 65.9889 13.2372ZM64.712 21.8226C65.5895 20.8925 65.877 19.7366 65.8856 18.4915C65.8982 17.9055 65.8153 17.3332 65.6444 16.7741C65.159 15.1837 63.851 14.0895 62.3401 14.0044C60.5924 13.906 59.1878 14.7281 58.5361 16.2979C57.9244 17.7706 57.9198 19.2735 58.5664 20.7342C59.66 23.2044 62.8763 23.7681 64.712 21.8226Z" fill="#575757"/>
<path fill-rule="evenodd" clip-rule="evenodd" d="M116.385 13.252C116.373 13.4366 116.361 13.6246 116.349 13.8174C116.319 13.7814 116.297 13.7564 116.28 13.7369C116.261 13.7147 116.248 13.6998 116.236 13.6842C113.763 10.4679 108.837 10.4702 106.365 13.6888C104.462 16.1676 104.304 20.0556 105.993 22.7539C108.277 26.4029 112.928 26.4664 115.553 24.0688C115.838 23.8081 116.08 23.508 116.348 23.1655C116.36 23.3607 116.373 23.5515 116.385 23.7391C116.414 24.2033 116.443 24.6484 116.461 25.0938C116.468 25.2744 116.51 25.335 116.7 25.3328C117.652 25.3219 118.605 25.3196 119.558 25.3316C119.77 25.3339 119.798 25.2601 119.798 25.0726C119.793 20.6816 119.794 16.2905 119.798 11.8994C119.798 11.7256 119.772 11.6536 119.571 11.6559C118.609 11.6673 117.647 11.6662 116.685 11.6565C116.502 11.6547 116.469 11.7142 116.462 11.8823C116.444 12.3317 116.415 12.7808 116.385 13.252ZM109.497 15.3691C108.768 16.2793 108.511 17.3449 108.508 18.7003C108.499 19.1319 108.594 19.7591 108.806 20.3679C109.338 21.8977 110.618 22.8959 112.15 22.9776C113.749 23.0628 115.128 22.2733 115.79 20.815C116.501 19.2491 116.507 17.6439 115.759 16.0952C114.57 13.6347 111.187 13.2568 109.497 15.3691Z" fill="#575757"/>
</svg>
