<svg width="122" height="36" viewBox="0 0 122 36" fill="none" xmlns="http://www.w3.org/2000/svg">
<g clip-path="url(#clip0_5932_33727)">
<path d="M114.471 18.1786C114.902 17.1857 115.291 16.2854 115.679 15.385C116.419 13.6644 117.153 11.9439 117.9 10.2233C118.381 9.11939 119.299 8.68154 120.261 9.07623C121.205 9.46474 121.544 10.4761 121.082 11.5615C119.127 16.1374 117.196 20.7256 115.198 25.2829C114.088 27.8237 112.09 29.2236 109.309 29.4641C108.187 29.5628 107.354 28.9153 107.268 27.9101C107.181 26.8863 107.866 26.1401 109.001 26.0168C110.789 25.8256 112.22 24.4812 112.516 22.7237C112.565 22.4523 112.417 22.2488 112.325 22.0268C110.845 18.561 109.358 15.1013 107.872 11.6355C107.619 11.0435 107.508 10.4576 107.829 9.85943C108.162 9.23657 108.692 8.92205 109.401 8.94672C110.172 8.97139 110.684 9.36607 110.986 10.0753C112.01 12.4742 113.046 14.8731 114.076 17.2721C114.181 17.5496 114.304 17.8086 114.471 18.1786Z" fill="#575757"/>
<path d="M34.393 22.9449C34.393 26.127 34.393 29.303 34.393 32.4852C34.393 34.0454 33.3816 35.1616 31.9632 35.1739C30.5387 35.1924 29.4533 34.0886 29.4533 32.5468C29.4409 26.1147 29.4409 19.6764 29.4533 13.2443C29.4594 11.7149 30.5633 10.5987 31.9817 10.6295C33.3816 10.6542 34.393 11.7457 34.3992 13.2566C34.393 16.4881 34.393 19.7134 34.393 22.9449Z" fill="#575757"/>
<path d="M14.776 22.9877C14.776 26.139 14.776 29.2903 14.776 32.4416C14.776 34.0573 13.7708 35.1735 12.3154 35.1797C10.86 35.1859 9.84244 34.0697 9.84244 32.4601C9.84244 26.0835 9.84244 19.7069 9.84244 13.3241C9.84244 11.7207 10.8785 10.6106 12.3339 10.6291C13.7646 10.6476 14.7698 11.7453 14.7698 13.3118C14.7822 16.5309 14.776 19.7624 14.776 22.9877Z" fill="#575757"/>
<path d="M89.3651 13.5132C89.3651 11.4411 89.3527 9.36904 89.3712 7.30311C89.3774 6.35341 89.9941 5.66888 90.8575 5.55787C91.7023 5.45303 92.4855 5.90939 92.7322 6.67409C92.8741 7.13044 92.8432 7.61146 92.7939 8.06781C92.7137 8.77701 92.9481 9.02369 93.6758 8.96819C94.5083 8.90035 95.3532 8.93735 96.1919 8.95585C97.2588 8.98052 97.9926 9.71439 97.9741 10.7134C97.9556 11.6755 97.2279 12.3785 96.1919 12.3908C95.2545 12.4032 94.3171 12.4093 93.3798 12.3908C92.9912 12.3847 92.8001 12.4648 92.8062 12.915C92.8309 14.9625 92.7754 17.0099 92.8247 19.0511C92.8741 21.1787 94.126 22.4244 96.2844 22.6156C97.3513 22.7143 98.0358 23.4667 97.968 24.478C97.9063 25.4339 97.1354 26.0938 96.0994 26.0753C92.4424 26.0136 89.4329 23.0226 89.3836 19.3595C89.3404 17.4046 89.3651 15.462 89.3651 13.5132Z" fill="#575757"/>
<path d="M65.425 15.809C65.425 13.0524 65.425 10.2958 65.425 7.53914C65.425 6.26258 66.0787 5.52872 67.1765 5.54722C68.2372 5.55955 68.8847 6.29958 68.8847 7.52064C68.8909 13.0339 68.8847 18.5471 68.8847 24.0665C68.8847 25.3061 68.1878 26.0893 67.121 26.077C66.0726 26.0646 65.425 25.3061 65.425 24.0912C65.4189 21.3222 65.425 18.5656 65.425 15.809Z" fill="#575757"/>
<path d="M101.335 15.7844C101.335 13.0525 101.341 10.3205 101.335 7.58859C101.335 7.00273 101.421 6.4662 101.865 6.02835C102.353 5.54733 102.939 5.44249 103.574 5.609C104.19 5.77551 104.597 6.19486 104.745 6.81772C104.813 7.1014 104.832 7.40358 104.832 7.69343C104.838 13.108 104.838 18.5226 104.832 23.9433C104.832 24.19 104.813 24.4367 104.77 24.6772C104.61 25.4974 103.931 26.0647 103.105 26.0709C102.297 26.0832 101.619 25.5775 101.421 24.7882C101.354 24.5045 101.347 24.2023 101.347 23.9125C101.335 21.199 101.335 18.4917 101.335 15.7844Z" fill="#575757"/>
<path d="M0.0246606 27.7847C0.0246606 26.2121 0.0184937 24.6334 0.0246606 23.0608C0.0308275 21.5191 1.07304 20.4214 2.50994 20.4337C3.94067 20.446 4.98288 21.5437 4.98288 23.0855C4.98905 26.2368 4.99521 29.3881 4.98288 32.5394C4.97671 34.0688 3.90366 35.185 2.48527 35.1788C1.06687 35.1727 0.0246606 34.0503 0.0184937 32.5147C0.0184937 30.936 0.0246606 29.3634 0.0246606 27.7847Z" fill="#575757"/>
<path d="M24.5691 27.799C24.5691 29.4024 24.5753 31.0058 24.5691 32.6092C24.5629 34.0708 23.5515 35.15 22.1763 35.1808C20.7703 35.2116 19.6664 34.1324 19.654 32.6524C19.6355 29.4209 19.6355 26.1956 19.654 22.9641C19.6602 21.4779 20.7518 20.4172 22.1763 20.4418C23.5639 20.4665 24.5629 21.521 24.5691 23.0011C24.5753 24.5922 24.5691 26.1956 24.5691 27.799Z" fill="#575757"/>
<path d="M1.85624 10.7583C2.65178 10.4622 3.35481 10.6472 3.99 11.1714C4.37852 12.3 4.18118 13.4532 4.14418 14.6003C4.13184 14.8839 3.89133 15.0689 3.68166 15.2354C3.00946 15.661 2.3126 15.6795 1.59106 15.365C2.26326 15.2169 2.36193 14.7853 2.2941 14.1562C2.21393 13.4039 2.25709 12.633 2.28176 11.8683C2.30026 11.4304 2.20159 11.0543 1.85624 10.7583Z" fill="#575757"/>
<path d="M3.83584 5.34607C3.18214 5.81475 2.47911 5.91959 1.72675 5.61124C2.2016 5.43857 2.34344 5.13639 2.30027 4.6122C2.2201 3.70566 2.26944 2.79295 2.28177 1.88025C2.28177 1.50406 2.30027 1.13405 2.63945 0.875035C3.09581 0.831867 3.49666 0.967539 3.83584 1.26355C4.01468 1.44856 4.10102 1.65207 4.08252 1.92341C4.02085 2.84846 4.02085 3.7735 4.08252 4.69237C4.10102 4.95755 4.02701 5.16722 3.83584 5.34607Z" fill="#575757"/>
<path d="M1.40607 5.47327C0.425531 5.06009 0.00617956 4.26455 0.0185134 3.26551C0.0308473 2.30347 0.444032 1.52643 1.40607 1.13792C1.85009 0.98991 1.93643 1.32293 1.95493 1.61277C2.0351 2.74132 2.0351 3.86987 1.95493 4.99225C1.93643 5.2821 1.85009 5.61511 1.40607 5.47327Z" fill="#575757"/>
<path d="M0.863375 14.9215C-0.493351 13.6819 -0.215839 11.7208 1.43073 10.9191C1.89942 10.7649 1.93026 11.135 1.94876 11.4063C2.01659 12.5102 2.02893 13.6141 1.94876 14.718C1.90559 15.384 1.71441 15.4086 0.863375 14.9215Z" fill="#575757"/>
<path d="M13.1479 1.01562C14.258 1.39798 14.8253 2.26751 14.776 3.49473C14.7328 4.54311 14.0298 5.38798 12.9999 5.63466C12.8766 4.33344 12.9321 3.02605 12.9506 1.72482C12.9567 1.47198 13.0061 1.2253 13.1479 1.01562Z" fill="#575757"/>
<path d="M21.4116 10.7653C21.6953 10.5371 22.016 10.6481 22.3305 10.6481C22.7128 10.7344 22.83 11.0181 22.8362 11.3635C22.8608 12.5228 22.867 13.6761 22.83 14.8354C22.8238 15.1191 22.7252 15.3658 22.4723 15.5261C21.9913 15.7481 21.5658 15.5631 21.1403 15.3596C21.3499 14.9526 21.3623 14.5148 21.3746 14.0707C21.3931 12.973 21.3006 11.863 21.4116 10.7653Z" fill="#575757"/>
<path d="M21.4116 10.7656C21.7693 12.1902 21.5041 13.6394 21.5658 15.0763C21.5781 15.3538 21.3438 15.3538 21.1403 15.36C20.7024 15.286 20.4742 14.9468 20.2152 14.6446C20.1659 13.5962 20.1351 12.554 20.2337 11.5057C20.5051 11.0678 20.9306 10.8766 21.4116 10.7656Z" fill="#575757"/>
<path d="M10.9093 1.30418C11.3348 0.915667 11.8467 0.798496 12.4079 0.872499C12.6299 1.10684 12.6422 1.40286 12.6422 1.69887C12.6545 2.72875 12.6669 3.75246 12.636 4.78234C12.6175 5.64571 12.5065 5.71971 11.6185 5.61487C11.3287 5.63337 11.1005 5.51004 10.9093 5.30653C11.2978 3.97447 11.304 2.63624 10.9093 1.30418Z" fill="#575757"/>
<path d="M10.9093 1.30469C11.2917 1.33552 11.3718 1.5822 11.3718 1.91521C11.3657 2.84026 11.3657 3.77146 11.3718 4.6965C11.3718 5.02335 11.2978 5.28236 10.9093 5.30703C9.42309 4.18465 9.42309 2.40857 10.9093 1.30469Z" fill="#575757"/>
<path d="M32.7033 1.00338C32.9438 1.01572 33.135 1.12055 33.3015 1.28706C33.3878 2.63145 33.3878 3.97585 33.3015 5.32024C33.135 5.49291 32.9438 5.59775 32.7033 5.60392C32.1668 5.80126 31.9016 5.57925 31.8769 5.04889C31.8337 3.90184 31.8152 2.76096 31.8892 1.61391C31.9139 1.14522 32.1421 0.824541 32.7033 1.00338Z" fill="#575757"/>
<path d="M23.8167 5.03604C23.4837 5.48622 23.0273 5.70207 22.4723 5.73907C22.5833 4.11716 22.5833 2.49526 22.4723 0.867188C22.9472 0.879521 23.3419 1.0707 23.6625 1.40988C23.8845 1.62572 24.0141 1.90323 24.0079 2.19925C23.9956 3.15512 24.2176 4.11716 23.8167 5.03604Z" fill="#575757"/>
<path d="M22.4723 15.5327C22.7807 14.2993 22.5525 13.0412 22.608 11.7955C22.6265 11.4008 22.756 10.9506 22.3305 10.6484C22.8485 10.6608 23.311 10.7964 23.6625 11.2035C23.8352 12.3813 23.6687 13.5654 23.7489 14.7433C23.7612 14.8975 23.6132 14.99 23.5145 15.101C23.2493 15.4401 22.8793 15.5265 22.4723 15.5327Z" fill="#575757"/>
<path d="M33.3015 5.32162C33.0548 5.14895 33.1288 4.88377 33.1288 4.65559C33.1226 3.76139 33.1226 2.86102 33.1288 1.96681C33.1288 1.73247 33.0609 1.47346 33.3015 1.30078C34.1587 1.72013 34.43 2.49717 34.4177 3.35437C34.4053 4.17457 34.134 4.92694 33.3015 5.32162Z" fill="#575757"/>
<path d="M32.7033 1.00022C32.2222 0.975548 32.0742 1.23456 32.0866 1.68475C32.1051 2.80713 32.1112 3.92334 32.0804 5.04573C32.0681 5.53291 32.2962 5.63775 32.6971 5.60692C32.1976 5.8536 31.698 5.83509 31.1924 5.61925C30.9827 4.75588 31.1369 3.88634 31.1369 3.02297C31.1369 2.35694 30.9518 1.67241 31.1985 1.01255C31.7042 0.778206 32.2037 0.759705 32.7033 1.00022Z" fill="#575757"/>
<path d="M22.4723 0.871567C22.6943 1.05658 22.7745 1.27859 22.7745 1.5746C22.756 2.72782 22.756 3.88103 22.7745 5.03425C22.7807 5.33026 22.6943 5.55227 22.4723 5.73728C22.1085 5.73728 21.7323 5.86062 21.4054 5.60778C21.7261 5.29943 21.831 4.92325 21.8186 4.47923C21.794 3.72069 21.794 2.96216 21.8186 2.20363C21.8371 1.69794 21.7138 1.29092 21.2821 1.00724C21.6521 0.729728 22.0715 0.883901 22.4723 0.871567Z" fill="#575757"/>
<path d="M20.9737 5.46167C20.6161 5.4 20.4249 5.13482 20.2275 4.87581C20.1412 3.82743 20.1535 2.78522 20.2214 1.73684C20.4187 1.47783 20.6161 1.21882 20.9676 1.15098C21.4363 1.00297 21.4733 1.37299 21.4918 1.64433C21.5658 2.74822 21.5596 3.85826 21.4918 4.96215C21.4733 5.23349 21.4424 5.60351 20.9737 5.46167Z" fill="#575757"/>
<path d="M11.6185 5.61454C12.2722 5.70088 12.4449 5.40486 12.4202 4.76967C12.3709 3.47461 12.4017 2.16722 12.4017 0.872164C12.6669 0.822828 12.9136 0.85983 13.1417 1.00784C13.1602 2.44473 13.1787 3.88163 13.1849 5.31853C13.1849 5.4172 13.0616 5.51587 12.9999 5.62071C12.5374 5.83655 12.081 5.84888 11.6185 5.61454Z" fill="#575757"/>
<path d="M0.863373 14.9197C0.999045 14.9629 1.14705 14.9875 1.27656 15.0554C1.61574 15.2342 1.76375 15.154 1.75758 14.7593C1.74524 13.637 1.75141 12.5146 1.75758 11.3922C1.75758 11.1517 1.72674 10.9482 1.4369 10.9112C1.54174 10.7632 1.70208 10.7508 1.86242 10.7508C2.38661 10.7077 2.52845 10.9605 2.50995 11.46C2.46678 12.4221 2.49761 13.3841 2.49144 14.3462C2.48528 14.6668 2.50378 14.9814 2.74429 15.3637C2.30644 15.3637 1.94875 15.3637 1.59107 15.3637C1.29506 15.3082 1.03605 15.1787 0.863373 14.9197Z" fill="#575757"/>
<path d="M1.40607 5.47327C1.74525 5.43627 1.75758 5.19576 1.75142 4.93058C1.74525 3.8452 1.74525 2.76599 1.75142 1.68061C1.75142 1.41543 1.73908 1.18109 1.3999 1.14408C1.79459 0.977577 2.20777 0.878906 2.63329 0.878906C2.36811 2.42681 2.47295 3.97471 2.58395 5.60895C2.35578 5.60895 2.04126 5.60895 1.72675 5.60895C1.59724 5.62128 1.48624 5.58428 1.40607 5.47327Z" fill="#575757"/>
<path d="M30.7545 5.45296C29.8233 5.05828 29.4533 4.25041 29.4471 3.3377C29.4348 2.39416 29.7925 1.56162 30.7545 1.14844C30.8408 2.58533 30.8408 4.01606 30.7545 5.45296Z" fill="#575757"/>
<path d="M20.9738 5.46143C21.2698 5.42443 21.2883 5.21476 21.2883 4.98041C21.2883 3.8642 21.2821 2.74181 21.2883 1.6256C21.2883 1.39126 21.2574 1.18158 20.9676 1.15075C21.0416 1.03974 21.1526 1.00274 21.2821 1.00891C21.8556 0.947236 22.053 1.20625 22.0406 1.77361C22.0098 2.84665 22.0098 3.91353 22.0406 4.98658C22.053 5.47377 21.868 5.65261 21.4116 5.60944C21.2389 5.62177 21.0786 5.60944 20.9738 5.46143Z" fill="#575757"/>
<path d="M3.83582 5.34423C3.97149 4.73987 3.78032 4.13551 3.81732 3.52498C3.86049 2.77262 3.83582 2.02025 3.83582 1.26172C5.38372 2.24226 5.38372 4.35752 3.83582 5.34423Z" fill="#575757"/>
<path d="M30.7545 5.4549C30.5942 5.21439 30.5387 4.99238 30.5695 4.65937C30.6497 3.75899 30.6497 2.84629 30.5695 1.94592C30.5387 1.6129 30.6065 1.39089 30.7607 1.15038C30.8717 0.99004 31.0382 0.996207 31.2047 1.00237C31.4329 2.53794 31.4514 4.07968 31.1985 5.61524C31.032 5.60908 30.8655 5.61524 30.7545 5.4549Z" fill="#575757"/>
<path d="M23.5145 15.1006C23.5145 14.2064 23.5207 13.3184 23.5022 12.4242C23.496 12.0048 23.5392 11.5978 23.6625 11.2031C25.0316 11.9925 24.7602 14.6443 23.5145 15.1006Z" fill="#575757"/>
<path d="M3.68167 15.2359C3.93452 14.9152 3.98385 14.5514 3.97768 14.1505C3.95918 13.1576 3.98385 12.1648 3.99002 11.1719C5.45158 12.3929 5.30358 14.354 3.68167 15.2359Z" fill="#575757"/>
<path d="M23.8167 5.03405C23.718 3.8315 23.9647 2.61045 23.6687 1.41406C24.8651 2.3576 24.9329 4.01034 23.8167 5.03405Z" fill="#575757"/>
<path d="M20.2214 1.73438C20.5112 2.77659 20.4989 3.82497 20.2276 4.87335C19.4259 3.96064 19.4259 2.72108 20.2214 1.73438Z" fill="#575757"/>
<path d="M20.2337 11.5039C20.4927 12.5523 20.5174 13.5945 20.2152 14.6429C19.4258 13.6993 19.432 12.4043 20.2337 11.5039Z" fill="#575757"/>
<path fill-rule="evenodd" clip-rule="evenodd" d="M48.32 16.8703C48.319 17.6513 48.318 18.4322 48.318 19.2125C48.318 22.0431 48.3118 24.8737 48.3057 27.6982C48.3118 28.765 49.0704 29.5112 50.0571 29.4866C51.0314 29.4619 51.7221 28.7342 51.7345 27.7043C51.7468 27.0198 51.753 26.3291 51.7345 25.6384C51.7283 25.2622 51.79 25.1389 52.1847 25.3424C52.5979 25.5582 53.0419 25.7309 53.4921 25.8481C57.7472 26.9458 61.8976 23.6465 62.0024 19.1015C62.0176 18.5134 62.0141 17.923 62.0106 17.3317C62.0084 16.9618 62.0062 16.5917 62.0086 16.2215C62.0579 11.0721 56.8592 7.16227 52.0058 9.75855C51.79 9.87572 51.642 9.95589 51.457 9.69688C50.9266 8.96301 50.1989 8.7595 49.3725 9.08635C48.5277 9.42553 48.3057 10.1471 48.3118 11.0104C48.325 12.9621 48.3225 14.9169 48.32 16.8703ZM58.5658 18.3533C58.5606 18.128 58.5557 17.9167 58.5674 17.7262C58.5674 17.4737 58.57 17.2431 58.5725 17.0273C58.5776 16.5843 58.582 16.2042 58.5612 15.8268C58.4687 14.0261 57.0565 12.5275 55.3729 12.4103C53.7264 12.2932 52.1908 13.5019 51.8824 15.2903C51.6296 16.7704 51.6296 18.2874 51.8886 19.7737C52.1723 21.4017 53.5413 22.5611 55.0461 22.6104C56.6186 22.6598 57.9815 21.5806 58.4379 19.9463C58.5899 19.3973 58.5771 18.8425 58.5658 18.3533Z" fill="#575757"/>
<path fill-rule="evenodd" clip-rule="evenodd" d="M85.5478 21.3226C85.9857 20.0892 86.0042 18.8188 85.9795 17.5361C85.9795 17.349 85.9815 17.1619 85.9834 16.9745C85.9864 16.6923 85.9894 16.4092 85.9857 16.1239C85.9302 14.0394 85.1963 12.2202 83.6731 10.7833C79.8187 7.15097 73.7505 9.13055 72.4986 14.4341C72.0792 16.2287 72.1594 18.0603 72.3629 19.8734C72.7206 23.0617 75.3107 25.6826 78.3448 26.0218C81.527 26.3856 84.4131 24.4924 85.5478 21.3226ZM75.766 16.7836C75.7757 17.0015 75.7854 17.2198 75.7854 17.4368C75.7669 17.4368 75.7484 17.4368 75.7299 17.4306C75.7299 17.6115 75.7286 17.7924 75.7272 17.9733C75.7245 18.3351 75.7217 18.6969 75.7299 19.0587C75.7793 21.0074 77.2778 22.5861 79.0848 22.6046C80.8793 22.6231 82.4334 21.0691 82.5074 19.1265C82.5506 18.0473 82.5506 16.9557 82.5074 15.8765C82.4334 14.0203 81.0212 12.5155 79.3006 12.4045C77.654 12.2997 76.1185 13.5577 75.8039 15.377C75.7236 15.8338 75.7447 16.308 75.766 16.7836Z" fill="#575757"/>
</g>
<defs>
<clipPath id="clip0_5932_33727">
<rect width="121.285" height="34.3437" fill="white" transform="translate(0 0.828125)"/>
</clipPath>
</defs>
</svg>
