<?xml version="1.0" encoding="UTF-8"?>
<svg xmlns="http://www.w3.org/2000/svg" width="105" height="46" viewBox="0 0 105 46" fill="none">
  <path d="M1.70486 35.0353C1.48557 34.5498 1.18767 34.1085 0.931141 33.6437C0.909074 33.6051 0.893903 33.561 0.875974 33.5196C0.73254 33.2589 0.584968 33.001 0.459463 32.7321C0.318787 32.4287 0.404296 32.2783 0.739436 32.2508C0.864941 32.2411 0.991825 32.2466 1.11871 32.2466C5.41346 32.2466 9.70822 32.2466 14.0016 32.2452C14.2388 32.2452 14.4884 32.2783 14.6815 32.0853C14.7353 32.0618 14.7891 32.0315 14.8291 32.1046C14.8622 32.2204 14.7863 32.3004 14.7326 32.3873C14.7146 32.4135 14.6926 32.4383 14.6705 32.4618C14.625 32.5073 14.5822 32.5556 14.5436 32.608C14.5229 32.6355 14.5022 32.6631 14.4829 32.6935C13.9754 33.7913 13.2665 34.7719 12.6859 35.8256C12.3811 36.3786 12.0983 36.9441 11.8101 37.5054C11.4956 38.115 11.1081 38.686 10.7647 39.2818C10.5233 39.6983 10.2502 40.0955 10.0406 40.53C9.59789 41.4526 9.07518 42.3284 8.5304 43.1931C8.24353 43.6469 7.96908 44.1117 7.7622 44.6123C7.68773 44.793 7.75944 44.8426 7.91253 44.8619C8.04907 44.8785 8.18837 44.8702 8.32628 44.8702C12.599 44.8702 16.8717 44.8688 21.1457 44.8744C21.3374 44.8744 21.565 44.7902 21.7126 45.0081C21.5484 45.1874 21.3167 45.1309 21.1319 45.1226C20.4437 45.0923 19.7569 45.1102 19.0687 45.1088C15.6842 45.1047 12.3011 45.1074 8.91657 45.1061C8.59522 45.1061 8.27663 45.1143 7.95667 45.1571C7.64221 45.1998 7.40637 45.0909 7.24777 44.7999C6.93883 44.2317 6.59128 43.6841 6.28235 43.1173C6.00789 42.6249 5.72102 42.1395 5.43001 41.6554C5.27831 41.2692 5.03833 40.9313 4.83835 40.5713C4.41356 39.7714 3.96257 38.9867 3.49641 38.2102C3.41918 38.126 3.40538 38.0033 3.32125 37.9233C3.10472 37.3951 2.77372 36.9289 2.49651 36.4352C2.26343 35.9511 1.97794 35.496 1.70486 35.0353Z" fill="#666666"></path>
  <path d="M14.7976 32.0699C14.5618 32.3058 14.2749 32.3541 13.9494 32.3527C9.55951 32.3444 5.16959 32.3472 0.779675 32.3472C0.756229 32.3472 0.734162 32.3458 0.710716 32.3472C0.451431 32.3568 0.397643 32.4561 0.523148 32.692C0.629344 32.8906 0.73692 33.0878 0.843117 33.2864C0.883113 33.3595 0.890009 33.4395 0.874838 33.5208C0.717612 33.4602 0.685891 33.2988 0.604519 33.1788C0.46936 32.9802 0.394884 32.7485 0.25145 32.5513C0.121808 32.3747 0.219729 32.1872 0.440397 32.1568C0.51901 32.1458 0.600382 32.1541 0.680374 32.1541C5.1558 32.1541 9.63123 32.1541 14.1067 32.1527C14.1301 32.1527 14.1535 32.1486 14.1756 32.1527C14.4777 32.2189 14.6487 32.0437 14.7687 31.8107C15.1976 30.9735 15.6789 30.1667 16.1409 29.3475C16.3478 28.982 16.5133 28.5917 16.7726 28.2593C16.8691 28.1352 16.8029 27.9241 17.0015 27.8662C17.0484 27.829 17.0967 27.8276 17.1491 27.8538C17.2346 28.0331 17.1091 28.1655 17.0291 28.291C16.5961 28.9654 16.2789 29.7033 15.8623 30.3874C15.5838 30.8439 15.2996 31.3017 15.0748 31.79C15.0197 31.9086 14.959 32.0451 14.7976 32.0699Z" fill="#A2A2A2"></path>
  <path d="M6.25195 1.80267C6.27126 1.61235 6.38573 1.46615 6.48779 1.31582C6.73053 0.957238 6.88775 0.549002 7.14428 0.195933C7.24496 0.0580152 7.33736 -0.00266855 7.50424 8.98051e-05C8.12487 0.00698569 8.7455 0.00146898 9.36613 0.00146898C13.2954 0.00146898 17.2247 0.00146898 21.154 0.00284816C21.8435 0.00284816 21.9111 0.03319 22.2159 0.623478C22.6504 1.46753 23.122 2.28814 23.5923 3.11151C23.8709 3.59836 24.1454 4.08935 24.4143 4.58309C24.4543 4.65757 24.4654 4.73342 24.464 4.81479C24.4985 4.87548 24.4971 4.9334 24.4488 4.98581C24.2888 4.98305 24.2543 4.8479 24.1923 4.7417C23.3965 3.34459 22.6062 1.94473 21.8284 0.536589C21.7056 0.313163 21.547 0.240066 21.3029 0.240066C16.7861 0.244204 12.2707 0.242825 7.75388 0.244204C7.59389 0.244204 7.42563 0.227654 7.32633 0.397293C7.0767 0.830354 6.77604 1.23583 6.57468 1.69786C6.54158 1.77371 6.48365 1.8275 6.4009 1.84957C6.34436 1.85646 6.29471 1.83991 6.25195 1.80267Z" fill="#A1A1A1"></path>
  <path d="M25.7177 7.02344C25.9439 7.11722 25.9908 7.3503 26.0832 7.53373C26.3673 8.09644 26.7562 8.60259 26.9741 9.19978C27.2569 9.44389 27.37 9.80662 27.5437 10.1128C27.7106 10.4079 27.8665 10.7265 28.0471 11.0134C28.3644 11.5182 28.5616 12.0919 28.9326 12.5622C29.0153 12.667 29.0167 12.7787 28.9795 12.8849C28.9367 13.0104 28.8084 12.9746 28.7119 12.9787C28.5519 12.9842 28.3906 12.9801 28.2306 12.9801C23.9041 12.9815 19.5776 12.9856 15.2511 12.976C14.8995 12.9746 14.5988 13.0091 14.3961 13.3277C14.3257 13.2766 14.3119 13.2008 14.3105 13.1208C14.3133 13.0601 14.3285 13.0035 14.3602 12.9525C14.4512 12.8394 14.5616 12.7608 14.7105 12.7443C14.905 12.7208 15.1008 12.7305 15.2967 12.7305C19.5487 12.7305 23.8007 12.7305 28.0527 12.7277C28.2195 12.7277 28.4402 12.8022 28.5395 12.6477C28.6457 12.4836 28.4581 12.3333 28.3768 12.1912C27.4872 10.6231 26.6376 9.03152 25.7301 7.47443C25.6653 7.36409 25.6101 7.251 25.6432 7.11584C25.6543 7.07447 25.6805 7.04413 25.7177 7.02344Z" fill="#A5A5A5"></path>
  <path d="M6.26039 43.0234C6.4714 43.2676 6.64104 43.5406 6.79413 43.8247C6.9817 44.1723 7.16926 44.5212 7.35821 44.8674C7.44372 45.026 7.60232 45.0646 7.75955 45.0881C7.86023 45.1032 7.96781 45.1032 8.06849 45.0894C8.68498 44.9998 9.30561 45.0467 9.92348 45.0453C13.4818 45.0398 17.0386 45.0425 20.5969 45.0425C20.9045 45.0425 21.212 45.0839 21.5196 45.0439C21.5886 45.0357 21.6575 45.0384 21.7058 44.9763C21.8492 44.8881 21.9182 44.6826 22.1319 44.7033C22.1568 44.7529 22.1526 44.7998 22.1182 44.8426C22.0175 45.0784 21.8354 45.186 21.5817 45.1832C21.3637 45.1818 21.1458 45.1832 20.9279 45.1832C16.7614 45.1832 12.5936 45.1832 8.42707 45.1846C8.26709 45.1846 8.10848 45.1846 7.9485 45.2149C7.60508 45.2784 7.36649 45.146 7.18168 44.8357C6.89757 44.3585 6.60932 43.884 6.31831 43.411C6.27418 43.3393 6.24521 43.2689 6.24935 43.1862C6.21211 43.1283 6.2066 43.0745 6.26039 43.0234Z" fill="#ACACAC"></path>
  <path d="M23.3558 21.9297C23.4965 21.9476 23.4675 22.0814 23.5172 22.1628C24.015 22.9641 24.4591 23.7943 24.9088 24.6232C25.1336 25.0356 25.3418 25.4659 25.5997 25.8521C25.9211 26.3293 26.1004 26.8837 26.4645 27.3305C26.5252 27.4064 26.5307 27.4988 26.5376 27.5884C26.4327 27.6381 26.3831 27.5498 26.3169 27.5016C25.9845 27.1292 25.7818 26.6754 25.5418 26.2465C24.8205 24.957 24.1226 23.6537 23.3489 22.3917C23.2855 22.2883 23.2606 22.1821 23.2758 22.0635C23.2882 22.0097 23.3103 21.9628 23.3558 21.9297Z" fill="#909090"></path>
  <path d="M26.3761 27.4609C26.4312 27.5051 26.485 27.5478 26.5402 27.592C26.7043 27.7285 26.8188 27.9174 26.9015 28.0954C27.1732 28.6788 27.5249 29.2152 27.8283 29.7793C28.1993 30.4703 28.6103 31.1406 28.9965 31.8247C29.0737 31.9598 29.1703 32.0936 29.1523 32.2687C29.1399 32.3887 29.1289 32.4977 29.0075 32.5584C28.9468 32.5101 28.9317 32.4411 28.9206 32.3694C28.9179 32.2398 28.8737 32.1226 28.8075 32.0136C28.1635 30.9613 27.5966 29.8635 26.9774 28.796C26.776 28.4498 26.605 28.0871 26.3926 27.7464C26.3374 27.6609 26.2974 27.5616 26.3761 27.4609Z" fill="#8A8A8A"></path>
  <path d="M27.9099 34.4896C27.8947 34.5779 27.8947 34.6648 27.8382 34.7489C27.2575 35.6082 26.8162 36.5488 26.2825 37.4369C26.059 37.8093 25.8204 38.1831 25.6536 38.5899C25.6439 38.6134 25.5956 38.6217 25.5639 38.6368C25.5184 38.6024 25.4991 38.5555 25.4922 38.5003C25.517 38.2038 25.6894 37.9693 25.8301 37.7224C26.3707 36.7694 26.9376 35.8316 27.4479 34.8606C27.5168 34.7296 27.5747 34.5903 27.7099 34.5076C27.7747 34.4759 27.8395 34.4483 27.9099 34.4896Z" fill="#8B8B8B"></path>
  <path d="M17.1413 27.8668C17.0944 27.8654 17.0488 27.8654 17.002 27.864C17.0861 27.5151 17.3136 27.2365 17.4778 26.9289C17.7384 26.4407 18.075 25.9938 18.2708 25.4684C18.3218 25.3305 18.4611 25.2518 18.5273 25.1125C18.6845 24.7843 18.8694 24.4698 19.0418 24.1499C19.0804 24.0795 19.1149 24.0064 19.2031 23.9844C19.2528 24.0147 19.2721 24.063 19.2804 24.1182C19.2541 24.3388 19.1424 24.5305 19.039 24.7167C18.4859 25.7042 17.9232 26.6848 17.3633 27.6668C17.3095 27.7592 17.2599 27.8502 17.1413 27.8668Z" fill="#ABABAB"></path>
  <path d="M10.9454 19.4662C10.9427 19.549 10.9137 19.618 10.8723 19.691C10.5055 20.3144 10.1372 20.9351 9.79657 21.5736C9.67106 21.8108 9.52211 22.0384 9.40488 22.2825C9.38144 22.3294 9.34006 22.3432 9.29731 22.3584C9.26559 22.3832 9.23524 22.3832 9.20352 22.3584C9.12491 22.186 9.21869 22.0467 9.29593 21.9101C9.74278 21.1268 10.1869 20.342 10.6282 19.5545C10.6972 19.4304 10.762 19.2801 10.9551 19.3187C10.984 19.3711 10.9813 19.4194 10.9454 19.4662Z" fill="#8C8C8C"></path>
  <path d="M3.63142 6.48776C3.66176 6.26433 3.81071 6.09745 3.91553 5.91126C4.30032 5.22305 4.69477 4.54036 5.09197 3.85905C5.14576 3.76664 5.12369 3.62045 5.2685 3.58735C5.34849 3.57632 5.30298 3.38737 5.44504 3.46322C5.51675 3.58183 5.45883 3.68251 5.40228 3.78457C4.90716 4.6769 4.43134 5.58026 3.89208 6.44776C3.8314 6.54568 3.80658 6.70843 3.62177 6.63533C3.59142 6.5843 3.59004 6.53465 3.63142 6.48776Z" fill="#959595"></path>
  <path d="M9.20917 22.35C9.23814 22.3528 9.2671 22.3555 9.29744 22.3569C9.28916 22.4576 9.26986 22.5445 9.20917 22.6396C8.92644 23.0893 8.67957 23.5596 8.42994 24.0285C8.17617 24.5057 7.8962 24.9677 7.63002 25.4394C7.59829 25.4959 7.55968 25.5263 7.50037 25.5359C7.45762 25.5083 7.44796 25.467 7.44934 25.4201C7.45486 25.3897 7.46451 25.3621 7.47831 25.3359C7.54037 25.2463 7.55002 25.1415 7.56657 25.038C8.04239 24.1871 8.50993 23.3334 8.9885 22.4852C9.03402 22.4066 9.09884 22.3335 9.20917 22.35Z" fill="#949494"></path>
  <path d="M5.75494 23.1887C5.53427 22.8081 5.31222 22.4302 5.09431 22.0481C4.79227 21.5172 4.49437 20.9848 4.19785 20.4524C4.18268 20.4248 4.18268 20.3876 4.17578 20.3545C4.24474 20.309 4.31232 20.3311 4.3799 20.3559C4.43369 20.3793 4.4792 20.4138 4.50678 20.4662C4.90674 21.2524 5.40463 21.9847 5.80321 22.7736C5.86941 22.9046 5.95906 23.037 5.85286 23.1901C5.81976 23.2122 5.78666 23.2122 5.75494 23.1887Z" fill="#9D9D9D"></path>
  <path d="M23.914 41.5266C23.9236 41.6204 23.9071 41.7059 23.8547 41.7859C23.4519 42.4066 23.1375 43.0782 22.7527 43.7071C22.6231 43.9181 22.5403 44.154 22.3872 44.3498C22.3445 44.4064 22.3058 44.4795 22.2203 44.4009C22.1707 44.3167 22.1748 44.2312 22.2121 44.1443C22.6479 43.3651 23.1016 42.5955 23.5306 41.8108C23.5747 41.7294 23.605 41.6425 23.6892 41.5929C23.7609 41.5597 23.8188 41.4784 23.914 41.5266Z" fill="#858585"></path>
  <path d="M3.49475 38.2129C3.59681 38.1977 3.64232 38.2749 3.67542 38.3425C3.78989 38.5756 3.94574 38.7825 4.0547 39.0211C4.20227 39.3452 4.40225 39.6458 4.59947 39.9451C4.72498 40.1354 4.82428 40.3313 4.87393 40.5533C4.9153 40.6085 4.91116 40.6595 4.86565 40.7106C4.68912 40.5685 4.62154 40.3547 4.51534 40.1672C4.19123 39.592 3.86851 39.0155 3.54302 38.4418C3.50165 38.3673 3.47544 38.297 3.49475 38.2129Z" fill="#B7B7B7"></path>
  <path d="M14.3913 13.1143C14.3927 13.186 14.3955 13.2564 14.3969 13.3281C14.4189 13.4701 14.3031 13.5557 14.2452 13.6605C13.9873 14.1349 13.71 14.5997 13.4508 15.0728C13.4094 15.1486 13.339 15.1831 13.2921 15.2465C13.2453 15.292 13.2039 15.3638 13.1266 15.2865C13.0646 15.0755 13.2342 14.9486 13.317 14.7969C13.5914 14.299 13.87 13.8039 14.1528 13.3102C14.2038 13.2219 14.2314 13.0812 14.3913 13.1143Z" fill="#8B8B8B"></path>
  <path d="M24.4557 4.97386C24.4585 4.92008 24.4612 4.86629 24.4654 4.8125C24.6585 4.96007 24.7454 5.18488 24.864 5.38348C24.9729 5.56691 25.0957 5.75034 25.1812 5.93929C25.3481 6.30891 25.6391 6.61508 25.719 7.0247C25.7053 7.03435 25.6928 7.04539 25.6791 7.05642C25.4998 7.0509 25.4156 6.92126 25.3549 6.7861C25.115 6.2496 24.7716 5.77241 24.4971 5.25659C24.4502 5.16833 24.3702 5.08282 24.4557 4.97386Z" fill="#A5A5A5"></path>
  <path d="M3.63199 6.48828C3.63612 6.54207 3.64026 6.59586 3.6444 6.64964C3.72163 6.74619 3.69405 6.84273 3.63888 6.93651C3.34098 7.43853 3.05549 7.94883 2.76035 8.45223C2.70656 8.54325 2.64587 8.6329 2.51485 8.56394C2.49141 8.51153 2.49141 8.45912 2.52175 8.40947C2.52589 8.27431 2.62243 8.18053 2.67897 8.0702C2.94653 7.54473 3.30098 7.06754 3.53958 6.52552C3.54923 6.50483 3.60026 6.50069 3.63199 6.48828Z" fill="#A0A0A0"></path>
  <path d="M13.021 15.7583C13.0569 15.9265 12.9189 16.0258 12.8527 16.1486C12.581 16.652 12.2942 17.1471 12.0087 17.6422C11.9949 17.6657 11.9494 17.6712 11.9177 17.685C11.868 17.6533 11.8487 17.605 11.8418 17.5498C12.0335 16.943 12.4224 16.4355 12.7065 15.8769C12.7672 15.7583 12.8224 15.5928 13.0155 15.6107C13.05 15.6576 13.0513 15.7073 13.021 15.7583Z" fill="#8D8D8D"></path>
  <path d="M5.75586 23.1849C5.78896 23.1793 5.82206 23.1738 5.85516 23.1683C5.95032 23.1173 6.01928 23.1724 6.05238 23.2442C6.29098 23.7627 6.63853 24.222 6.87575 24.7406C6.88816 24.815 6.90885 24.8868 6.95988 24.9474C6.97643 24.9737 6.98884 25.0026 6.99712 25.0316C7.00953 25.1116 7.00953 25.1888 6.93919 25.2481C6.78748 25.1502 6.7199 24.9888 6.63991 24.8385C6.37787 24.3461 6.12134 23.8524 5.83171 23.3752C5.79861 23.3173 5.78206 23.2483 5.75586 23.1849Z" fill="#AAAAAA"></path>
  <path d="M4.33241 20.4162C4.28 20.3955 4.22759 20.3734 4.17656 20.3527C3.88694 19.968 3.69799 19.5252 3.47318 19.1046C3.38906 18.946 3.19597 18.8481 3.20976 18.6357C3.1808 18.5846 3.17666 18.535 3.21804 18.4881C3.3532 18.4178 3.40698 18.5212 3.45663 18.6095C3.73523 19.0977 4.02348 19.5804 4.30897 20.0645C4.37379 20.1762 4.42482 20.2907 4.33241 20.4162Z" fill="#949494"></path>
  <path d="M21.0605 20.6882C21.1033 20.4951 21.2192 20.3351 21.3212 20.1751C21.4136 20.0317 21.5198 19.8979 21.5543 19.7283C21.575 19.629 21.6453 19.5697 21.7115 19.5131C21.8536 19.3918 22.0315 19.4387 22.117 19.611C22.2053 19.789 22.2908 19.9669 22.3763 20.1462C22.3349 20.1806 22.288 20.1862 22.2384 20.171C22.0646 20.0882 22.0205 19.8841 21.8674 19.7614C21.6922 19.9945 21.5584 20.2441 21.4246 20.4951C21.3626 20.6123 21.3198 20.7613 21.1378 20.742C21.1061 20.7337 21.0799 20.7158 21.0605 20.6882Z" fill="#9B9B9B"></path>
  <path d="M3.22921 18.4813C3.22231 18.5323 3.21541 18.5847 3.20852 18.6357C3.0637 18.5419 2.97682 18.4109 2.8982 18.2537C2.6734 17.8027 2.41825 17.3655 2.17 16.9269C2.12862 16.8552 2.0969 16.7863 2.11069 16.7035C2.15069 16.6621 2.19896 16.6566 2.25275 16.6718C2.53962 16.9255 2.66099 17.2896 2.85545 17.6041C2.95889 17.7724 3.06646 17.9503 3.13956 18.1406C3.16025 18.2413 3.17128 18.3461 3.22231 18.4399C3.22507 18.4523 3.22645 18.4661 3.22921 18.4813Z" fill="#BFBFBF"></path>
  <path d="M19.2136 24.1427C19.2094 24.0903 19.2053 24.0379 19.2025 23.9869C19.1832 23.7676 19.3736 23.6517 19.4535 23.4807C19.659 23.0394 19.9197 22.6284 20.1804 22.2188C20.2245 22.256 20.2452 22.3043 20.2549 22.3594C20.2797 22.5167 20.1969 22.6435 20.1376 22.7787C19.9542 23.198 19.6756 23.5621 19.4646 23.9648C19.4177 24.0558 19.3653 24.1786 19.2136 24.1427Z" fill="#A0A0A0"></path>
  <path d="M1.83377 16.1506C1.79929 16.1216 1.74964 16.1009 1.73033 16.0651C1.40622 15.4472 1.00626 14.8693 0.72629 14.228C0.698706 14.1797 0.697327 14.1287 0.713877 14.0777C0.862828 13.9908 0.927649 14.1053 0.973162 14.2046C1.20211 14.6997 1.54414 15.1327 1.75102 15.6389C1.77722 15.712 1.80343 15.7851 1.85583 15.8472C1.87239 15.8747 1.8848 15.9037 1.89445 15.934C1.90824 16.014 1.90824 16.0926 1.83377 16.1506Z" fill="#969696"></path>
  <path d="M27.9094 34.491C27.8583 34.5131 27.8073 34.5338 27.7576 34.5558C27.7025 34.4979 27.6956 34.422 27.7301 34.3641C27.9976 33.9255 28.1742 33.4318 28.5176 33.0373C28.5907 33.0042 28.6514 32.9187 28.7479 32.9767C28.7617 33.1628 28.6307 33.3021 28.5507 33.4373C28.3534 33.7669 28.1645 34.0993 27.9976 34.4441C27.9866 34.4703 27.9397 34.4772 27.9094 34.491Z" fill="#898989"></path>
  <path d="M1.70491 35.0356C1.84834 35.0273 1.91455 35.1308 1.95178 35.2356C2.07039 35.5707 2.26761 35.859 2.4607 36.15C2.51587 36.2341 2.5269 36.3169 2.53242 36.4065C2.57103 36.4631 2.56965 36.5182 2.52138 36.5693C2.29658 36.4051 2.27313 36.1169 2.11453 35.9086C1.97247 35.7211 1.87593 35.499 1.7518 35.2977C1.70077 35.2135 1.69112 35.1294 1.70491 35.0356Z" fill="#B9B9B9"></path>
  <path d="M22.2443 20.1484C22.2884 20.1484 22.3326 20.1498 22.3767 20.1498L22.3822 20.1567C22.4802 20.2174 22.4457 20.3512 22.5257 20.4215C22.7684 20.7442 22.9229 21.1194 23.1353 21.46C23.1987 21.5621 23.229 21.6642 23.2359 21.7786C23.2194 21.8103 23.1932 21.8297 23.1573 21.8352C22.8139 21.5235 22.636 21.1014 22.4195 20.7084C22.3257 20.5387 22.1436 20.3829 22.2443 20.1484Z" fill="#898989"></path>
  <path d="M2.52148 36.569C2.52562 36.5152 2.52838 36.46 2.53252 36.4062C2.68699 36.4283 2.6594 36.58 2.71457 36.671C2.91869 37.0048 3.11039 37.3455 3.31037 37.682C3.35313 37.7551 3.36554 37.8296 3.36554 37.9109C3.40002 37.9661 3.40002 38.0213 3.35727 38.0723C3.04833 37.5868 2.76422 37.0903 2.52148 36.569Z" fill="#B7B7B7"></path>
  <path d="M6.25995 43.0244C6.25581 43.0782 6.25168 43.132 6.24754 43.1858C5.97998 42.7306 5.71104 42.2769 5.44762 41.8204C5.42279 41.7762 5.43383 41.7114 5.42969 41.6562C5.58416 41.6618 5.63932 41.79 5.68346 41.8962C5.81448 42.2107 6.01722 42.481 6.19099 42.7692C6.24202 42.8548 6.25168 42.9361 6.25995 43.0244Z" fill="#B4B4B4"></path>
  <path d="M20.1954 22.378C20.1913 22.3256 20.1858 22.2718 20.1816 22.2194C20.412 21.8042 20.6423 21.3905 20.874 20.9753C20.9154 20.9326 20.9623 20.934 21.0133 20.9588C21.034 20.9864 21.045 21.0181 21.0464 21.0526C20.9181 21.4608 20.6795 21.8153 20.492 22.1945C20.4368 22.3035 20.354 22.4138 20.1954 22.378Z" fill="#969696"></path>
  <path d="M10.9443 19.4668C10.9388 19.4116 10.9333 19.3579 10.9277 19.3027C10.9608 18.8351 11.1953 18.4766 11.5428 18.18C11.5801 18.1773 11.6104 18.1911 11.6353 18.2187C11.6504 18.3635 11.5704 18.4683 11.5015 18.5855C11.3387 18.8627 11.1553 19.1275 11.0353 19.4282C11.027 19.4503 10.976 19.4558 10.9443 19.4668Z" fill="#9F9F9F"></path>
  <path d="M0.869141 11.3874C0.935341 11.1074 1.12705 10.8937 1.25669 10.6468C1.33806 10.4937 1.37392 10.3048 1.54218 10.2068C1.62355 10.1986 1.5808 10.011 1.71871 10.0827C1.75181 10.1324 1.77388 10.1958 1.74492 10.2441C1.52287 10.6247 1.38082 11.0523 1.07326 11.3819C1.00568 11.4081 0.938099 11.4302 0.869141 11.3874Z" fill="#999999"></path>
  <path d="M23.9129 41.5263C23.8591 41.5676 23.8067 41.609 23.7529 41.6504C23.6799 41.5511 23.7198 41.4559 23.7695 41.3663C23.9212 41.0891 24.055 40.8036 24.2274 40.5374C24.2826 40.4533 24.3239 40.3457 24.4591 40.4188C24.4949 40.4671 24.4991 40.5167 24.4674 40.5691C24.2908 40.8932 24.1791 41.2546 23.9129 41.5263Z" fill="#656565"></path>
  <path d="M0.434147 13.6799C0.243821 13.5599 0.165208 13.3544 0.0659068 13.1723C-0.0540815 12.953 -0.00718953 12.7351 0.181758 12.5586C0.19417 12.571 0.206583 12.582 0.218995 12.5931C0.2452 12.6372 0.257612 12.6869 0.263129 12.7365C0.253475 12.9103 0.323813 13.0592 0.401047 13.2096C0.465868 13.3351 0.561031 13.4578 0.507243 13.6164C0.492072 13.6495 0.467247 13.6688 0.434147 13.6799Z" fill="#A6A6A6"></path>
  <path d="M1.69962 10.0752C1.63204 10.1014 1.62239 10.1952 1.54102 10.2048C1.55343 10.1152 1.55343 10.0214 1.61549 9.94832C1.83064 9.69731 1.90512 9.36493 2.1051 9.10427C2.15337 9.06703 2.20302 9.06565 2.25543 9.09323C2.25819 9.46147 1.9727 9.96211 1.69962 10.0752Z" fill="#A7A7A7"></path>
  <path d="M4.86523 40.708C4.86799 40.6556 4.87075 40.6032 4.87351 40.5508C4.92868 40.5687 4.97695 40.588 4.99764 40.6528C5.06797 40.868 5.18245 41.0625 5.32174 41.239C5.42242 41.3673 5.43759 41.5052 5.42794 41.6555C5.25278 41.6652 5.2983 41.4983 5.24037 41.4155C5.08866 41.1949 4.94798 40.9659 4.86523 40.708Z" fill="#B4B4B4"></path>
  <path d="M0.868164 11.3865C0.917815 11.3644 0.966086 11.3424 1.01574 11.3203C1.09987 11.4279 1.08883 11.5424 1.0047 11.6361C0.847477 11.8099 0.778518 12.0347 0.639221 12.2195C0.586812 12.2719 0.533024 12.3188 0.451653 12.2747C0.415794 12.2264 0.415794 12.1754 0.444757 12.1244C0.545437 11.8527 0.677838 11.603 0.868164 11.3865Z" fill="#959595"></path>
  <path d="M6.25285 1.80469C6.29836 1.80469 6.34526 1.80469 6.39077 1.80469C6.45283 1.87365 6.45559 1.95364 6.41697 2.02811C6.29974 2.25016 6.17838 2.47221 6.05287 2.69012C6.0046 2.77425 5.93564 2.83355 5.82669 2.77839C5.7991 2.7246 5.7991 2.67219 5.8322 2.62116C5.92185 2.32326 6.13148 2.08604 6.25285 1.80469Z" fill="#797979"></path>
  <path d="M25.5441 38.4648C25.551 38.5214 25.5565 38.5793 25.5634 38.6359C25.5 38.9255 25.3041 39.1434 25.1524 39.3861C25.1055 39.4289 25.0641 39.5006 24.9883 39.4275C25.0186 39.0179 25.2338 38.7131 25.5441 38.4648Z" fill="#818181"></path>
  <path d="M6.93888 25.25C6.93888 25.159 6.9375 25.0666 6.9375 24.9756C7.09886 24.8818 7.12507 25.028 7.17472 25.1162C7.24644 25.2417 7.29884 25.3852 7.48227 25.381C7.48779 25.4335 7.49331 25.4845 7.5002 25.5369C7.36642 25.7107 7.3085 25.7245 7.17748 25.5976C7.0768 25.4997 6.98163 25.3921 6.93888 25.25Z" fill="#767676"></path>
  <path d="M1.83341 16.1495C1.83341 16.0584 1.83203 15.9674 1.83203 15.875C2.16441 16.0184 2.34922 16.3894 2.24441 16.7011C2.19889 16.7011 2.15476 16.6997 2.10925 16.6997L2.10787 16.6984C2.03339 16.548 1.93823 16.4115 1.84582 16.2722C1.84306 16.2322 1.83755 16.1908 1.83341 16.1495Z" fill="#727272"></path>
  <path d="M25.0219 39.6748C24.8991 39.9355 24.7902 40.2045 24.6012 40.4279C24.5874 40.4168 24.575 40.4058 24.5612 40.3934C24.5143 40.3148 24.5102 40.2279 24.5199 40.1396C24.5709 39.9507 24.6923 39.81 24.8302 39.679C24.8757 39.6514 24.9253 39.6362 24.9791 39.6417C24.9943 39.6542 25.0081 39.6638 25.0219 39.6748Z" fill="#9E9E9E"></path>
  <path d="M2.24477 9.1094C2.19787 9.10802 2.15236 9.10802 2.10547 9.10664C2.23511 8.86942 2.322 8.60738 2.5206 8.41016C2.52612 8.46532 2.53163 8.52049 2.53715 8.57704C2.6599 8.87494 2.45716 8.99493 2.24477 9.1094Z" fill="#B2B2B2"></path>
  <path d="M28.7493 32.976C28.6914 33.0174 28.6321 33.0574 28.5742 33.0987C28.4831 32.9415 28.6017 32.8339 28.6652 32.7126C28.7272 32.6298 28.7824 32.5429 28.8169 32.445C28.8307 32.4174 28.8472 32.394 28.8693 32.3719C28.9065 32.3429 28.9465 32.325 28.9948 32.3347C28.9989 32.4091 29.0031 32.4822 29.0058 32.5567C28.9327 32.7043 28.8776 32.8615 28.7493 32.976Z" fill="#7C7C7C"></path>
  <path d="M5.83392 2.61719C5.83806 2.67235 5.84358 2.72752 5.84772 2.78407C5.91254 3.08887 5.8353 3.22678 5.54568 3.31505C5.49465 3.22127 5.51396 3.133 5.56361 3.04473C5.61601 2.87785 5.73738 2.75648 5.83392 2.61719Z" fill="#808080"></path>
  <path d="M11.6376 18.2162C11.6086 18.2135 11.581 18.2107 11.5521 18.208C11.541 17.9128 11.5962 17.6508 11.9024 17.5156C11.9079 17.5708 11.912 17.626 11.9176 17.6825C11.9355 17.9183 11.7258 18.0342 11.6376 18.2162Z" fill="#838383"></path>
  <path d="M0.740492 14.0627C0.736355 14.1164 0.732217 14.1702 0.72808 14.224C0.6274 14.0433 0.398457 13.9316 0.435694 13.6779C0.450865 13.6655 0.466036 13.6544 0.479828 13.6406C0.737734 13.6765 0.824622 13.8172 0.740492 14.0627Z" fill="#A6A6A6"></path>
  <path d="M5.56273 3.04688C5.56135 3.13652 5.55997 3.22617 5.55997 3.31719C5.61928 3.45235 5.5779 3.502 5.43447 3.46201C5.3793 3.50476 5.32275 3.54752 5.26759 3.59027C5.26621 3.35581 5.44826 3.21927 5.56273 3.04688Z" fill="#979797"></path>
  <path d="M22.2438 44.4178C22.2907 44.3957 22.3376 44.3736 22.3859 44.3516C22.3666 44.5543 22.2755 44.7184 22.1169 44.8453C22.1142 44.7943 22.1114 44.7432 22.11 44.6922C22.03 44.5391 22.1224 44.4716 22.2438 44.4178Z" fill="#B7B7B7"></path>
  <path d="M1.84766 16.2734C2.02695 16.3589 2.11797 16.4982 2.1097 16.6996C1.95385 16.5989 1.85317 16.4651 1.84766 16.2734Z" fill="#BFBFBF"></path>
  <path d="M0.445063 12.125C0.45058 12.1788 0.454718 12.234 0.460234 12.2877C0.458855 12.3015 0.456097 12.3153 0.454718 12.3291C0.429892 12.3939 0.399551 12.456 0.373346 12.5208C0.359554 12.547 0.341625 12.5691 0.318179 12.587C0.275425 12.605 0.234049 12.6036 0.195432 12.5746L0.181641 12.5608C0.220258 12.3857 0.287837 12.2271 0.445063 12.125Z" fill="#A6A6A6"></path>
  <path d="M21.0605 20.6875C21.0936 20.6916 21.1253 20.6958 21.1584 20.6999C21.2342 20.8544 21.2522 20.9799 21.0177 20.9799L21.0025 20.9661C20.9653 20.9151 20.9667 20.8627 20.9984 20.8089C20.9957 20.7565 21.0039 20.7096 21.0605 20.6875Z" fill="#969696"></path>
  <path d="M3.35547 38.0754C3.35823 38.0216 3.36099 37.9679 3.36374 37.9141C3.51269 37.9665 3.50994 38.0865 3.49477 38.212C3.40098 38.2161 3.36236 38.1609 3.35547 38.0754Z" fill="#B7B7B7"></path>
  <path d="M23.3562 21.933C23.3521 21.9881 23.348 22.0419 23.3438 22.0971C23.1149 22.1054 23.1342 21.9757 23.1921 21.824C23.2073 21.8102 23.2211 21.795 23.2349 21.7812C23.3259 21.7923 23.3618 21.8447 23.3562 21.933Z" fill="#898989"></path>
  <path d="M22.5263 20.4211C22.4049 20.3728 22.3815 20.2707 22.3829 20.1562C22.5566 20.1769 22.5194 20.3107 22.5263 20.4211Z" fill="#9B9B9B"></path>
  <path d="M13.1513 15.3217C13.1981 15.2983 13.245 15.2748 13.2919 15.25C13.2974 15.3686 13.274 15.4734 13.1609 15.5382C13.1471 15.5272 13.1333 15.5176 13.1195 15.5065C13.0947 15.4583 13.0933 15.4086 13.114 15.3576C13.1264 15.3465 13.1388 15.3341 13.1513 15.3217Z" fill="#969696"></path>
  <path d="M25.0037 39.4515C25.0534 39.4295 25.103 39.4088 25.1527 39.3867C25.161 39.5053 25.1196 39.6019 25.0217 39.6722L24.9955 39.6515C24.9472 39.6019 24.9499 39.5439 24.9734 39.4846C24.983 39.4736 24.9941 39.4626 25.0037 39.4515Z" fill="#9E9E9E"></path>
  <path d="M13.0197 15.7527C13.0155 15.6976 13.01 15.6424 13.0059 15.5872C13.0114 15.5735 13.0183 15.561 13.0238 15.5472C13.0569 15.5155 13.0927 15.4962 13.1396 15.5155L13.1617 15.5335C13.1548 15.6341 13.1424 15.7279 13.0197 15.7527Z" fill="#969696"></path>
  <path d="M20.9993 20.8125C21.0007 20.8649 21.0021 20.9173 21.0034 20.9697C20.9607 20.9725 20.9179 20.9739 20.8738 20.9766C20.8655 20.8828 20.9262 20.8428 20.9993 20.8125Z" fill="#9B9B9B"></path>
  <path d="M24.4658 40.5698C24.4603 40.5187 24.4547 40.4663 24.4492 40.4153C24.4616 40.407 24.4727 40.3988 24.4851 40.3905C24.514 40.3836 24.5416 40.3863 24.5692 40.3974C24.5802 40.407 24.5899 40.4167 24.6009 40.4277C24.5995 40.516 24.5609 40.5684 24.4658 40.5698Z" fill="#9E9E9E"></path>
  <path d="M23.1929 21.8197C23.2177 21.9245 23.1956 22.0556 23.3446 22.0914C23.3404 22.3659 23.5597 22.541 23.6797 22.7465C23.8893 23.1079 24.0866 23.4789 24.2962 23.8416C24.8893 24.8691 25.4699 25.9049 26.0464 26.942C26.1457 27.1213 26.2408 27.302 26.3774 27.4564C26.3884 27.7254 26.6063 27.8922 26.7084 28.1198C26.8642 28.4687 27.0711 28.7956 27.2697 29.1238C27.5855 29.6479 27.8669 30.1913 28.1772 30.7182C28.4393 31.1637 28.6792 31.6229 28.9427 32.0684C28.9923 32.1511 29.0006 32.2408 28.9992 32.3332C28.9592 32.3635 28.9192 32.3939 28.8792 32.4242C28.7109 32.2725 28.5275 32.2298 28.3096 32.3166C28.1358 32.3856 27.9483 32.3787 27.7648 32.3787C23.8825 32.3787 19.9987 32.3787 16.1163 32.3801C15.8846 32.3801 15.6626 32.3428 15.4378 32.2835C15.0999 32.1939 14.984 32.3235 15.0778 32.6642C15.1205 32.82 15.1936 32.9662 15.2792 33.1014C16.1467 34.4957 16.9355 35.9356 17.7244 37.3741C18.0982 38.0568 18.5381 38.6981 18.8843 39.3987C19.5546 40.7572 20.3476 42.0509 21.1186 43.3542C21.1793 43.4562 21.2372 43.5514 21.2 43.6742C21.0455 43.8397 20.9365 43.6811 20.8717 43.5928C20.6166 43.2425 20.3021 42.9363 20.1132 42.5363C19.8056 41.8854 19.5077 41.2372 19.0291 40.6745C18.665 40.2469 18.5809 39.6456 18.2871 39.1698C17.741 38.2857 17.3727 37.2969 16.7038 36.4873C16.5783 36.3342 16.4914 36.1645 16.4101 35.9853C16.2004 35.5177 16.0363 35.0309 15.6708 34.6378C15.446 34.3964 15.4102 34.031 15.2516 33.7386C15.0778 33.4186 14.9413 33.0738 14.6047 32.8711C14.4875 32.8007 14.4241 32.6918 14.5247 32.5539L14.5234 32.5552C14.5634 32.5015 14.6103 32.4546 14.6627 32.4159L14.6613 32.4173C14.7358 32.3649 14.7537 32.2766 14.7992 32.2049C14.7992 32.1594 14.7978 32.1153 14.7978 32.0698C14.9799 31.747 15.1619 31.4257 15.344 31.103C15.5591 30.7209 15.7757 30.3403 15.9894 29.9583C16.2363 29.5169 16.4887 29.0783 16.7231 28.6315C16.8583 28.3736 17.05 28.1474 17.1424 27.8674C17.4679 27.2978 17.7837 26.7241 18.1216 26.1614C18.3947 25.7063 18.6126 25.2208 18.905 24.7767C19.0333 24.5822 19.1133 24.3547 19.2139 24.1423C19.4084 23.9933 19.4663 23.7547 19.5891 23.5589C19.7904 23.2375 19.9739 22.9051 20.1573 22.5741C20.1876 22.519 20.1835 22.4431 20.1945 22.3755C20.32 22.3286 20.3821 22.2169 20.4386 22.1094C20.6359 21.7356 20.8234 21.3563 21.0151 20.9798C21.1696 20.9412 21.1365 20.8074 21.1558 20.6998C21.3117 20.6226 21.3379 20.4543 21.4192 20.3247C21.5654 20.0902 21.662 19.8213 21.8951 19.6172C22.0178 19.8048 22.1295 19.9744 22.2412 20.1454C22.3502 20.4833 22.5267 20.7978 22.7226 21.0819C22.8936 21.3218 22.957 21.6266 23.1929 21.8197Z" fill="#333333"></path>
  <path d="M14.5234 32.5547C14.5221 32.6912 14.5524 32.796 14.7096 32.8402C14.86 32.8816 14.9289 33.0153 15.0144 33.1422C15.2848 33.5449 15.4668 33.9849 15.6364 34.4331C15.6613 34.4966 15.6847 34.5738 15.7344 34.6138C16.1398 34.9434 16.2764 35.4316 16.4502 35.884C16.5812 36.2261 16.806 36.4991 17.0101 36.7791C17.3232 37.208 17.5921 37.6521 17.7755 38.1486C17.8114 38.2466 17.8583 38.3376 17.9286 38.4162C18.3851 38.9361 18.5575 39.6037 18.8513 40.2077C18.9575 40.427 19.0692 40.6339 19.2306 40.8132C19.4692 41.0794 19.6678 41.3607 19.7988 41.7028C19.9381 42.0641 20.0898 42.4392 20.3243 42.7399C20.5877 43.075 20.7656 43.4916 21.1463 43.7302C21.2097 43.7026 21.2621 43.7315 21.2952 43.7798C21.4497 44.0046 21.56 44.2584 21.7214 44.4804C21.7821 44.5646 21.7283 44.6542 21.6938 44.7452C21.8538 44.7176 21.8551 44.5701 21.9227 44.4749C22.0138 44.3466 22.0441 44.148 22.262 44.1522C22.2565 44.2405 22.251 44.3301 22.2441 44.4184C22.2192 44.519 22.1034 44.577 22.1089 44.6928C21.9889 44.8087 21.9255 45.0059 21.7034 44.9797C21.5545 44.9756 21.4055 44.9659 21.2566 44.9659C16.8349 44.9659 12.4133 44.9659 7.99167 44.9659C7.90064 44.9659 7.8041 44.9769 7.71721 44.9535C7.54619 44.908 7.50895 44.7687 7.62756 44.6308C7.70342 44.5425 7.76548 44.4611 7.771 44.3329C7.78065 44.1025 7.99167 43.9729 8.08131 43.7743C8.29233 43.3136 8.61919 42.9164 8.86468 42.4751C9.24947 41.7869 9.69357 41.129 9.98044 40.3884C10.0922 40.1002 10.2976 39.8712 10.4521 39.6106C10.6852 39.2161 10.9362 38.8258 11.1665 38.4314C11.4713 37.9087 11.7872 37.3873 12.0395 36.8315C12.2685 36.3295 12.5388 35.8454 12.8133 35.3668C13.0091 35.0248 13.2325 34.6952 13.467 34.378C13.5497 34.2649 13.6049 34.1366 13.6559 34.0208C13.8725 33.5339 14.2255 33.1202 14.4048 32.6154C14.4241 32.5685 14.4779 32.5643 14.5234 32.5547Z" fill="#383838"></path>
  <path d="M14.7981 32.2031C14.8036 32.3066 14.8091 32.4114 14.6602 32.4155C14.6588 32.3135 14.7167 32.25 14.7981 32.2031Z" fill="#383838"></path>
  <path d="M14.6627 32.4141C14.6393 32.483 14.5924 32.5299 14.5234 32.5534C14.5234 32.461 14.5717 32.4168 14.6627 32.4141Z" fill="#383838"></path>
  <path d="M24.4548 4.97488C24.6313 5.36381 24.8492 5.73205 25.0878 6.08236C25.2175 6.27269 25.2906 6.48508 25.3954 6.6823C25.4726 6.82849 25.5636 6.94572 25.6781 7.05606C25.6905 7.14708 25.6891 7.23949 25.7429 7.32086C26.2146 8.03803 26.5897 8.81037 27.0228 9.54961C27.2904 10.0061 27.5441 10.4737 27.7855 10.9467C28.0296 11.4212 28.3165 11.8735 28.5854 12.3355C28.6254 12.4045 28.6792 12.4679 28.7082 12.541C28.7813 12.7272 28.7178 12.8224 28.5192 12.832C28.4158 12.8376 28.3123 12.832 28.2089 12.832C23.8424 12.832 19.476 12.832 15.1109 12.832C14.9619 12.832 14.813 12.8334 14.6626 12.8334C14.5937 12.7465 14.6199 12.6555 14.6668 12.5755C14.8502 12.2707 14.9536 11.9163 15.1743 11.6377C15.4198 11.326 15.5784 10.9729 15.7425 10.6212C16.1135 9.83096 16.6597 9.14275 17.0624 8.36765C17.5851 7.35948 18.0651 6.32509 18.6995 5.38036C19.3863 4.35701 19.8773 3.22609 20.4952 2.16826C20.8289 1.5959 21.1006 0.986304 21.5792 0.386362C16.8721 0.376708 12.2477 0.3905 7.62469 0.380846C7.48401 0.361537 7.35575 0.477388 7.21094 0.418083C7.233 0.220861 7.35575 0.146386 7.53918 0.145006C7.59711 0.145006 7.65365 0.145006 7.71158 0.145006C12.2449 0.145006 16.7783 0.149144 21.313 0.136731C21.6247 0.135352 21.7999 0.247065 21.9378 0.502213C22.5129 1.5628 23.1101 2.61235 23.7045 3.66191C23.9362 4.07152 24.2176 4.46045 24.3734 4.9142C24.3831 4.94178 24.4272 4.95557 24.4548 4.97488Z" fill="#666666"></path>
  <path d="M7.21357 0.414502C7.32804 0.366231 7.41355 0.239346 7.5625 0.282101C7.70042 0.552419 7.81351 0.837909 7.98591 1.09168C8.0066 1.3551 8.15279 1.56473 8.27692 1.78264C8.8148 2.72876 9.39129 3.65281 9.87952 4.62651C10.1112 5.08991 10.4436 5.49677 10.685 5.94638C10.9829 6.50219 11.3056 7.04558 11.5938 7.60691C12.1593 8.71163 12.8489 9.74463 13.4295 10.8383C13.7205 11.3845 14.035 11.9196 14.286 12.4864C14.4529 12.8629 14.3618 13.0064 13.9412 13.0478C13.7578 13.0657 13.5743 13.0671 13.3895 13.0671C9.35543 13.0671 5.32134 13.0671 1.28863 13.0684C1.03486 13.0684 0.783853 13.045 0.531463 13.0436C0.376996 13.0422 0.259766 12.9898 0.259766 12.8078C0.259766 12.7719 0.266662 12.7374 0.280453 12.703C0.418371 12.5581 0.510776 12.383 0.592147 12.2009C0.650073 11.983 0.765923 11.7913 0.903841 11.6203C0.981075 11.5251 1.01555 11.43 1.01831 11.3155C1.22795 11.1776 1.27346 10.928 1.37966 10.7307C1.49413 10.5183 1.70652 10.3446 1.701 10.0729C1.91478 9.91013 1.97822 9.64947 2.09545 9.4288C2.14786 9.3295 2.25681 9.23985 2.24578 9.10607C2.3506 8.93229 2.5423 8.80679 2.53954 8.57371C2.5823 8.55992 2.62229 8.54751 2.64712 8.50061C2.94778 7.93929 3.25258 7.37934 3.59599 6.84146C3.63047 6.78768 3.62909 6.71182 3.64564 6.64562C3.81942 6.61942 3.77115 6.44702 3.83459 6.3491C4.40143 5.46643 4.86346 4.52307 5.39582 3.61971C5.4234 3.57282 5.4234 3.51075 5.43581 3.45559C5.52546 3.44869 5.55856 3.39214 5.56132 3.31077C5.70613 3.16044 5.8344 3.00184 5.84819 2.77979C5.9599 2.75772 5.97507 2.6598 6.00679 2.57705C6.11161 2.30535 6.36124 2.10537 6.39158 1.79782C6.56812 1.50129 6.75982 1.21167 6.91705 0.905489C7.00532 0.734471 7.12255 0.582761 7.21357 0.414502Z" fill="#1C1C1C"></path>
  <path d="M0.316479 12.6903C0.352337 12.9523 0.352337 12.9413 0.614381 12.9372C0.795053 12.9344 0.975725 12.9716 1.15778 12.9716C5.28151 12.9689 9.40525 12.9703 13.5304 12.9689C13.7331 12.9689 13.9372 12.9579 14.14 12.9441C14.2586 12.9358 14.3413 12.8117 14.2765 12.6958C14.1096 12.3979 14.0324 12.0545 13.7993 11.7897C13.609 11.5732 13.5814 11.2684 13.4283 11.0298C13.187 10.6533 13.0421 10.2174 12.7842 9.86023C12.1774 9.01893 11.7719 8.0673 11.2492 7.18187C11.023 6.79845 10.8106 6.41366 10.6244 6.00681C10.5224 5.78338 10.3279 5.58064 10.1831 5.36135C9.93486 4.98622 9.74039 4.58626 9.55696 4.17802C9.50179 4.05389 9.41628 3.94356 9.34733 3.82633C9.03287 3.28569 8.67705 2.76988 8.44397 2.18235C8.36949 1.99478 8.17503 1.87617 8.09917 1.68033C8.0178 1.4707 7.8523 1.28864 7.90333 1.04039C8.06055 1.00729 8.09366 1.13831 8.14882 1.23072C8.44397 1.72309 8.70187 2.24166 9.04942 2.6954C9.52662 3.32155 9.75832 4.08286 10.2024 4.71176C10.7155 5.43859 10.9899 6.2854 11.4754 7.01361C12.1498 8.0273 12.7167 9.10306 13.3207 10.1567C13.6959 10.8119 14.042 11.4877 14.3965 12.1552C14.5537 12.4503 14.5799 12.711 14.3965 12.9896C14.3951 13.0296 14.3924 13.0709 14.391 13.1109C14.1675 13.4254 13.9993 13.7688 13.8145 14.1053C13.6476 14.4101 13.4655 14.7094 13.2876 15.0087C13.2297 15.1066 13.147 15.1894 13.1511 15.3135L13.1497 15.3162C13.089 15.399 13.0877 15.5148 13.0049 15.5852L13.0063 15.5838C12.6201 16.0996 12.365 16.6927 12.045 17.2471C11.9967 17.3312 11.9029 17.3974 11.9029 17.5091C11.7292 17.7105 11.6312 17.9505 11.5526 18.2015C11.2892 18.5339 11.103 18.9104 10.9306 19.2938C10.8093 19.3724 10.7417 19.4965 10.6837 19.6193C10.5031 20.0013 10.2493 20.3433 10.0645 20.7199C9.81349 21.2288 9.47145 21.688 9.24803 22.2107C9.2301 22.2521 9.2232 22.2976 9.21079 22.3418C8.95426 22.6466 8.80117 23.0148 8.59567 23.3513C8.28674 23.8575 8.06883 24.4092 7.70749 24.8781C7.66059 24.9388 7.6206 25.0146 7.62336 25.1001C7.58198 25.1953 7.57233 25.3056 7.48406 25.3773H7.48268C7.30201 25.529 7.32407 25.5125 7.20409 25.3635C7.10341 25.238 7.14202 25.0201 6.9379 24.9719C6.89653 24.9208 6.8455 24.8795 6.81378 24.8215C6.8124 24.5719 6.60139 24.4271 6.49933 24.2285C6.32969 23.8975 6.13384 23.5748 5.96283 23.241C5.93938 23.1941 5.89801 23.1803 5.85387 23.1679C5.83043 22.8603 5.62769 22.6286 5.48839 22.379C5.13394 21.7391 4.73536 21.1226 4.41815 20.4606C4.40712 20.4357 4.36022 20.4289 4.32988 20.4137C4.3285 20.2951 4.26644 20.2068 4.20714 20.1061C3.90096 19.582 3.61271 19.0483 3.31481 18.5201C3.3024 18.4966 3.2555 18.4925 3.22516 18.4787V18.4801C3.13 18.418 3.17137 18.2773 3.07345 18.2167C2.87761 17.8553 2.69418 17.4857 2.47903 17.1354C2.39214 16.9933 2.35766 16.8264 2.24319 16.7009C2.30939 16.512 2.14803 16.392 2.08734 16.2472C2.03217 16.1148 1.95356 15.9727 1.82944 15.8748L1.82668 15.8734C1.7922 15.8183 1.73979 15.7769 1.70393 15.7231C1.50671 15.3356 1.30673 14.9521 1.05985 14.5922C0.972967 14.4653 0.923316 14.3094 0.864012 14.1646C0.839187 14.1026 0.792295 14.0819 0.737128 14.0653C0.73299 13.8736 0.61576 13.7509 0.476463 13.6433C0.497151 13.4488 0.345441 13.3206 0.273724 13.1661C0.203386 13.0144 0.178561 12.8779 0.193732 12.722C0.219936 12.6434 0.266828 12.6655 0.316479 12.6903Z" fill="#333333"></path>
  <path d="M14.3963 12.9948C14.3949 12.9369 14.3674 12.8611 14.3949 12.8266C14.5646 12.6004 14.4198 12.4197 14.326 12.2308C14.0929 11.7605 13.7978 11.3178 13.5798 10.8447C13.2488 10.1262 12.8241 9.46139 12.4338 8.78008C12.1538 8.29047 11.9428 7.75259 11.5511 7.32091C11.398 7.15265 11.2697 6.93474 11.2035 6.69614C11.1704 6.57754 11.1028 6.46582 11.038 6.35825C10.878 6.09344 10.7125 5.83416 10.6519 5.52247C10.6298 5.41075 10.5663 5.31007 10.4712 5.2356C10.4091 5.18595 10.3402 5.14733 10.2974 5.07285C9.96365 4.4867 9.64368 3.89228 9.35819 3.2813C9.33474 3.23027 9.34164 3.15718 9.30716 3.1227C8.72515 2.55586 8.41897 1.8111 8.00935 1.13255C7.98729 1.09669 7.94039 1.07462 7.90591 1.04704C7.73903 0.867745 7.54595 0.702244 7.61491 0.411237C7.62318 0.376758 7.58043 0.329866 7.5625 0.28987C8.05625 0.287111 8.54999 0.282974 9.04374 0.282974C13.1095 0.282974 17.1754 0.282974 21.2412 0.282974C21.3446 0.282974 21.4494 0.276078 21.5515 0.28987C21.6922 0.307799 21.7556 0.453992 21.6453 0.532605C21.2398 0.82499 21.1943 1.33666 20.9005 1.69525C20.6178 2.04004 20.4357 2.45242 20.244 2.8441C19.9572 3.43301 19.6193 3.99434 19.3365 4.58463C19.2248 4.81909 19.0924 5.06458 18.8897 5.25904C18.7559 5.38593 18.6759 5.57763 18.5918 5.739C18.3228 6.24791 17.9849 6.72235 17.7574 7.25057C17.4953 7.85603 17.1202 8.39805 16.8333 8.98696C16.6361 9.39106 16.3534 9.73447 16.1203 10.1082C15.9217 10.4268 15.73 10.773 15.639 11.1509C15.6155 11.2502 15.5686 11.3164 15.5024 11.3784C15.2418 11.6267 15.0914 11.9522 14.9618 12.2722C14.8804 12.4749 14.6597 12.599 14.668 12.8404C14.5453 12.839 14.5191 12.9976 14.3963 12.9948Z" fill="#383838"></path>
  <path d="M22.2626 44.1496C22.1384 44.2531 22.0488 44.3882 21.9853 44.5275C21.8295 44.8668 21.8392 44.871 21.4682 44.7827C21.4709 44.6792 21.5606 44.7054 21.6157 44.6834C21.6819 44.6558 21.7136 44.5827 21.6792 44.5482C21.4392 44.3151 21.3813 43.9648 21.1482 43.729C21.1427 43.6504 21.1634 43.5649 21.1123 43.4945C20.6089 42.8049 20.2628 42.023 19.82 41.2989C19.2877 40.4272 18.8063 39.5322 18.3719 38.6095C18.3429 38.5488 18.2947 38.495 18.2436 38.4495C18.0312 38.2619 17.9182 38.0233 17.8244 37.7613C17.7609 37.5848 17.6644 37.4165 17.5499 37.2565C17.3679 36.9986 17.2396 36.7035 17.081 36.4276C16.7596 35.8649 16.4686 35.2843 16.139 34.7285C15.9087 34.3382 15.6922 33.9396 15.4508 33.5589C15.2936 33.3093 15.1501 33.0542 15.0053 32.799C14.964 32.7259 14.9446 32.6542 14.9391 32.5728C14.9102 32.1674 15.055 32.0267 15.4343 32.1743C15.728 32.2887 16.0163 32.2818 16.3114 32.2832C20.1221 32.2846 23.9341 32.2846 27.7448 32.2846C27.9737 32.2846 28.193 32.2818 28.4151 32.1825C28.6826 32.0625 28.8081 32.1508 28.8757 32.4294V32.4266C28.8081 32.5053 28.815 32.6252 28.7268 32.6914C28.7254 32.8473 28.5626 32.9425 28.5737 33.1024C28.3475 33.3686 28.1861 33.6776 28.0482 33.9892C27.9599 34.1851 27.7572 34.3202 27.7572 34.5575C27.7007 34.5975 27.6579 34.6457 27.6234 34.7092C27.2786 35.3491 26.9531 36.0015 26.5766 36.6235C26.2291 37.1986 25.9132 37.7916 25.5712 38.3695C25.5547 38.3971 25.5519 38.4343 25.5436 38.4674C25.3492 38.7888 25.1106 39.0853 25.003 39.4535C24.9313 39.5322 24.9464 39.659 24.854 39.7252C24.7644 39.8632 24.6734 40.0011 24.5837 40.139C24.5382 40.2314 24.5492 40.3514 24.4486 40.4162C24.2582 40.4452 24.2831 40.6424 24.21 40.7541C24.0265 41.0327 23.839 41.3209 23.7521 41.652C23.5548 41.8023 23.4969 42.045 23.3893 42.245C23.0694 42.8408 22.686 43.4007 22.4032 44.0159C22.3757 44.0793 22.3398 44.1358 22.2626 44.1496Z" fill="#1C1C1C"></path>
  <path d="M7.48438 25.3788C7.49127 25.2671 7.55058 25.1802 7.62367 25.1016C7.64022 25.2257 7.62229 25.3333 7.48438 25.3788Z" fill="#767676"></path>
  <path d="M6.81202 24.8242C6.90581 24.8311 6.94994 24.8794 6.93615 24.9745C6.83961 24.9704 6.80237 24.9166 6.81202 24.8242Z" fill="#767676"></path>
  <path d="M3.07654 18.2188C3.24618 18.2381 3.21859 18.3705 3.22825 18.4822C3.09033 18.4436 3.0655 18.3415 3.07654 18.2188Z" fill="#949494"></path>
  <path d="M1.70593 15.7227C1.7942 15.7337 1.84247 15.7792 1.82868 15.873C1.73351 15.8688 1.69903 15.8123 1.70593 15.7227Z" fill="#727272"></path>
  <path d="M0.317254 12.6938C0.277258 12.7034 0.237262 12.7131 0.197266 12.7227C0.197266 12.6731 0.197266 12.622 0.197266 12.5724C0.235883 12.5682 0.274499 12.5627 0.313116 12.5586C0.355871 12.6027 0.364146 12.6482 0.317254 12.6951V12.6938Z" fill="#959595"></path>
  <path d="M0.314684 12.6914C0.313305 12.6458 0.311926 12.6003 0.310547 12.5548C0.325718 12.541 0.331235 12.5245 0.328476 12.5038C0.358818 12.421 0.408468 12.3507 0.459498 12.2817V12.2831C0.503632 12.2569 0.546386 12.2293 0.59052 12.2031C0.624999 12.4376 0.535353 12.6003 0.314684 12.6914Z" fill="#333333"></path>
  <path d="M24.4512 40.41C24.4526 40.2969 24.5022 40.2073 24.5863 40.1328C24.5808 40.2197 24.5753 40.3052 24.5698 40.3921C24.5298 40.399 24.4912 40.4045 24.4512 40.41Z" fill="#656565"></path>
  <path d="M24.8557 39.7248C24.8516 39.6048 24.8985 39.5124 25.0047 39.4531C25.0019 39.5207 24.9992 39.5869 24.995 39.6545C24.9481 39.6766 24.9026 39.7 24.8557 39.7248Z" fill="#818181"></path>
  <path d="M28.7285 32.6867C28.7423 32.5791 28.7795 32.4826 28.8775 32.4219C28.8871 32.5432 28.8485 32.637 28.7285 32.6867Z" fill="#333333"></path>
  <path d="M0.46087 12.2852C0.471904 12.3914 0.405703 12.4534 0.329849 12.5072C0.311919 12.3982 0.360191 12.3265 0.46087 12.2852Z" fill="#959595"></path>
  <path d="M13.0039 15.5906C13.0067 15.4762 13.0687 15.3934 13.1487 15.3203C13.146 15.3865 13.1432 15.4527 13.1391 15.5175C13.0949 15.5424 13.0494 15.5672 13.0039 15.5906Z" fill="#8B8B8B"></path>
  <path d="M89.2244 18.671H85.6367V16.6901C89.2909 16.6901 92.9335 16.6673 96.5761 16.7272C96.9085 16.7329 97.3624 17.1804 97.5417 17.5309C98.3627 19.1327 99.1028 20.7744 99.9903 22.6498C100.739 21.0651 101.494 19.717 102.023 18.2862C102.546 16.8725 103.381 16.3396 105 16.8497C104.101 18.6482 103.274 20.4922 102.271 22.2394C101.294 23.9438 100.768 25.6824 100.967 27.649C101.057 28.5297 100.982 29.4247 100.982 30.3681H98.805C100.025 25.5199 97.5388 21.7292 95.3879 17.8473C94.4512 19.4833 92.8121 18.1608 91.4302 18.8563V30.3567H89.2215V18.671H89.2244Z" fill="#575757"></path>
  <path d="M69.8672 30.353V16.7321C71.781 16.7321 73.6514 16.5924 75.4901 16.7691C77.5167 16.9658 79.1818 18.7785 79.3033 20.8164C79.416 22.6975 79.3987 24.5985 79.2772 26.4825C79.1558 28.3465 77.4415 30.1621 75.5826 30.316C73.7324 30.4699 71.8562 30.3502 69.8701 30.3502L69.8672 30.353ZM72.0903 18.7243V28.4035C72.8391 28.4035 73.5011 28.4149 74.1631 28.4035C76.2735 28.3607 77.2247 27.4487 77.2883 25.3652C77.3259 24.1853 77.3259 22.9996 77.2883 21.8196C77.2189 19.8103 76.1492 18.7756 74.1429 18.7272C73.5242 18.7129 72.9027 18.7272 72.0932 18.7272L72.0903 18.7243Z" fill="#575757"></path>
  <path d="M51.4791 23.5744C51.4791 24.5235 51.56 25.4811 51.4646 26.4188C51.2189 28.8016 49.1865 30.5829 46.7726 30.6143C44.3471 30.6456 42.2136 28.9526 41.9996 26.5613C41.8262 24.589 41.8117 22.5768 41.9938 20.6045C42.2309 18.0536 44.2054 16.563 46.894 16.6228C49.3484 16.677 51.268 18.427 51.482 20.8696C51.56 21.7645 51.4935 22.6737 51.4935 23.5744C51.4877 23.5744 51.482 23.5744 51.4791 23.5744ZM44.0522 23.5715C44.0522 23.5715 44.0638 23.5715 44.0667 23.5715C44.0667 24.4209 43.977 25.2816 44.0869 26.1196C44.2719 27.5276 45.3791 28.414 46.7495 28.394C48.1111 28.3741 49.175 27.4392 49.2559 25.9942C49.3455 24.3981 49.3513 22.7877 49.2588 21.1916C49.175 19.7409 48.1082 18.7804 46.7639 18.7348C45.3849 18.6892 44.2286 19.6839 44.0667 21.1631C43.9799 21.9583 44.0522 22.7678 44.0522 23.5715Z" fill="#575757"></path>
  <path d="M39.5835 18.0753C39.1585 18.6937 38.8145 19.1954 38.5167 19.6258C37.4673 19.3236 36.5278 18.9674 35.5535 18.7964C34.1109 18.5427 33.0904 19.1897 32.8996 20.3326C32.7204 21.3986 33.4749 22.1538 34.9551 22.3876C35.5709 22.4845 36.1982 22.5472 36.8053 22.6811C38.7885 23.1229 39.9536 24.5594 39.9651 26.5431C39.9767 28.6038 38.9273 29.9091 36.8516 30.3908C34.3364 30.9751 32.1133 30.3908 30 28.6921C30.4539 28.1449 30.8644 27.6518 31.0639 27.4124C32.6828 27.7772 34.0416 28.2361 35.4292 28.3558C36.9267 28.4841 37.7362 27.7544 37.7796 26.6429C37.8345 25.2548 36.866 24.9014 35.7472 24.7104C35.1314 24.605 34.5041 24.5537 33.8999 24.4112C31.6218 23.8725 30.5001 22.2935 30.7516 20.0305C30.98 18.0211 32.4833 16.7271 34.7007 16.6245C36.4324 16.5447 38.0369 16.8753 39.5835 18.0753Z" fill="#575757"></path>
  <path d="M54.209 16.7461H56.1777V28.3662H62.7055V30.3385H54.209V16.7461Z" fill="#575757"></path>
  <path d="M84.1004 30.3408H82.1172V16.7969H84.1004V30.3408Z" fill="#575757"></path>
  <path d="M64.9609 16.7539H66.895V30.3406H64.9609V16.7539Z" fill="#575757"></path>
</svg>
