<svg width="134" height="31" viewBox="0 0 134 31" fill="none" xmlns="http://www.w3.org/2000/svg">
<g clip-path="url(#clip0_5932_34096)">
<path d="M24.4789 15.0456C24.4789 10.4297 24.4894 5.81285 24.4653 1.19701C24.4622 0.671933 24.6149 0.550601 25.1044 0.583025C25.7466 0.62591 26.3962 0.626956 27.0373 0.583025C27.531 0.549555 27.6838 0.6803 27.6796 1.20015C27.6534 4.45728 27.667 7.71547 27.667 10.9726C27.667 11.1117 27.6524 11.2529 27.6712 11.3899C27.6953 11.5667 27.5624 11.8428 27.7915 11.8941C28.0049 11.9412 28.0383 11.6452 28.1283 11.4924C29.3259 9.4706 31.1313 8.45915 33.4439 8.30644C34.2095 8.25623 34.9752 8.28238 35.7304 8.45496C38.0357 8.98318 39.2354 10.5762 39.8337 12.7309C40.1946 14.0321 40.2793 15.3688 40.2782 16.715C40.2751 20.8256 40.272 24.9373 40.2876 29.0479C40.2887 29.4391 40.1935 29.5531 39.8002 29.5354C39.0701 29.5019 38.3359 29.5008 37.6047 29.5354C37.1926 29.5552 37.0891 29.4308 37.0901 29.0218C37.1058 25.0157 37.0995 21.0086 37.1006 17.0026C37.1006 16.1658 37.0629 15.3311 36.9092 14.5059C36.3831 11.6713 34.5882 10.7477 32.0475 11.0699C29.8311 11.3502 28.4421 12.8198 27.9233 15.192C27.7057 16.1867 27.667 17.1919 27.667 18.2023C27.6649 21.8078 27.6597 25.4143 27.6764 29.0197C27.6785 29.4329 27.5677 29.5542 27.1576 29.5354C26.4443 29.5019 25.7278 29.4987 25.0145 29.5364C24.5835 29.5594 24.4664 29.4412 24.4674 28.9988C24.4852 24.3474 24.4789 19.697 24.4789 15.0456Z" fill="#575757"/>
<path d="M63.074 19.7599C62.0239 20.2556 60.9235 20.1301 59.8566 20.1594C58.0272 20.2096 56.1989 20.1008 54.3737 19.9575C53.4333 19.8833 52.493 19.8916 51.5516 19.9209C50.285 19.9596 49.6564 20.4355 49.3687 21.9386C49.0131 23.7983 49.4974 25.453 50.9575 26.8138C53.8538 29.5124 59.0931 29.0491 61.3869 25.8275C61.7728 25.2846 62.1201 24.747 61.8314 24.0033C61.6839 23.6226 61.9433 23.2356 62.2519 23.0013C62.732 22.6352 62.9788 22.1739 63.0301 21.5882C63.0437 21.4292 63.0803 21.288 63.2267 21.1845C63.5708 20.9408 64.0164 21.0788 64.097 21.5338C64.2172 22.2147 64.4505 22.8319 64.7988 23.4249C65.0049 23.7753 64.8908 24.1278 64.6178 24.429C63.938 25.178 63.3365 25.9802 62.87 26.8871C61.2823 29.9779 58.4853 30.7917 55.3067 30.8115C54.2241 30.8178 53.1739 30.5155 52.1311 30.2321C49.2683 29.4539 46.6262 26.681 46.6544 22.7524C46.6618 21.8204 46.4975 20.8654 47.0101 19.9241C47.1073 20.1155 47.19 20.2713 47.2663 20.4282C47.4567 20.8205 47.6565 21.2085 47.9431 21.539C48.0497 21.6614 48.1669 21.8821 48.3311 21.8246C48.4681 21.7765 48.51 21.5516 48.5246 21.3748C48.5936 20.5422 48.6805 19.7096 48.7296 18.876C48.7547 18.4398 48.9242 18.1763 49.3562 18.0487C50.0465 17.8436 50.7494 17.7453 51.4638 17.7129C53.6289 17.6156 55.7805 17.8635 57.9383 17.9618C59.228 18.0215 60.5156 18.033 61.8032 17.9169C62.6933 17.8363 63.051 17.4336 62.9746 16.5487C62.8732 15.3584 62.847 14.1681 62.1713 13.0855C60.9622 11.1495 59.2301 10.1077 56.9907 9.91732C54.1592 9.6757 51.6845 10.3263 50.0779 12.9234C49.4221 13.984 49.0016 15.1409 48.7359 16.3552C48.4493 17.6669 48.2935 18.9973 48.1962 20.3351C48.1794 20.5579 48.147 20.7797 48.1094 21.1112C47.4494 20.15 47.099 19.1762 46.8626 18.1616C46.0791 14.7967 47.1575 11.9789 49.5089 9.59725C50.5998 8.4969 52.0736 8.1057 53.5337 7.72916C56.0598 7.07647 58.5125 7.34529 60.7865 8.54396C63.4202 9.93301 64.7392 12.3168 65.2496 15.1817C65.3312 15.6419 65.304 16.1199 65.3584 16.5864C65.4776 17.5947 64.9526 18.3112 64.3082 18.9785C64.2601 19.0277 64.2026 19.0685 64.1503 19.1124C63.9014 18.6208 63.5562 19.0768 63.2665 19.0162C63.1169 18.9848 62.9746 18.8582 62.8449 19.0204C62.688 19.216 62.8418 19.377 62.9338 19.5392C62.9684 19.5988 63.0071 19.6553 63.074 19.7599Z" fill="#575757"/>
<path d="M93.9175 19.1724C93.9175 15.8975 93.93 12.6215 93.9039 9.34663C93.8997 8.86339 94.0472 8.76716 94.4865 8.78913C95.1998 8.82469 95.9163 8.81737 96.6297 8.79122C96.9864 8.77867 97.1182 8.86862 97.1035 9.2483C97.0742 10.014 97.0941 10.7806 97.0962 11.5473C97.0962 11.6802 97.0512 11.8684 97.2144 11.9071C97.3807 11.9469 97.4204 11.7544 97.4832 11.6383C99.3126 8.25568 103.131 7.77454 105.806 8.64478C107.767 9.28282 108.74 10.835 109.269 12.7199C109.548 13.7125 109.693 14.7344 109.697 15.7626C109.716 20.2048 109.706 24.647 109.725 29.0903C109.727 29.4815 109.591 29.5442 109.248 29.5317C108.552 29.5066 107.852 29.4909 107.157 29.5359C106.668 29.5672 106.519 29.449 106.522 28.9261C106.548 24.9367 106.537 20.9474 106.536 16.9581C106.536 16.069 106.492 15.1821 106.307 14.3087C105.723 11.5505 103.851 10.7472 101.441 11.0746C99.2655 11.3706 97.8995 12.8077 97.3723 15.1308C97.1391 16.1569 97.0972 17.1997 97.0951 18.2447C97.091 21.8334 97.0878 25.4221 97.1014 29.0108C97.1035 29.4051 97.0209 29.5568 96.5941 29.5348C95.864 29.4972 95.1298 29.5024 94.3986 29.5338C94.0148 29.5505 93.9028 29.4522 93.9049 29.0516C93.9248 25.7578 93.9175 22.4651 93.9175 19.1724Z" fill="#575757"/>
<path d="M8.92435 18.0769C8.96618 19.7107 8.85427 21.7147 8.98292 23.7157C9.01116 24.1529 9.09588 24.5796 9.23186 24.9928C9.64711 26.2479 10.6376 26.9414 12.2212 27.0031C13.5789 27.0565 14.9386 27.0492 16.2974 27.0356C16.6865 27.0314 16.8203 27.1328 16.7963 27.5303C16.7628 28.0857 16.7879 28.6443 16.7869 29.2018C16.7869 29.3576 16.8109 29.5291 16.5651 29.5229C14.3404 29.4612 12.0968 29.7383 9.895 29.2572C7.29891 28.6892 6.08455 27.1757 5.84502 24.3966C5.66721 22.3266 5.7739 20.2546 5.75402 18.1836C5.7331 16.0414 5.7331 13.8993 5.76239 11.7571C5.76867 11.276 5.61805 11.185 5.1756 11.1934C3.66 11.2206 2.14335 11.1923 0.627744 11.2111C0.25538 11.2164 0.0859336 11.1452 0.118359 10.73C0.156013 10.2625 0.160197 9.78758 0.117313 9.32108C0.074428 8.85667 0.270024 8.7845 0.680042 8.79078C2.19565 8.81379 3.7123 8.78659 5.2279 8.80856C5.63583 8.81483 5.76553 8.70605 5.75925 8.28348C5.73415 6.64655 5.7718 5.00856 5.7352 3.37267C5.72474 2.88839 5.87954 2.79425 6.3178 2.81517C7.0301 2.84969 7.74659 2.84341 8.45994 2.81727C8.8208 2.80367 8.93585 2.90617 8.93062 3.27854C8.91075 4.91547 8.93794 6.55346 8.91179 8.18935C8.90447 8.66003 9.02057 8.81797 9.51741 8.8117C11.7474 8.7845 13.9785 8.81693 16.2085 8.78659C16.7116 8.77927 16.8339 8.94244 16.7942 9.40058C16.7576 9.81582 16.7503 10.2394 16.7963 10.6526C16.8496 11.1432 16.6425 11.2174 16.2064 11.2132C13.9764 11.1923 11.7453 11.2185 9.51532 11.1913C9.02267 11.185 8.90656 11.3346 8.91284 11.8063C8.93899 13.7727 8.92435 15.7412 8.92435 18.0769Z" fill="#575757"/>
<path fill-rule="evenodd" clip-rule="evenodd" d="M71.1448 12.0412C71.1447 12.2757 71.1447 12.5103 71.1447 12.7451C71.3193 12.7586 71.4385 12.6878 71.5511 12.6209C71.587 12.5996 71.6222 12.5787 71.6582 12.561C74.1246 11.3341 76.705 10.7086 79.4789 11.0182C81.5604 11.2504 82.916 12.3194 83.3344 14.1247C83.4839 14.7701 83.5237 15.429 83.5488 16.0922C83.5634 16.475 83.417 16.5629 83.0645 16.5587C82.2779 16.5503 81.4914 16.5515 80.7048 16.5527C80.1149 16.5536 79.525 16.5545 78.935 16.5514C77.5366 16.544 76.1486 16.6309 74.793 16.9928C72.2858 17.6622 70.4282 19.0261 69.8048 21.6975C69.6092 22.5385 69.582 23.3909 69.6469 24.2423C69.8299 26.6439 70.9627 28.4335 73.1843 29.4335C76.7803 31.0505 80.8125 29.9136 83.1607 26.6617C83.1737 26.6432 83.1862 26.6227 83.1988 26.6019C83.2522 26.5139 83.3089 26.4203 83.4264 26.4567C83.5482 26.4934 83.5442 26.6114 83.5406 26.7201C83.54 26.7383 83.5394 26.7563 83.5394 26.7736C83.5394 27.0025 83.5406 27.2312 83.5419 27.46C83.5449 28.0152 83.5479 28.5701 83.5331 29.1249C83.5258 29.4366 83.5979 29.5506 83.9327 29.5391C84.6805 29.513 85.4315 29.5046 86.1794 29.5412C86.6051 29.5621 86.7327 29.4565 86.7296 29.0088C86.7174 27.407 86.7184 25.8053 86.7194 24.2035C86.7202 22.9142 86.721 21.6249 86.7149 20.3357C86.7134 20.0111 86.7128 19.6866 86.7123 19.362C86.7095 17.8595 86.7067 16.3574 86.6156 14.8538C86.3896 11.1437 83.9159 9.34466 81.4851 8.7108C78.0041 7.80395 74.6528 8.4378 71.3581 9.63543C71.2001 9.69296 71.1436 9.78292 71.1436 9.9419C71.1452 10.6409 71.145 11.3406 71.1448 12.0412ZM81.3318 18.974C81.1037 18.9735 80.8755 18.9731 80.6473 18.9731C80.4407 18.9735 80.2342 18.9727 80.0276 18.9719C78.8762 18.9673 77.7251 18.9626 76.5837 19.1843C74.3652 19.6153 73.1404 20.747 72.8276 22.6821C72.494 24.7468 73.496 26.6023 75.3641 27.1787C77.8001 27.9307 81.1608 27.4443 82.7172 24.0512C83.4076 22.544 83.5456 20.9395 83.5446 19.3099C83.5446 19.0191 83.4065 18.9657 83.1565 18.9689C82.548 18.9765 81.94 18.9752 81.3318 18.974Z" fill="#575757"/>
<path fill-rule="evenodd" clip-rule="evenodd" d="M132.714 25.1233C133.497 23.2238 133.689 21.2229 133.72 19.1947C133.698 17.5892 133.579 15.9951 133.124 14.4461C132.365 11.8625 130.927 9.8459 128.319 8.85119C126.91 8.31356 125.433 8.20792 123.947 8.31461C120.671 8.551 118.219 10.0812 117.032 13.1878C115.509 17.1698 115.541 21.2302 117.039 25.2216C117.894 27.5008 119.571 29.0111 121.935 29.7036C123.221 30.0812 124.545 30.145 125.869 30.0341C129.119 29.7621 131.454 28.1817 132.714 25.1233ZM120.061 14.3975C119.507 15.9455 119.389 17.5531 119.354 19.1754C119.393 20.9745 119.518 22.7589 120.261 24.4335C120.869 25.8048 121.818 26.8288 123.308 27.222C125.691 27.8496 128.489 27.2116 129.608 23.9806C130.526 21.3291 130.498 18.6106 130.027 15.8859C129.774 14.4226 129.255 13.0576 128.09 12.0503C125.421 9.74395 121.294 10.9594 120.061 14.3975Z" fill="#575757"/>
</g>
<defs>
<clipPath id="clip0_5932_34096">
<rect width="133.606" height="30.2378" fill="white" transform="translate(0.113159 0.578125)"/>
</clipPath>
</defs>
</svg>
