<?xml version="1.0" encoding="UTF-8"?>
<svg xmlns="http://www.w3.org/2000/svg" width="78" height="35" viewBox="0 0 78 35" fill="none">
  <path d="M17.2673 11.208V8.65116C17.2673 7.723 16.7069 6.89991 15.8488 6.53215L0 0V1.41851L14.1326 7.25016C14.6229 7.4428 14.6229 8.1433 14.1326 8.33594L0 14.1676V19.8591L8.51106 16.3391L14.115 18.6508C14.6054 18.8434 14.6054 19.5439 14.115 19.7366L0 25.5682V34.5871L15.8488 28.055C16.7069 27.7047 17.2673 26.8641 17.2673 25.936V20.0693C17.2673 19.1411 16.7069 18.318 15.8488 17.9503L10.2273 15.6386L15.8488 13.327C16.7069 12.9767 17.2673 12.1361 17.2673 11.208Z" fill="#575757"></path>
  <path d="M25.3223 12.7656L27.809 22.45L30.5935 12.7656H33.2554L35.8823 22.45L38.4741 12.7656H40.4355L37.0906 24.4464H34.6039L31.8544 14.3768L28.9999 24.4464H26.4781L23.2383 12.7656H25.3223Z" fill="#575757"></path>
  <path d="M43.4296 19.1737C43.4997 20.1369 43.6047 20.6273 43.92 21.2402C44.4979 22.3435 45.8113 23.0615 47.1247 23.0615C48.7184 23.0615 49.7516 22.3085 50.1894 20.8199H52.361C51.8181 23.3417 49.9092 24.7427 47.0897 24.7427C43.5697 24.7427 41.3281 22.326 41.3281 18.5433C41.3281 14.8482 43.5697 12.3789 46.9146 12.3789C50.4696 12.3789 52.396 14.7956 52.396 19.1387H43.4296V19.1737ZM49.6991 15.6012C49.1562 14.673 48.0529 14.1126 46.9146 14.1126C44.9532 14.1126 43.7098 15.356 43.4646 17.5976H50.2595C50.1544 16.5644 50.0143 16.074 49.6991 15.6012Z" fill="#575757"></path>
  <path d="M54.3574 8.31641H56.3538V14.5158C57.1769 13.1323 58.3152 12.4844 59.9789 12.4844C62.8684 12.4844 64.9349 15.0062 64.9349 18.6137C64.9349 22.2213 62.9735 24.6731 59.9964 24.6731C58.3677 24.6731 57.2995 24.0251 56.2662 22.5015V24.4279H54.3398V8.31641H54.3574ZM56.3888 18.5612C56.3888 21.118 57.8423 23.0094 59.7337 23.0094C61.555 23.0094 62.7633 21.2931 62.7633 18.6313C62.7633 15.8468 61.555 14.113 59.6636 14.113C57.7723 14.113 56.3888 15.9343 56.3888 18.5612Z" fill="#575757"></path>
  <path d="M68.5606 19.5261C68.5255 21.5926 69.839 22.941 71.9054 22.941C73.7618 22.941 75.1102 21.7677 75.1102 20.1565C75.1102 18.5104 73.8318 17.4946 71.7653 17.4946C71.5552 17.4946 71.3801 17.4946 71.0823 17.5297V15.7434C71.3275 15.7434 71.4676 15.7434 71.6077 15.7434C73.7442 15.7434 74.9876 14.8152 74.9876 13.1516C74.9876 11.5929 73.7793 10.5947 71.958 10.5947C69.9966 10.5947 68.8583 11.7681 68.7882 13.8345H66.6517C66.7918 10.6298 68.7532 8.77344 71.993 8.77344C74.9876 8.77344 77.0891 10.4897 77.0891 12.9764C77.0891 14.6226 75.9158 16.1462 74.3397 16.5665C76.266 17.0568 77.2993 18.3528 77.2993 20.2966C77.2993 22.9235 75.0577 24.7798 71.8879 24.7798C68.5781 24.7798 66.3365 22.6433 66.3715 19.5436C66.354 19.5261 68.5606 19.5261 68.5606 19.5261Z" fill="#575757"></path>
</svg>
